<svg xmlns="http://www.w3.org/2000/svg" width="605" height="205" viewBox="143 140 605 205">
  <g fill-rule="evenodd" fill="#fff">
    <path d="M297.51 213.55c-2.7-.32-5.45-.48-8.23-.48-12.64 0-24.54 3.29-34.86 9.06-12.16-11.26-46.63-5.03-52.86 24.16v.04l-7.8 36.7c-.22 1.02-1.12 1.75-2.17 1.75h-36.14c-1.41 0-2.46-1.3-2.17-2.68l29.61-138.63c.22-1.02 1.12-1.75 2.17-1.75h36.14c1.41 0 2.46 1.3 2.16 2.68l-13.29 61.83c30.38-33.45 76.5-21.99 87.44 7.31ZM294.12 258.64l-5.2 24.46c-.22 1.02-1.12 1.75-2.17 1.75h-36.22c-1.41 0-2.46-1.3-2.17-2.67l5.99-28.16c4.93-2.67 10.58-4.19 16.58-4.19 8.88 0 17 3.33 23.18 8.81Z"/>
    <path d="M351.74 284.78h-36.68c-1.17 0-2.15-.91-2.2-2.08-.64-13.03-7.22-24.5-17.1-31.74-6.95-5.11-15.52-8.13-24.81-8.13-5.2 0-10.18.95-14.77 2.68-15.27 5.74-26.3 20.12-27.14 37.18-.06 1.17-1.03 2.09-2.2 2.09-1.27 0-2.26-1.06-2.21-2.33.6-16.95 7.71-32.23 18.91-43.43 4.31-4.31 9.22-8.01 14.6-10.97 9.24-5.09 19.86-7.98 31.16-7.98 3.46 0 6.85.27 10.16.8 30.17 4.75 53.41 30.36 54.51 61.59.04 1.26-.95 2.32-2.22 2.32Z"/>
  </g>
  <g fill="#fff">
    <path d="M420.62 220.73h-10.74v-18.7h-15.9v18.7h-10.8v-44.79h10.8v17.78h15.9v-17.78h10.74v44.79ZM460.63 203.45c0 3.51-.72 6.62-2.17 9.34-1.45 2.72-3.48 4.8-6.11 6.26s-5.59 2.18-8.89 2.18-6.36-.72-8.98-2.15c-2.63-1.44-4.67-3.51-6.12-6.23-1.46-2.72-2.18-5.84-2.18-9.37v-1.26c0-3.51.71-6.61 2.12-9.32s3.44-4.8 6.08-6.28 5.65-2.21 9.03-2.21 6.27.73 8.89 2.2 4.66 3.53 6.11 6.18c1.45 2.66 2.19 5.7 2.23 9.12v1.54Zm-10.46-1.26c0-3.16-.59-5.59-1.78-7.31-1.19-1.71-2.85-2.57-4.98-2.57-4.51 0-6.77 3.35-6.77 10.06v1.08c0 3.08.56 5.5 1.69 7.26s2.84 2.65 5.14 2.65c2.05 0 3.67-.86 4.86-2.58s1.8-4.08 1.85-7.08v-1.51ZM497.14 208.21c-.12 3.96-1.68 7.12-4.68 9.47s-6.87 3.54-11.63 3.54c-5.27 0-9.37-1.56-12.29-4.68-2.92-3.12-4.38-7.55-4.38-13.29v-1.02c0-3.61.68-6.77 2.03-9.49s3.27-4.79 5.75-6.23 5.35-2.15 8.61-2.15c4.86 0 8.76 1.2 11.71 3.58 2.94 2.39 4.59 5.64 4.94 9.77h-10.37c.04-1.68-.49-2.99-1.6-3.94s-2.67-1.42-4.68-1.42c-3.69 0-5.67 2.76-5.94 8.29l-.03 2.73c0 3.52.46 6.04 1.38 7.56.92 1.52 2.54 2.27 4.86 2.27 4.04 0 6.02-1.67 5.94-5.01h10.37ZM534.49 220.73h-10.34v-13.54H512v13.54h-10.4v-35.84H512v14.3h12.15v-14.3h10.34v35.84ZM559.72 210.93c0-1.08-.47-1.95-1.42-2.6s-2.6-1.26-4.97-1.81c-2.37-.55-4.36-1.14-5.97-1.75-1.61-.62-2.94-1.35-3.98-2.2-1.05-.85-1.82-1.87-2.31-3.06s-.74-2.62-.74-4.31c0-2.07.6-3.93 1.8-5.58 1.2-1.65 2.87-2.93 5.01-3.85 2.14-.91 4.52-1.37 7.12-1.37 4.68 0 8.4 1.01 11.17 3.03 2.77 2.02 4.15 4.76 4.15 8.23h-10.4c0-1.11-.46-2.06-1.37-2.86-.91-.8-2.07-1.2-3.46-1.2-1.29 0-2.34.31-3.14.94-.8.63-1.2 1.36-1.2 2.2 0 .92.4 1.66 1.21 2.21.81.55 2.24 1.1 4.29 1.63 5.11 1.07 8.7 2.53 10.78 4.38 2.08 1.86 3.12 4.4 3.12 7.64s-1.28 5.87-3.85 7.77c-2.56 1.9-6.08 2.85-10.55 2.85-3.1 0-5.87-.49-8.31-1.46s-4.32-2.37-5.64-4.18c-1.32-1.82-1.98-3.98-1.98-6.51h10.43c0 1.83.48 3.12 1.43 3.85s2.55 1.1 4.78 1.1c1.25 0 2.23-.28 2.92-.84s1.05-1.31 1.05-2.25ZM606.14 208.21c-.12 3.96-1.68 7.12-4.68 9.47s-6.87 3.54-11.63 3.54c-5.27 0-9.37-1.56-12.29-4.68-2.92-3.12-4.38-7.55-4.38-13.29v-1.02c0-3.61.68-6.77 2.03-9.49s3.27-4.79 5.75-6.23 5.35-2.15 8.61-2.15c4.86 0 8.76 1.2 11.71 3.58 2.94 2.39 4.59 5.64 4.94 9.77h-10.37c.04-1.68-.49-2.99-1.6-3.94s-2.67-1.42-4.68-1.42c-3.69 0-5.67 2.76-5.94 8.29l-.03 2.73c0 3.52.46 6.04 1.38 7.56.92 1.52 2.54 2.27 4.86 2.27 4.04 0 6.02-1.67 5.94-5.01h10.37ZM643.5 220.73h-10.34v-13.54h-12.15v13.54h-10.4v-35.84h10.4v14.3h12.15v-14.3h10.34v35.84ZM680.55 184.9v22.95c0 4.22-1.35 7.51-4.06 9.86-2.71 2.35-6.51 3.52-11.41 3.52s-8.61-1.18-11.37-3.54-4.16-5.57-4.2-9.63V184.9h10.43v22.95c0 1.93.43 3.3 1.29 4.13.86.83 2.14 1.24 3.85 1.24s3.02-.42 3.83-1.24c.81-.83 1.22-2.21 1.22-4.13V184.9h10.43ZM697.01 212.74h15.57v8h-25.96V184.9h10.4v27.84ZM740.8 206.21h-14.09v6.52h16.7v8h-27.1v-35.84h27.25v8H726.7v5.32h14.09v8ZM420.59 284.73h-10.74l-15.87-27.87v27.87h-10.8v-44.79h10.8l15.84 27.87v-27.87h10.77v44.79ZM460.12 267.45c0 3.51-.72 6.62-2.17 9.34-1.45 2.72-3.48 4.8-6.11 6.26s-5.59 2.18-8.89 2.18-6.36-.72-8.98-2.15c-2.63-1.44-4.67-3.51-6.12-6.23-1.46-2.72-2.18-5.84-2.18-9.37v-1.26c0-3.51.71-6.61 2.12-9.32s3.44-4.8 6.08-6.28 5.65-2.21 9.03-2.21 6.27.73 8.89 2.2 4.66 3.53 6.11 6.18c1.45 2.66 2.19 5.7 2.23 9.12v1.54Zm-10.46-1.26c0-3.16-.59-5.59-1.78-7.31-1.19-1.71-2.85-2.57-4.98-2.57-4.51 0-6.77 3.35-6.77 10.06v1.08c0 3.08.56 5.5 1.69 7.26s2.84 2.65 5.14 2.65c2.05 0 3.67-.86 4.86-2.58s1.8-4.08 1.85-7.08v-1.51ZM478.76 272.86h-4.09v11.87h-10.4v-35.84h15.84c4.66 0 8.29.94 10.92 2.82 2.62 1.88 3.94 4.5 3.94 7.86 0 2.6-.5 4.74-1.51 6.4s-2.69 3.05-5.04 4.15l7.78 14.21v.4H485l-6.24-11.87Zm-4.09-8h5.45c2.99 0 4.49-1.35 4.49-4.06s-1.6-3.91-4.8-3.91h-5.14v7.97ZM500.01 284.73v-35.84h12.83c3.4 0 6.49.74 9.26 2.23 2.77 1.49 4.93 3.56 6.49 6.21 1.56 2.66 2.34 5.6 2.34 8.84v1.26c0 3.22-.76 6.15-2.28 8.78-1.52 2.64-3.63 4.71-6.34 6.21-2.71 1.51-5.71 2.27-9.01 2.29h-13.29Zm10.4-27.84v19.84h2.74c2.56 0 4.41-.65 5.54-1.94s1.72-3.52 1.78-6.7v-1.97c0-3.36-.57-5.72-1.71-7.09-1.14-1.37-2.97-2.09-5.49-2.15h-2.86ZM567.88 284.73h-10.34v-13.54h-12.15v13.54h-10.4v-35.84h10.4v14.3h12.15v-14.3h10.34v35.84ZM595.85 278.46h-12.83l-2.12 6.28h-10.4l13.87-35.84h9.97l14.15 35.84h-10.43l-2.21-6.28Zm-10.46-7.08h7.97l-3.91-11.07-.15-.68-.12.62-3.78 11.14ZM640.34 248.9v22.95c0 4.22-1.35 7.51-4.06 9.86-2.71 2.35-6.51 3.52-11.41 3.52s-8.61-1.18-11.37-3.54-4.16-5.57-4.2-9.63V248.9h10.43v22.95c0 1.93.43 3.3 1.29 4.13.86.83 2.14 1.24 3.85 1.24s3.02-.42 3.83-1.24c.81-.83 1.22-2.21 1.22-4.13V248.9h10.43ZM664.74 274.93c0-1.08-.47-1.95-1.42-2.6s-2.6-1.26-4.97-1.81c-2.37-.55-4.36-1.14-5.97-1.75-1.61-.62-2.94-1.35-3.98-2.2-1.05-.85-1.82-1.87-2.31-3.06s-.74-2.62-.74-4.31c0-2.07.6-3.93 1.8-5.58 1.2-1.65 2.87-2.93 5.01-3.85 2.14-.91 4.52-1.37 7.12-1.37 4.68 0 8.4 1.01 11.17 3.03 2.77 2.02 4.15 4.76 4.15 8.23h-10.4c0-1.11-.46-2.06-1.37-2.86-.91-.8-2.07-1.2-3.46-1.2-1.29 0-2.34.31-3.14.94-.8.63-1.2 1.36-1.2 2.2 0 .92.4 1.66 1.21 2.21.81.55 2.24 1.1 4.29 1.63 5.11 1.07 8.7 2.53 10.78 4.38 2.08 1.86 3.12 4.4 3.12 7.64s-1.28 5.87-3.85 7.77c-2.56 1.9-6.08 2.85-10.55 2.85-3.1 0-5.87-.49-8.31-1.46s-4.32-2.37-5.64-4.18c-1.32-1.82-1.98-3.98-1.98-6.51h10.43c0 1.83.48 3.12 1.43 3.85s2.55 1.1 4.78 1.1c1.25 0 2.23-.28 2.92-.84s1.05-1.31 1.05-2.25ZM703.83 270.21h-14.09v6.52h16.7v8h-27.1v-35.84h27.25v8h-16.86v5.32h14.09v8ZM743.55 284.73h-10.37l-12.09-20.86v20.86h-10.4v-35.84h10.4l12.09 20.86v-20.86h10.37v35.84Z"/>
  </g>
  <g fill="#fff">
    <path d="M168.81 305.14v19.48c0 3.1-.99 5.55-2.97 7.36-1.98 1.81-4.62 2.71-7.92 2.71s-5.99-.89-7.95-2.67-2.94-4.25-2.94-7.42v-19.46h5.04v19.5c0 1.95.49 3.44 1.48 4.46.99 1.03 2.44 1.54 4.36 1.54 3.9 0 5.85-2.06 5.85-6.17v-19.34h5.04ZM180.07 312.63l.14 2.5c1.6-1.94 3.7-2.9 6.31-2.9 4.51 0 6.81 2.58 6.89 7.75v14.31h-4.86v-14.03c0-1.37-.3-2.39-.89-3.05s-1.56-.99-2.91-.99c-1.96 0-3.42.89-4.38 2.66v15.42h-4.86v-21.66h4.58ZM199.71 307.01c0-.75.24-1.37.71-1.86s1.15-.74 2.03-.74 1.56.25 2.04.74.72 1.11.72 1.86-.24 1.34-.72 1.83-1.16.73-2.04.73-1.56-.24-2.03-.73-.71-1.1-.71-1.83Zm5.17 27.29h-4.86v-21.66h4.86v21.66ZM219.24 328.13l4.58-15.5h5.02l-7.51 21.66h-4.22l-7.57-21.66h5.04l4.64 15.5ZM242.02 334.69c-3.08 0-5.58-.97-7.5-2.91s-2.87-4.53-2.87-7.76v-.6c0-2.16.42-4.09 1.25-5.8.83-1.7 2-3.03 3.51-3.97 1.51-.95 3.19-1.42 5.04-1.42 2.95 0 5.23.94 6.84 2.82s2.41 4.54 2.41 7.99V325h-14.15c.15 1.79.74 3.2 1.79 4.24s2.37 1.56 3.95 1.56c2.23 0 4.04-.9 5.45-2.7l2.62 2.5c-.87 1.29-2.03 2.3-3.47 3.01s-3.07 1.07-4.87 1.07Zm-.58-18.56c-1.33 0-2.41.47-3.23 1.4-.82.93-1.34 2.24-1.57 3.9h9.27v-.36c-.11-1.63-.54-2.86-1.3-3.69s-1.82-1.25-3.16-1.25ZM267.53 317.08c-.64-.11-1.3-.16-1.98-.16-2.23 0-3.73.85-4.5 2.56v14.81h-4.86v-21.66h4.64l.12 2.42c1.17-1.88 2.8-2.82 4.88-2.82.69 0 1.27.09 1.72.28l-.02 4.56ZM284.37 328.41c0-.87-.36-1.53-1.07-1.98-.71-.45-1.9-.85-3.55-1.2-1.66-.35-3.04-.79-4.14-1.32-2.43-1.17-3.64-2.88-3.64-5.1 0-1.87.79-3.43 2.36-4.68 1.57-1.25 3.58-1.88 6.01-1.88 2.59 0 4.68.64 6.28 1.92s2.39 2.94 2.39 4.98h-4.86c0-.93-.35-1.71-1.04-2.33-.69-.62-1.62-.93-2.76-.93-1.07 0-1.94.25-2.61.74-.67.49-1.01 1.15-1.01 1.98 0 .75.31 1.33.94 1.74.63.41 1.9.83 3.8 1.25 1.91.42 3.41.92 4.49 1.5 1.09.58 1.89 1.28 2.42 2.09.53.81.79 1.8.79 2.96 0 1.95-.81 3.53-2.42 4.73-1.62 1.21-3.73 1.81-6.35 1.81-1.78 0-3.36-.32-4.74-.96-1.39-.64-2.47-1.52-3.24-2.64s-1.16-2.33-1.16-3.62h4.72c.07 1.15.5 2.03 1.3 2.65s1.86.93 3.18.93 2.26-.24 2.92-.73c.67-.49 1-1.12 1-1.91ZM294.69 307.01c0-.75.24-1.37.71-1.86s1.15-.74 2.03-.74 1.56.25 2.04.74.72 1.11.72 1.86-.24 1.34-.72 1.83-1.16.73-2.04.73-1.56-.24-2.03-.73-.71-1.1-.71-1.83Zm5.17 27.29H295v-21.66h4.86v21.66ZM312.84 307.37v5.27h3.82v3.6h-3.82v12.09c0 .83.16 1.42.49 1.79.33.37.91.55 1.75.55.56 0 1.13-.07 1.7-.2v3.76c-1.11.31-2.18.46-3.2.46-3.74 0-5.61-2.06-5.61-6.19v-12.27h-3.56v-3.6h3.56v-5.27h4.86ZM330.31 327.33l4.4-14.69h5.19l-8.61 24.94c-1.32 3.64-3.56 5.47-6.73 5.47-.71 0-1.49-.12-2.34-.36v-3.78l.92.06c1.23 0 2.15-.22 2.77-.67.62-.45 1.11-1.2 1.47-2.25l.7-1.86-7.61-21.54h5.25l4.58 14.69ZM355.59 323.26c0-2.12.42-4.03 1.26-5.74s2.02-3.01 3.54-3.92 3.27-1.37 5.25-1.37c2.92 0 5.3.94 7.12 2.82 1.82 1.88 2.81 4.38 2.95 7.49l.02 1.14c0 2.14-.41 4.04-1.23 5.73-.82 1.68-2 2.98-3.52 3.9-1.53.92-3.29 1.38-5.3 1.38-3.06 0-5.5-1.02-7.34-3.05s-2.75-4.75-2.75-8.14v-.24Zm4.86.42c0 2.23.46 3.97 1.38 5.24s2.2 1.89 3.84 1.89 2.92-.64 3.83-1.92 1.37-3.16 1.37-5.63c0-2.19-.47-3.92-1.41-5.21-.94-1.28-2.22-1.92-3.83-1.92s-2.85.63-3.78 1.89c-.93 1.26-1.4 3.15-1.4 5.66ZM382.48 334.29v-18.06h-3.3v-3.6h3.3v-1.98c0-2.4.67-4.26 2-5.57 1.33-1.31 3.2-1.96 5.61-1.96.85 0 1.76.12 2.72.36l-.12 3.8c-.53-.11-1.15-.16-1.86-.16-2.32 0-3.48 1.19-3.48 3.58v1.92h4.4v3.6h-4.4v18.06h-4.86ZM425.91 327.51h-11.29l-2.36 6.79h-5.27L418 305.15h4.54l11.03 29.15h-5.29l-2.38-6.79Zm-9.87-4.08h8.45l-4.22-12.09-4.22 12.09ZM457.24 323.68c0 3.35-.76 6.02-2.28 8.02s-3.56 2.99-6.13 2.99c-2.38 0-4.28-.78-5.71-2.34v10.27h-4.86v-29.99h4.48l.2 2.2c1.43-1.73 3.37-2.6 5.83-2.6 2.64 0 4.71.98 6.22 2.95 1.5 1.97 2.25 4.7 2.25 8.2v.3Zm-4.84-.42c0-2.16-.43-3.88-1.29-5.15-.86-1.27-2.09-1.9-3.69-1.9-1.99 0-3.42.82-4.28 2.46v9.61c.88 1.68 2.32 2.52 4.32 2.52 1.55 0 2.76-.62 3.63-1.87s1.31-3.14 1.31-5.68ZM481.91 323.68c0 3.35-.76 6.02-2.28 8.02s-3.56 2.99-6.13 2.99c-2.38 0-4.28-.78-5.71-2.34v10.27h-4.86v-29.99h4.48l.2 2.2c1.43-1.73 3.37-2.6 5.83-2.6 2.64 0 4.71.98 6.22 2.95 1.5 1.97 2.25 4.7 2.25 8.2v.3Zm-4.84-.42c0-2.16-.43-3.88-1.29-5.15-.86-1.27-2.09-1.9-3.69-1.9-1.99 0-3.42.82-4.28 2.46v9.61c.88 1.68 2.32 2.52 4.32 2.52 1.55 0 2.76-.62 3.63-1.87s1.31-3.14 1.31-5.68ZM492.65 334.29h-4.86v-30.75h4.86v30.75ZM499.21 307.01c0-.75.24-1.37.71-1.86s1.15-.74 2.03-.74 1.56.25 2.04.74.72 1.11.72 1.86-.24 1.34-.72 1.83-1.16.73-2.04.73-1.56-.24-2.03-.73-.71-1.1-.71-1.83Zm5.17 27.29h-4.86v-21.66h4.86v21.66ZM520.44 334.69c-3.08 0-5.58-.97-7.5-2.91s-2.87-4.53-2.87-7.76v-.6c0-2.16.42-4.09 1.25-5.8.83-1.7 2-3.03 3.51-3.97 1.51-.95 3.19-1.42 5.04-1.42 2.95 0 5.23.94 6.84 2.82s2.41 4.54 2.41 7.99V325h-14.15c.15 1.79.74 3.2 1.79 4.24s2.37 1.56 3.95 1.56c2.23 0 4.04-.9 5.45-2.7l2.62 2.5c-.87 1.29-2.03 2.3-3.47 3.01s-3.07 1.07-4.87 1.07Zm-.58-18.56c-1.33 0-2.41.47-3.23 1.4-.82.93-1.34 2.24-1.57 3.9h9.27v-.36c-.11-1.63-.54-2.86-1.3-3.69s-1.82-1.25-3.16-1.25ZM533.71 323.3c0-3.34.77-6.02 2.32-8.04 1.55-2.02 3.62-3.03 6.23-3.03 2.3 0 4.15.8 5.57 2.4v-11.09h4.86v30.75h-4.4l-.24-2.24c-1.46 1.76-3.4 2.64-5.83 2.64s-4.59-1.02-6.16-3.06-2.35-4.82-2.35-8.33Zm4.86.42c0 2.2.42 3.92 1.27 5.16.85 1.23 2.05 1.85 3.61 1.85 1.99 0 3.44-.89 4.36-2.66v-9.25c-.89-1.73-2.34-2.6-4.32-2.6-1.58 0-2.79.62-3.64 1.87-.85 1.25-1.28 3.13-1.28 5.64ZM587.28 326.79c0-1.28-.45-2.27-1.35-2.96-.9-.69-2.53-1.39-4.88-2.1-2.35-.71-4.22-1.49-5.61-2.36-2.66-1.67-3.98-3.84-3.98-6.53 0-2.35.96-4.28 2.87-5.81s4.4-2.28 7.46-2.28c2.03 0 3.84.37 5.43 1.12 1.59.75 2.84 1.81 3.74 3.19.91 1.38 1.36 2.91 1.36 4.59h-5.04c0-1.52-.48-2.71-1.43-3.57-.95-.86-2.32-1.29-4.09-1.29-1.66 0-2.94.35-3.85 1.06-.91.71-1.37 1.7-1.37 2.96 0 1.07.49 1.96 1.48 2.67s2.62 1.41 4.88 2.08c2.27.67 4.09 1.44 5.47 2.3 1.37.86 2.38 1.85 3.02 2.96s.96 2.42.96 3.91c0 2.43-.93 4.36-2.79 5.8-1.86 1.43-4.39 2.15-7.58 2.15-2.11 0-4.05-.39-5.82-1.17-1.77-.78-3.14-1.86-4.12-3.23-.98-1.37-1.47-2.98-1.47-4.8h5.06c0 1.66.55 2.94 1.64 3.84 1.09.91 2.66 1.36 4.7 1.36 1.76 0 3.09-.36 3.97-1.07s1.33-1.66 1.33-2.83ZM606.89 330.81c1.21 0 2.22-.35 3.02-1.06.8-.71 1.23-1.58 1.28-2.62h4.58c-.05 1.35-.47 2.61-1.26 3.77-.79 1.17-1.86 2.09-3.2 2.77-1.35.68-2.8 1.02-4.36 1.02-3.03 0-5.43-.98-7.21-2.94-1.78-1.96-2.66-4.67-2.66-8.13v-.5c0-3.3.88-5.94 2.64-7.92s4.16-2.97 7.21-2.97c2.58 0 4.67.75 6.3 2.25 1.62 1.5 2.47 3.47 2.55 5.92h-4.58c-.05-1.24-.48-2.26-1.27-3.06s-1.81-1.2-3.03-1.2c-1.58 0-2.79.57-3.64 1.71-.85 1.14-1.29 2.87-1.3 5.19v.78c0 2.35.42 4.1 1.27 5.26.85 1.15 2.07 1.73 3.67 1.73ZM620.9 307.01c0-.75.24-1.37.71-1.86s1.15-.74 2.03-.74 1.56.25 2.04.74.72 1.11.72 1.86-.24 1.34-.72 1.83-1.16.73-2.04.73-1.56-.24-2.03-.73-.71-1.1-.71-1.83Zm5.17 27.29h-4.86v-21.66h4.86v21.66ZM642.13 334.69c-3.08 0-5.58-.97-7.5-2.91s-2.87-4.53-2.87-7.76v-.6c0-2.16.42-4.09 1.25-5.8.83-1.7 2-3.03 3.51-3.97 1.51-.95 3.19-1.42 5.04-1.42 2.95 0 5.23.94 6.84 2.82s2.41 4.54 2.41 7.99V325h-14.15c.15 1.79.74 3.2 1.79 4.24s2.37 1.56 3.95 1.56c2.23 0 4.04-.9 5.45-2.7l2.62 2.5c-.87 1.29-2.03 2.3-3.47 3.01s-3.07 1.07-4.87 1.07Zm-.58-18.56c-1.33 0-2.41.47-3.23 1.4-.82.93-1.34 2.24-1.57 3.9h9.27v-.36c-.11-1.63-.54-2.86-1.3-3.69s-1.82-1.25-3.16-1.25ZM660.83 312.63l.14 2.5c1.6-1.94 3.7-2.9 6.31-2.9 4.51 0 6.81 2.58 6.89 7.75v14.31h-4.86v-14.03c0-1.37-.3-2.39-.89-3.05s-1.56-.99-2.91-.99c-1.96 0-3.42.89-4.38 2.66v15.42h-4.86v-21.66h4.58ZM689.52 330.81c1.21 0 2.22-.35 3.02-1.06.8-.71 1.23-1.58 1.28-2.62h4.58c-.05 1.35-.47 2.61-1.26 3.77-.79 1.17-1.86 2.09-3.2 2.77-1.35.68-2.8 1.02-4.36 1.02-3.03 0-5.43-.98-7.21-2.94-1.78-1.96-2.66-4.67-2.66-8.13v-.5c0-3.3.88-5.94 2.64-7.92s4.16-2.97 7.21-2.97c2.58 0 4.67.75 6.3 2.25 1.62 1.5 2.47 3.47 2.55 5.92h-4.58c-.05-1.24-.48-2.26-1.27-3.06s-1.81-1.2-3.03-1.2c-1.58 0-2.79.57-3.64 1.71-.85 1.14-1.29 2.87-1.3 5.19v.78c0 2.35.42 4.1 1.27 5.26.85 1.15 2.07 1.73 3.67 1.73ZM713.16 334.69c-3.08 0-5.58-.97-7.5-2.91s-2.87-4.53-2.87-7.76v-.6c0-2.16.42-4.09 1.25-5.8.83-1.7 2-3.03 3.51-3.97 1.51-.95 3.19-1.42 5.04-1.42 2.95 0 5.23.94 6.84 2.82s2.41 4.54 2.41 7.99V325h-14.15c.15 1.79.74 3.2 1.79 4.24s2.37 1.56 3.95 1.56c2.23 0 4.04-.9 5.45-2.7l2.62 2.5c-.87 1.29-2.03 2.3-3.47 3.01s-3.07 1.07-4.87 1.07Zm-.58-18.56c-1.33 0-2.41.47-3.23 1.4-.82.93-1.34 2.24-1.57 3.9h9.27v-.36c-.11-1.63-.54-2.86-1.3-3.69s-1.82-1.25-3.16-1.25ZM739.13 328.41c0-.87-.36-1.53-1.07-1.98-.71-.45-1.9-.85-3.55-1.2-1.66-.35-3.04-.79-4.14-1.32-2.43-1.17-3.64-2.88-3.64-5.1 0-1.87.79-3.43 2.36-4.68 1.57-1.25 3.58-1.88 6.01-1.88 2.59 0 4.68.64 6.28 1.92s2.39 2.94 2.39 4.98h-4.86c0-.93-.35-1.71-1.04-2.33-.69-.62-1.62-.93-2.76-.93-1.07 0-1.94.25-2.61.74-.67.49-1.01 1.15-1.01 1.98 0 .75.31 1.33.94 1.74.63.41 1.9.83 3.8 1.25 1.91.42 3.41.92 4.49 1.5 1.09.58 1.89 1.28 2.42 2.09.53.81.79 1.8.79 2.96 0 1.95-.81 3.53-2.42 4.73-1.62 1.21-3.73 1.81-6.35 1.81-1.78 0-3.36-.32-4.74-.96-1.39-.64-2.47-1.52-3.24-2.64s-1.16-2.33-1.16-3.62h4.72c.07 1.15.5 2.03 1.3 2.65s1.86.93 3.18.93 2.26-.24 2.92-.73c.67-.49 1-1.12 1-1.91Z"/>
  </g>
</svg>
