<?xml version="1.0" encoding="UTF-8"?><svg id="Ebene_1" xmlns="http://www.w3.org/2000/svg" viewBox="0 0 265.76 110.16"><defs><style>.cls-1{fill:#000;}.cls-1,.cls-2{stroke-width:0px;}.cls-3{fill:none;stroke:#000;stroke-miterlimit:10;}.cls-2{fill:#e00000;}</style></defs><path class="cls-1" d="M0,72.96c0-3.59.68-7.03,2.04-10.31,1.36-3.28,3.3-6.19,5.81-8.73,2.52-2.54,5.42-4.49,8.71-5.85,3.29-1.36,6.72-2.04,10.29-2.04s7,.68,10.28,2.04c3.28,1.36,6.18,3.31,8.69,5.85,2.52,2.54,4.45,5.45,5.81,8.73,1.36,3.28,2.04,6.72,2.04,10.31,0,7.12-2.38,13.21-7.14,18.26-2.13,2.29-4.6,4.16-7.41,5.59-2.81,1.44-5.75,2.36-8.83,2.76,0,1.33.45,2.39,1.35,3.18.9.8,2.1,1.2,3.6,1.2h5.46v6.2h-5.46c-3.57,0-6.44-.96-8.61-2.88-2.17-1.92-3.25-4.49-3.25-7.7-3.03-.36-5.95-1.26-8.76-2.71-2.81-1.45-5.29-3.33-7.45-5.64-2.34-2.49-4.12-5.3-5.34-8.42s-1.84-6.4-1.84-9.84ZM26.85,52.24c-2.61,0-5.11.53-7.51,1.58-2.4,1.06-4.54,2.56-6.4,4.51-1.84,1.95-3.26,4.19-4.26,6.72-1,2.53-1.5,5.16-1.5,7.9,0,5.03,1.51,9.45,4.53,13.24,3.02,3.8,6.91,6.14,11.67,7.04v-6.84h6.91v6.84c4.67-.85,8.54-3.2,11.61-7.04,3.07-3.84,4.6-8.25,4.6-13.24,0-2.74-.5-5.37-1.5-7.9-1-2.53-2.42-4.77-4.26-6.72-1.86-1.95-3.99-3.46-6.38-4.51-2.39-1.06-4.89-1.58-7.5-1.58Z"/><path class="cls-1" d="M79.11,84.55h-19.51v-5.79h19.51v5.79Z"/><path class="cls-1" d="M92.52,76.53v22.57h-6.57v-22.57c0-4.07,1.44-7.46,4.31-10.19,2.88-2.73,6.44-4.09,10.68-4.09s7.74,1.37,10.63,4.11c2.89,2.74,4.33,6.13,4.33,10.17v22.57h-6.57v-22.57c0-2.31-.82-4.3-2.46-5.95-1.64-1.65-3.62-2.48-5.93-2.48s-4.3.83-5.95,2.48-2.48,3.63-2.48,5.95Z"/><path class="cls-1" d="M141,93.92c2.58,0,4.92-.49,7.02-1.48,2.1-.99,3.74-2.38,4.94-4.18l5.79,3.3c-3.71,5.48-9.78,8.22-18.23,8.22-2.63,0-5.13-.46-7.5-1.38-2.37-.92-4.46-2.24-6.28-3.94-3.8-3.62-5.69-8.09-5.69-13.41s1.9-9.83,5.69-13.44c1.82-1.73,3.91-3.05,6.28-3.98,2.37-.92,4.87-1.38,7.5-1.38s5.13.46,7.5,1.38c2.37.92,4.46,2.25,6.28,3.98,3.8,3.62,5.69,8.1,5.69,13.44v2.05h-32.24c.49,3.1,1.97,5.68,4.43,7.73,2.46,2.06,5.4,3.08,8.81,3.08ZM128.16,77.24h24.73c-.81-2.67-2.35-4.86-4.63-6.57-2.28-1.71-4.86-2.56-7.73-2.56s-5.41.85-7.68,2.54c-2.27,1.7-3.83,3.89-4.68,6.59Z"/><path class="cls-1" d="M165.16,52.95h6.57v10.01h10.48v5.86h-10.48v20.21c0,1.19.48,2.19,1.45,3,.97.81,2.19,1.21,3.67,1.21h5.36v5.86h-6.06c-3.26,0-5.9-.93-7.93-2.8-2.03-1.86-3.05-4.24-3.05-7.14v-36.22Z"/><path class="cls-1" d="M206.12,84.55h-19.51v-5.79h19.51v5.79Z"/><path class="cls-1" d="M212.09,72.96c0-3.59.68-7.03,2.04-10.31,1.36-3.28,3.3-6.19,5.81-8.73,2.52-2.54,5.42-4.49,8.71-5.85,3.29-1.36,6.72-2.04,10.29-2.04s7,.68,10.28,2.04c3.28,1.36,6.18,3.31,8.69,5.85,2.52,2.54,4.45,5.45,5.81,8.73,1.36,3.28,2.04,6.72,2.04,10.31,0,7.12-2.38,13.21-7.14,18.26-2.13,2.29-4.6,4.16-7.41,5.59-2.81,1.44-5.75,2.36-8.83,2.76,0,1.33.45,2.39,1.35,3.18.9.8,2.1,1.2,3.6,1.2h5.46v6.2h-5.46c-3.57,0-6.44-.96-8.61-2.88-2.17-1.92-3.25-4.49-3.25-7.7-3.03-.36-5.95-1.26-8.76-2.71-2.81-1.45-5.29-3.33-7.45-5.64-2.34-2.49-4.12-5.3-5.34-8.42s-1.84-6.4-1.84-9.84ZM238.94,52.24c-2.61,0-5.11.53-7.51,1.58-2.4,1.06-4.54,2.56-6.4,4.51-1.84,1.95-3.26,4.19-4.26,6.72-1,2.53-1.5,5.16-1.5,7.9,0,5.03,1.51,9.45,4.53,13.24,3.02,3.8,6.91,6.14,11.67,7.04v-6.84h6.91v6.84c4.67-.85,8.54-3.2,11.61-7.04,3.07-3.84,4.6-8.25,4.6-13.24,0-2.74-.5-5.37-1.5-7.9-1-2.53-2.42-4.77-4.26-6.72-1.86-1.95-3.99-3.46-6.38-4.51-2.39-1.06-4.89-1.58-7.5-1.58Z"/><polyline class="cls-3" points="99.78 32.44 113.05 17.88 132.46 21.71 140.63 36.52 165.98 32.44"/><polyline class="cls-3" points="125.31 50.05 132.88 19.93 141.14 5.37"/><circle class="cls-1" cx="113.66" cy="17.15" r="4.69"/><circle class="cls-1" cx="124.88" cy="50.73" r="4.69"/><circle class="cls-1" cx="141.14" cy="4.69" r="4.69"/><circle class="cls-1" cx="141.14" cy="35.93" r="4.69"/><circle class="cls-2" cx="132.12" cy="21.84" r="4.69"/><polygon class="cls-2" points="1.46 33.03 31.35 34.22 37.81 26.42 40.88 33.03 48.54 33.03 53.48 38.91 58.42 31.83 60.25 33.63 69.55 33.75 71.52 36.52 73.39 36.52 75.27 27.56 72.27 34.93 70.02 32.4 61.24 32.5 58.48 28.95 53.35 36.15 49.41 31.45 41.73 31.23 38.05 23.34 30.79 32.45 1.46 33.03"/><polygon class="cls-2" points="75.71 24.78 78.04 10.67 80.5 24.84 78.29 19.14 75.71 24.78"/><polygon class="cls-2" points="81.65 31.13 82.22 39.71 90.08 29.53 95.82 33.2 90.2 26.53 83.25 35.12 81.65 31.13"/><circle class="cls-1" cx="98.76" cy="34.22" r="4.69"/><path class="cls-2" d="M171.19,31.01l17.83-.5,5.49-9.41,6.19,9.41h7.21l2.76,4.25,5.17-6.97,4.02,3.35,7.79-.03,1.19,1.15,6.57-23.43s2.74,16.6,2.74,16.4-3.01-6.54-3.01-6.54l-5.84,17.29-2.4-3.37-7.42.06-3.4-2.56-5.69,8.54-3.38-6.06-6.77.13-5.49-7.6-4.91,7.34-18.83-.44.17-1Z"/><path class="cls-2" d="M239.53,29.62l1.56,3.67,6.83-8.11,3.57,5.79,6.32.92-7.19.69s-2.71-4.29-2.74-4.42-7.37,8.6-7.37,8.6l-1-7.13Z"/><circle class="cls-1" cx="167.35" cy="31.83" r="4.69"/></svg>