<svg xmlns="http://www.w3.org/2000/svg" width="4462" height="2049" viewBox="0 0 4462 2049" version="1.1"><path d="M 4039.629 190 C 4038.895 191.824, 4037.997 194.876, 4014.119 276.671 C 3990.207 358.586, 3984.507 379.495, 3982.475 392.750 C 3982.117 395.087, 3981.414 397, 3980.912 397 C 3980.410 397, 3980 399.870, 3980 403.378 C 3980 407.827, 3979.546 410.132, 3978.500 411 C 3977.459 411.864, 3977 414.160, 3977 418.500 C 3977 422.840, 3976.541 425.136, 3975.500 426 C 3974.502 426.828, 3974 429.070, 3974 432.694 C 3974 436.204, 3973.466 438.677, 3972.500 439.643 C 3971.509 440.634, 3971 443.126, 3971 446.988 C 3971 450.620, 3970.549 452.984, 3969.809 453.230 C 3969.101 453.466, 3968.443 456.437, 3968.185 460.564 C 3967.946 464.379, 3967.268 467.807, 3966.677 468.182 C 3966.087 468.556, 3965.412 471.931, 3965.177 475.682 C 3964.943 479.432, 3964.276 482.802, 3963.695 483.171 C 3963.114 483.539, 3962.437 486.689, 3962.191 490.171 C 3961.944 493.652, 3961.341 496.757, 3960.850 497.072 C 3960.359 497.387, 3959.674 500.762, 3959.327 504.572 C 3958.980 508.382, 3958.277 511.774, 3957.766 512.110 C 3957.254 512.445, 3956.588 515.595, 3956.285 519.110 C 3955.982 522.624, 3955.328 526.015, 3954.832 526.644 C 3954.337 527.273, 3953.660 530.198, 3953.328 533.144 C 3952.996 536.090, 3952.359 538.970, 3951.912 539.543 C 3951.464 540.117, 3950.789 543.605, 3950.411 547.293 C 3950.033 550.982, 3949.363 554, 3948.922 554 C 3948.482 554, 3947.810 557.160, 3947.429 561.022 C 3947.049 564.884, 3946.373 568.270, 3945.927 568.545 C 3945.481 568.821, 3944.807 572.186, 3944.429 576.023 C 3944.051 579.860, 3943.388 583, 3942.956 583 C 3942.524 583, 3941.852 586.399, 3941.463 590.554 L 3940.755 598.108 3937.627 597.804 C 3935.233 597.571, 3934.423 596.958, 3934.172 595.189 C 3933.992 593.918, 3933.205 592.632, 3932.422 592.332 C 3931.640 592.032, 3931 591.159, 3931 590.393 C 3931 589.627, 3930.575 589, 3930.055 589 C 3929.121 589, 3926.656 585.152, 3925.408 581.750 C 3925.055 580.788, 3924.144 580, 3923.383 580 C 3922.623 580, 3922 579.373, 3922 578.607 C 3922 577.841, 3921.325 576.955, 3920.500 576.638 C 3919.675 576.322, 3919 575.135, 3919 574 C 3919 572.865, 3918.325 571.678, 3917.500 571.362 C 3916.675 571.045, 3916 570.159, 3916 569.393 C 3916 568.627, 3915.325 568, 3914.500 568 C 3913.675 568, 3913 567.325, 3913 566.500 C 3913 565.675, 3912.363 565, 3911.583 565 C 3910.804 565, 3910.007 564.521, 3909.812 563.935 C 3909.617 563.350, 3907.442 562.609, 3904.978 562.289 C 3902.515 561.969, 3899.612 561.098, 3898.527 560.354 C 3895.466 558.253, 3890.274 558.715, 3875.105 562.440 C 3845.206 569.781, 3824.973 569.777, 3786.700 562.421 C 3776.910 560.539, 3767.624 559, 3766.065 559 C 3764.145 559, 3762.702 558.194, 3761.593 556.501 C 3760.692 555.127, 3756.913 552.471, 3753.195 550.598 C 3749.477 548.726, 3742.663 544.397, 3738.054 540.980 C 3715.303 524.111, 3703.175 520.086, 3688.357 524.486 C 3677.882 527.597, 3663.262 539.645, 3658.756 548.881 C 3657.516 551.421, 3656.200 553.730, 3655.830 554.010 C 3655.461 554.291, 3654.849 555.753, 3654.471 557.260 C 3654.093 558.767, 3653.382 560, 3652.892 560 C 3652.401 560, 3652 560.794, 3652 561.765 C 3652 562.735, 3651.100 565.209, 3650 567.261 C 3648.900 569.314, 3648 571.669, 3648 572.496 C 3648 573.323, 3647.586 574, 3647.079 574 C 3646.573 574, 3645.862 575.350, 3645.500 577 C 3645.138 578.650, 3644.463 580, 3644 580 C 3643.537 580, 3642.862 581.350, 3642.500 583 C 3642.138 584.650, 3641.427 586, 3640.921 586 C 3640.414 586, 3640 586.868, 3640 587.929 C 3640 588.989, 3639.401 590.456, 3638.669 591.188 C 3637.936 591.921, 3637.028 593.753, 3636.650 595.260 C 3636.271 596.767, 3635.520 598, 3634.981 598 C 3634.441 598, 3634 599.070, 3634 600.378 C 3634 601.685, 3633.325 603.315, 3632.500 604 C 3631.675 604.685, 3630.985 605.977, 3630.966 606.872 C 3630.947 607.768, 3630.063 610.300, 3629 612.500 C 3627.937 614.700, 3627.053 617.063, 3627.034 617.750 C 3627.015 618.438, 3626.599 619, 3626.108 619 C 3625.618 619, 3624.927 620.155, 3624.573 621.566 C 3623.776 624.740, 3620.647 624.507, 3620.180 621.240 C 3620.005 620.008, 3619.478 619, 3619.010 619 C 3618.542 619, 3617.862 617.650, 3617.500 616 C 3617.138 614.350, 3616.463 613, 3616 613 C 3615.537 613, 3614.862 611.650, 3614.500 610 C 3614.138 608.350, 3613.463 607, 3613 607 C 3612.537 607, 3611.862 605.650, 3611.500 604 C 3611.138 602.350, 3610.463 601, 3610 601 C 3609.537 601, 3608.862 599.650, 3608.500 598 C 3608.138 596.350, 3607.463 595, 3607 595 C 3606.537 595, 3605.862 593.650, 3605.500 592 C 3605.138 590.350, 3604.476 589, 3604.029 589 C 3603.582 589, 3602.913 587.790, 3602.542 586.312 C 3601.451 581.965, 3599.615 581.255, 3592.143 582.292 C 3580.624 583.890, 3553.183 582.457, 3539 579.517 C 3525.752 576.771, 3504.418 569.819, 3489.500 563.387 L 3480.500 559.507 3460 559.003 C 3439.676 558.504, 3439.497 558.481, 3439.180 556.250 C 3439.005 555.013, 3438.442 554, 3437.930 554 C 3437.419 554, 3437 553.132, 3437 552.071 C 3437 551.011, 3436.402 549.544, 3435.670 548.813 C 3434.939 548.081, 3434.049 545.690, 3433.694 543.499 C 3433.338 541.308, 3432.587 539.362, 3432.024 539.175 C 3431.461 538.987, 3431 538.071, 3431 537.139 C 3431 536.207, 3430.389 534.557, 3429.642 533.473 C 3428.895 532.388, 3427.975 529.813, 3427.597 527.750 C 3427.219 525.688, 3426.480 524, 3425.955 524 C 3425.430 524, 3424.997 523.212, 3424.994 522.250 C 3424.991 521.288, 3420.878 516, 3415.854 510.500 C 3402.726 496.128, 3398.243 489.907, 3370.091 447 C 3356.198 425.825, 3344.019 407.663, 3343.027 406.639 C 3341.268 404.825, 3341.175 404.830, 3339.361 406.817 C 3335.818 410.699, 3335.078 411.840, 3334.432 414.414 C 3334.075 415.836, 3333.418 417, 3332.971 417 C 3332.524 417, 3331.862 418.350, 3331.500 420 C 3331.138 421.650, 3330.463 423, 3330 423 C 3329.537 423, 3328.862 424.350, 3328.500 426 C 3328.138 427.650, 3327.427 429, 3326.921 429 C 3326.414 429, 3326 429.868, 3326 430.929 C 3326 431.989, 3325.401 433.456, 3324.669 434.188 C 3323.936 434.921, 3323.028 436.753, 3322.650 438.260 C 3322.271 439.767, 3321.520 441, 3320.981 441 C 3320.441 441, 3320 441.868, 3320 442.929 C 3320 443.989, 3319.401 445.456, 3318.669 446.188 C 3317.936 446.921, 3317.028 448.753, 3316.650 450.260 C 3316.271 451.767, 3315.520 453, 3314.981 453 C 3314.441 453, 3314 453.868, 3314 454.929 C 3314 455.989, 3313.325 457.532, 3312.500 458.357 C 3311.675 459.182, 3311 460.803, 3311 461.960 C 3311 463.117, 3310.325 464.322, 3309.500 464.638 C 3308.675 464.955, 3308 466.305, 3308 467.638 C 3308 468.972, 3307.325 470.322, 3306.500 470.638 C 3305.675 470.955, 3305 472.305, 3305 473.638 C 3305 474.972, 3304.325 476.322, 3303.500 476.638 C 3302.675 476.955, 3302 478.243, 3302 479.500 C 3302 480.757, 3301.325 482.045, 3300.500 482.362 C 3299.675 482.678, 3299 484.028, 3299 485.362 C 3299 486.695, 3298.325 488.045, 3297.500 488.362 C 3296.675 488.678, 3296 490.028, 3296 491.362 C 3296 492.695, 3295.325 494.045, 3294.500 494.362 C 3293.675 494.678, 3293 496.028, 3293 497.362 C 3293 498.695, 3292.325 500.045, 3291.500 500.362 C 3290.675 500.678, 3290 502.028, 3290 503.362 C 3290 504.695, 3289.325 506.045, 3288.500 506.362 C 3287.675 506.678, 3287 508.076, 3287 509.469 C 3287 510.861, 3286.559 512, 3286.019 512 C 3285.480 512, 3284.729 513.233, 3284.350 514.740 C 3283.972 516.247, 3283.064 518.079, 3282.331 518.812 C 3281.599 519.544, 3281 521.011, 3281 522.071 C 3281 523.132, 3280.559 524, 3280.019 524 C 3279.480 524, 3278.729 525.233, 3278.350 526.740 C 3277.972 528.247, 3277.064 530.079, 3276.331 530.812 C 3275.599 531.544, 3275 533.011, 3275 534.071 C 3275 535.132, 3274.559 536, 3274.019 536 C 3273.480 536, 3272.729 537.233, 3272.350 538.740 C 3271.972 540.247, 3271.064 542.079, 3270.331 542.812 C 3269.599 543.544, 3269 545.011, 3269 546.071 C 3269 547.132, 3268.636 548, 3268.191 548 C 3267.746 548, 3266.284 550.470, 3264.941 553.490 L 3262.500 558.980 3247.858 558.990 C 3234.984 558.999, 3231.845 559.351, 3221.858 561.908 C 3201.645 567.082, 3197.496 567.506, 3168 567.416 C 3148.799 567.357, 3132.959 566.678, 3115.513 565.166 C 3101.770 563.975, 3089.348 563, 3087.908 563 C 3085.825 563, 3084.404 564.278, 3080.959 569.250 C 3078.577 572.688, 3073.454 580, 3069.574 585.500 C 3065.694 591, 3061.552 597.862, 3060.371 600.750 L 3058.223 606 3100.150 606 C 3123.210 606, 3149.822 605.532, 3159.289 604.960 C 3214.440 601.628, 3264.683 592.138, 3287.500 580.743 C 3296.410 576.294, 3298.523 574.533, 3304.393 566.665 C 3311.299 557.411, 3314.234 554.764, 3321.250 551.468 C 3324.412 549.982, 3327 548.129, 3327 547.352 C 3327 546.574, 3327.675 545.678, 3328.500 545.362 C 3329.355 545.034, 3330 543.542, 3330 541.893 C 3330 539.988, 3330.512 539, 3331.500 539 C 3332.413 539, 3333 538.069, 3333 536.622 C 3333 535.315, 3333.675 533.685, 3334.500 533 C 3335.325 532.315, 3336 530.965, 3336 530 C 3336 529.035, 3336.675 527.685, 3337.500 527 C 3338.325 526.315, 3339 524.910, 3339 523.878 C 3339 522.845, 3339.441 522, 3339.981 522 C 3340.520 522, 3341.271 520.767, 3341.650 519.260 C 3342.028 517.753, 3342.936 515.921, 3343.669 515.188 C 3344.401 514.456, 3345 512.989, 3345 511.929 C 3345 510.868, 3345.414 510, 3345.921 510 C 3346.427 510, 3347.138 508.650, 3347.500 507 C 3347.862 505.350, 3348.537 504, 3349 504 C 3349.463 504, 3350.138 502.650, 3350.500 501 C 3350.862 499.350, 3351.537 498, 3352 498 C 3352.463 498, 3353.138 496.650, 3353.500 495 C 3353.936 493.017, 3354.771 492, 3355.966 492 C 3357.341 492, 3357.934 493.076, 3358.448 496.500 C 3358.819 498.975, 3359.545 501, 3360.061 501 C 3360.578 501, 3361 502.103, 3361 503.450 C 3361 504.798, 3361.607 506.260, 3362.348 506.700 C 3363.090 507.140, 3363.979 509.296, 3364.325 511.492 C 3364.670 513.688, 3365.413 515.638, 3365.976 515.825 C 3366.539 516.013, 3367 517.268, 3367 518.615 C 3367 519.961, 3367.675 521.322, 3368.500 521.638 C 3369.417 521.990, 3370 523.506, 3370 525.536 C 3370 527.362, 3370.675 529.532, 3371.500 530.357 C 3372.325 531.182, 3373 532.734, 3373 533.806 C 3373 534.878, 3373.675 536.315, 3374.500 537 C 3375.325 537.685, 3376 539.717, 3376 541.515 C 3376 543.500, 3376.590 545.012, 3377.500 545.362 C 3378.325 545.678, 3379 547.044, 3379 548.397 C 3379 549.750, 3379.675 551.532, 3380.500 552.357 C 3381.325 553.182, 3382 555.191, 3382 556.822 C 3382 558.534, 3382.633 560.029, 3383.500 560.362 C 3384.325 560.678, 3385 561.990, 3385 563.277 C 3385 564.565, 3385.661 566.491, 3386.468 567.559 C 3387.276 568.626, 3387.951 570.545, 3387.968 571.821 C 3387.986 573.098, 3388.675 574.818, 3389.500 575.643 C 3390.325 576.468, 3391 578.406, 3391 579.949 C 3391 581.492, 3391.675 583.315, 3392.500 584 C 3393.325 584.685, 3394 585.884, 3394 586.664 C 3394 590.622, 3400.834 593.819, 3420.256 598.943 C 3437.223 603.420, 3447.632 604.951, 3468.360 606.015 C 3483.285 606.781, 3490.276 607.652, 3501.860 610.191 C 3515.037 613.079, 3518.492 613.436, 3536.435 613.760 C 3555.183 614.099, 3556.478 614.245, 3558.185 616.213 C 3559.183 617.364, 3560 619.137, 3560 620.153 C 3560 621.169, 3560.441 622, 3560.981 622 C 3561.520 622, 3562.271 623.233, 3562.650 624.740 C 3563.028 626.247, 3563.936 628.079, 3564.669 628.812 C 3565.401 629.544, 3566 631.011, 3566 632.071 C 3566 633.132, 3566.441 634, 3566.981 634 C 3567.520 634, 3568.271 635.233, 3568.650 636.740 C 3569.028 638.247, 3569.936 640.079, 3570.669 640.812 C 3571.401 641.544, 3572 642.973, 3572 643.988 C 3572 645.003, 3572.368 645.983, 3572.818 646.167 C 3573.268 646.350, 3575.405 650.100, 3577.567 654.500 C 3579.730 658.900, 3581.724 662.725, 3582 663 C 3582.276 663.275, 3583.543 665.525, 3584.815 668 C 3586.087 670.475, 3588.655 675.200, 3590.520 678.500 C 3592.386 681.800, 3594.332 685.408, 3594.844 686.519 C 3595.356 687.629, 3597.840 690.442, 3600.365 692.769 C 3604.016 696.134, 3605.703 697, 3608.610 697 C 3617.590 697, 3625.070 687.973, 3642.985 655.516 C 3647.533 647.274, 3653.523 637.149, 3656.294 633.016 C 3663.109 622.850, 3675.858 610.350, 3685 604.869 C 3689.402 602.230, 3693.039 599.263, 3693.805 597.686 C 3694.522 596.209, 3695.535 595, 3696.055 595 C 3696.575 595, 3697 593.975, 3697 592.723 C 3697 591.470, 3697.608 589.557, 3698.351 588.473 C 3699.094 587.388, 3700.002 585.263, 3700.370 583.750 C 3700.737 582.237, 3701.480 581, 3702.019 581 C 3702.559 581, 3703 579.897, 3703 578.550 C 3703 577.202, 3703.632 575.740, 3704.404 575.300 C 3705.176 574.860, 3705.963 573.380, 3706.154 572.010 C 3706.683 568.201, 3709.878 568.140, 3710.635 571.925 C 3710.973 573.616, 3711.608 575, 3712.046 575 C 3712.483 575, 3713.138 576.350, 3713.500 578 C 3713.862 579.650, 3714.537 581, 3715 581 C 3715.463 581, 3716.138 582.350, 3716.500 584 C 3716.862 585.650, 3717.573 587, 3718.079 587 C 3718.586 587, 3719 587.868, 3719 588.929 C 3719 593.060, 3721.109 593.668, 3737.669 594.306 C 3760.243 595.177, 3784.918 599.364, 3815.500 607.512 C 3837.726 613.434, 3841.846 613.998, 3862.868 613.999 L 3882.237 614 3885.129 617.250 C 3886.720 619.038, 3888.290 621.513, 3888.619 622.750 C 3888.948 623.987, 3889.618 625, 3890.108 625 C 3890.599 625, 3891 625.675, 3891 626.500 C 3891 627.325, 3891.675 628, 3892.500 628 C 3893.325 628, 3894 628.627, 3894 629.393 C 3894 630.159, 3894.675 631.045, 3895.500 631.362 C 3896.325 631.678, 3897 632.751, 3897 633.746 C 3897 636.393, 3908.453 646.837, 3914.387 649.600 C 3924.574 654.343, 3934.888 651.850, 3944.728 642.265 C 3955.291 631.976, 3967.834 609.031, 3977.945 581.500 C 3988.687 552.250, 3996.461 535.220, 4006.069 519.889 C 4008.781 515.562, 4011 511.172, 4011 510.133 C 4011 509.095, 4011.675 507.685, 4012.500 507 C 4013.548 506.130, 4014 503.823, 4014 499.346 C 4014 494.572, 4014.383 492.790, 4015.500 492.362 C 4016.582 491.946, 4017.009 490.215, 4017.032 486.143 C 4017.051 482.775, 4017.655 479.717, 4018.532 478.559 C 4019.426 477.377, 4020 474.378, 4020 470.892 C 4020 467.403, 4020.458 465.014, 4021.172 464.776 C 4021.838 464.554, 4022.542 461.603, 4022.803 457.943 C 4023.054 454.399, 4023.877 450.612, 4024.630 449.527 C 4025.399 448.421, 4026 445.055, 4026 441.861 C 4026 438.616, 4026.472 436.009, 4027.098 435.801 C 4027.701 435.600, 4028.441 432.300, 4028.741 428.467 C 4029.042 424.635, 4029.682 421.243, 4030.165 420.928 C 4030.647 420.613, 4031.326 417.238, 4031.673 413.428 C 4032.020 409.618, 4032.711 406.233, 4033.208 405.906 C 4033.705 405.580, 4034.373 402.655, 4034.692 399.406 C 4035.010 396.158, 4035.631 393.039, 4036.071 392.475 C 4036.511 391.911, 4037.159 388.986, 4037.511 385.975 C 4037.862 382.964, 4038.553 379.600, 4039.045 378.500 C 4039.537 377.400, 4040.293 373.806, 4040.724 370.513 C 4041.316 365.999, 4041.938 364.443, 4043.254 364.190 C 4044.727 363.906, 4045 364.635, 4045 368.855 C 4045 371.968, 4045.567 374.424, 4046.500 375.357 C 4047.595 376.452, 4048 379.122, 4048 385.237 C 4048 391.058, 4048.448 394.211, 4049.468 395.559 C 4050.486 396.905, 4050.946 400.123, 4050.968 406.059 C 4050.990 411.995, 4051.450 415.213, 4052.468 416.559 C 4053.486 417.905, 4053.946 421.123, 4053.968 427.059 C 4053.990 432.995, 4054.450 436.213, 4055.468 437.559 C 4056.472 438.886, 4056.946 442.071, 4056.968 447.628 C 4056.987 452.521, 4057.597 457.185, 4058.500 459.346 C 4059.325 461.320, 4060 465.905, 4060 469.534 C 4060 473.162, 4060.478 477.025, 4061.062 478.117 C 4061.647 479.209, 4062.385 483.207, 4062.703 487.002 C 4063.251 493.531, 4063.430 493.936, 4066.037 494.508 C 4072.746 495.982, 4079.470 489.911, 4082.661 479.500 C 4084.239 474.350, 4084.490 470.098, 4084.426 449.500 C 4084.334 419.500, 4081.409 395.205, 4071.424 341.500 C 4068.085 323.546, 4041.317 191.636, 4040.579 189.500 C 4040.388 188.950, 4039.961 189.175, 4039.629 190 M 1346.563 206.263 C 1344.465 209.466, 1343.234 216.716, 1342.540 229.959 C 1341.318 253.260, 1334.764 297.720, 1324.622 351.500 C 1317.983 386.701, 1316.249 398.171, 1315.400 412.500 C 1313.789 439.696, 1321.452 455.475, 1338.250 459.550 C 1340.656 460.133, 1341.004 459.922, 1341.032 457.858 C 1341.049 456.561, 1341.724 454.626, 1342.532 453.559 C 1343.395 452.418, 1344 449.429, 1344 446.309 C 1344 443.389, 1344.414 441, 1344.920 441 C 1345.427 441, 1346.156 437.962, 1346.542 434.250 C 1346.927 430.538, 1347.638 427.004, 1348.121 426.398 C 1348.604 425.791, 1349.294 422.416, 1349.653 418.898 C 1350.012 415.379, 1350.675 412.256, 1351.126 411.957 C 1351.578 411.659, 1352.249 408.171, 1352.617 404.207 C 1352.986 400.243, 1353.637 397, 1354.064 397 C 1354.491 397, 1355.156 393.962, 1355.542 390.250 C 1355.927 386.538, 1356.650 382.989, 1357.148 382.365 C 1357.646 381.741, 1358.332 378.253, 1358.671 374.615 C 1359.190 369.060, 1359.587 368, 1361.145 368 C 1362.529 368, 1363 368.743, 1363 370.929 C 1363 372.539, 1363.675 374.532, 1364.500 375.357 C 1365.608 376.465, 1366 379.177, 1366 385.737 C 1366 391.997, 1366.433 395.191, 1367.468 396.559 C 1368.466 397.878, 1368.949 401.064, 1368.974 406.500 C 1368.998 411.584, 1369.557 415.544, 1370.506 417.364 C 1371.457 419.188, 1372 423.051, 1372 428 C 1372 432.949, 1372.543 436.812, 1373.494 438.636 C 1374.442 440.454, 1374.990 444.331, 1374.994 449.250 C 1375.001 458.434, 1375.820 458.879, 1383.436 453.835 C 1406.237 438.732, 1415.007 392.479, 1405.596 336.961 C 1395.414 276.889, 1365.180 204, 1350.446 204 C 1349.057 204, 1347.422 204.953, 1346.563 206.263 M 2369 282.047 C 2349.264 284.430, 2331.691 292.364, 2317.297 305.392 C 2302.576 318.715, 2291.114 342.028, 2290.816 359.250 C 2290.762 362.413, 2290.400 365, 2290.013 365 C 2289.036 365, 2291.660 383.303, 2293.596 390 C 2298.710 407.683, 2311.677 424.974, 2328.026 435.910 C 2336.917 441.857, 2350.475 447.825, 2357.172 448.741 C 2359.994 449.126, 2360.725 449.619, 2360.328 450.871 C 2359.963 452.023, 2360.074 452.137, 2360.707 451.262 C 2361.403 450.301, 2363.527 450.259, 2370.212 451.077 C 2380.209 452.300, 2393.519 451.139, 2404.466 448.089 C 2408.297 447.022, 2411.737 446.338, 2412.111 446.569 C 2412.485 446.800, 2413.066 446.269, 2413.404 445.391 C 2413.753 444.479, 2414.658 444.039, 2415.508 444.365 C 2416.329 444.680, 2417 444.591, 2417 444.168 C 2417 443.745, 2419.137 442.364, 2421.750 441.099 C 2433.420 435.449, 2447.158 423.011, 2454.815 411.165 C 2472.347 384.039, 2472.335 348.959, 2454.783 321.780 C 2450.224 314.721, 2436.377 300, 2434.295 300 C 2433.548 300, 2432.684 299.339, 2432.374 298.531 C 2431.606 296.531, 2410.920 286.572, 2403.500 284.629 C 2397.566 283.075, 2381.367 280.901, 2377.500 281.140 C 2376.400 281.207, 2372.575 281.616, 2369 282.047 M 666.305 427.750 C 626.506 488.293, 617.784 501.186, 610.166 510.740 C 605.675 516.373, 602 521.387, 602 521.883 C 602 522.380, 601.325 523.045, 600.500 523.362 C 599.675 523.678, 599 524.626, 599 525.469 C 599 526.311, 598.586 527, 598.079 527 C 597.573 527, 596.862 528.350, 596.500 530 C 596.138 531.650, 595.427 533, 594.921 533 C 594.414 533, 594 533.868, 594 534.929 C 594 535.989, 593.401 537.456, 592.669 538.188 C 591.936 538.921, 591.028 540.753, 590.650 542.260 C 590.271 543.767, 589.520 545, 588.981 545 C 588.441 545, 588 545.868, 588 546.929 C 588 547.989, 587.325 549.532, 586.500 550.357 C 585.675 551.182, 585 552.532, 585 553.357 C 585 554.182, 584.374 555.484, 583.608 556.249 C 582.842 557.015, 582.049 558.510, 581.846 559.571 C 581.493 561.409, 580.063 561.528, 551.488 562.102 C 527.500 562.583, 519.099 563.124, 509.500 564.807 C 459.410 573.588, 428.915 575.621, 191.608 586.004 C 116.868 589.275, 55.480 592.186, 55.192 592.475 C 54.903 592.764, 56.286 593, 58.264 593 C 60.243 593, 125.005 594.609, 202.181 596.575 C 418.655 602.090, 492.428 600.916, 559 590.895 C 601.048 584.566, 623.720 576.388, 636.137 563.070 C 644.233 554.386, 644.538 553.977, 645.356 550.716 C 645.731 549.222, 646.480 548, 647.019 548 C 647.559 548, 648 547.132, 648 546.071 C 648 545.011, 648.675 543.468, 649.500 542.643 C 650.325 541.818, 651 540.491, 651 539.694 C 651 538.897, 651.675 537.685, 652.500 537 C 653.325 536.315, 654 534.733, 654 533.485 C 654 532.236, 654.675 530.955, 655.500 530.638 C 656.325 530.322, 657 528.972, 657 527.638 C 657 526.305, 657.675 524.955, 658.500 524.638 C 659.325 524.322, 660 522.972, 660 521.638 C 660 520.305, 660.675 518.955, 661.500 518.638 C 662.325 518.322, 663 516.972, 663 515.638 C 663 514.305, 663.675 512.955, 664.500 512.638 C 665.325 512.322, 666 510.972, 666 509.638 C 666 508.305, 666.675 506.955, 667.500 506.638 C 668.325 506.322, 669 504.972, 669 503.638 C 669 502.305, 669.675 500.955, 670.500 500.638 C 671.325 500.322, 672 498.924, 672 497.531 C 672 493.703, 675.640 494.082, 676.500 498 C 676.862 499.650, 677.573 501, 678.079 501 C 678.586 501, 679.015 502.012, 679.034 503.250 C 679.053 504.488, 679.937 507.300, 681 509.500 C 682.063 511.700, 682.947 514.063, 682.966 514.750 C 682.985 515.438, 683.450 516, 684 516 C 684.550 516, 685.003 517.013, 685.006 518.250 C 685.010 519.487, 685.685 521.789, 686.506 523.364 C 687.328 524.940, 688 527.091, 688 528.146 C 688 529.200, 688.675 530.322, 689.500 530.638 C 690.343 530.962, 691 532.450, 691 534.036 C 691 535.587, 691.675 537.532, 692.500 538.357 C 693.325 539.182, 694 540.966, 694 542.322 C 694 543.677, 694.675 545.045, 695.500 545.362 C 696.325 545.678, 697 547.026, 697 548.356 C 697 551.423, 718.025 571.257, 729.448 578.965 C 752.656 594.625, 780.118 604.136, 807.634 606.043 C 821.109 606.977, 827.038 608.138, 844 613.167 C 849.101 614.680, 854.859 615.493, 862 615.709 C 875.378 616.114, 876.639 616.424, 877.408 619.491 C 877.755 620.871, 878.480 622, 879.019 622 C 879.559 622, 880 622.868, 880 623.929 C 880 624.989, 880.599 626.456, 881.331 627.188 C 882.064 627.921, 882.949 629.659, 883.298 631.051 C 883.655 632.472, 888.382 637.731, 894.076 643.041 C 899.655 648.243, 908.827 657.900, 914.459 664.500 C 931.743 684.755, 941.763 693, 949.092 693 C 957.996 693, 965.516 681.991, 976.416 653 C 986.287 626.746, 993.164 615.840, 1007 604.496 C 1011.201 601.051, 1014.636 597.422, 1014.810 596.246 C 1014.981 595.090, 1015.768 593.607, 1016.560 592.950 C 1017.352 592.293, 1018 590.733, 1018 589.485 C 1018 588.236, 1018.675 586.955, 1019.500 586.638 C 1020.325 586.322, 1021 585.117, 1021 583.960 C 1021 582.803, 1021.675 581.182, 1022.500 580.357 C 1023.325 579.532, 1024 577.957, 1024 576.857 C 1024 574.842, 1026.156 571.997, 1027.679 572.004 C 1028.130 572.006, 1029.240 573.918, 1030.145 576.254 C 1032.727 582.916, 1032.935 583.408, 1033.843 585 C 1034.314 585.825, 1035.412 587.850, 1036.283 589.500 C 1037.817 592.406, 1038.111 592.507, 1045.683 592.728 C 1075.398 593.597, 1105.806 598.653, 1146 609.407 C 1170.298 615.908, 1170.852 616, 1185.646 616 L 1199.264 616 1202.632 619.571 C 1204.484 621.535, 1206 623.574, 1206 624.103 C 1206 624.631, 1206.675 625.322, 1207.500 625.638 C 1208.325 625.955, 1209.008 626.953, 1209.017 627.857 C 1209.027 628.761, 1210.039 630.441, 1211.267 631.590 C 1215.639 635.683, 1239.424 651.319, 1245.907 654.362 C 1251.885 657.168, 1253.433 657.459, 1262.500 657.478 C 1270.988 657.497, 1273.218 657.147, 1277.246 655.163 C 1292.248 647.775, 1303.467 625.230, 1307.434 594.500 C 1310.689 569.283, 1310.232 536.747, 1306.444 524.085 C 1304.606 517.941, 1300.296 513, 1296.773 513 C 1290.926 513, 1276.653 522.981, 1273.520 529.260 C 1272.640 531.023, 1271.645 535.174, 1271.308 538.483 C 1270.971 541.792, 1270.316 544.750, 1269.852 545.056 C 1269.389 545.362, 1268.721 548.512, 1268.368 552.056 C 1268.014 555.600, 1267.337 558.996, 1266.863 559.602 C 1266.388 560.209, 1265.706 563.584, 1265.347 567.102 C 1264.988 570.621, 1264.316 573.750, 1263.852 574.056 C 1263.389 574.362, 1262.721 577.512, 1262.368 581.056 C 1262.014 584.600, 1261.337 587.996, 1260.863 588.602 C 1260.388 589.209, 1259.711 592.471, 1259.358 595.852 C 1258.835 600.854, 1258.381 602, 1256.925 602 C 1255.940 602, 1254.849 601.100, 1254.500 600 C 1254.151 598.900, 1253.446 598, 1252.933 598 C 1252.420 598, 1252 597.325, 1252 596.500 C 1252 595.675, 1251.325 595, 1250.500 595 C 1249.675 595, 1249 594.373, 1249 593.607 C 1249 592.841, 1248.325 591.955, 1247.500 591.638 C 1246.675 591.322, 1246 590.135, 1246 589 C 1246 587.865, 1245.325 586.678, 1244.500 586.362 C 1243.675 586.045, 1243 585.159, 1243 584.393 C 1243 583.627, 1242.575 583, 1242.055 583 C 1241.121 583, 1238.656 579.152, 1237.408 575.750 C 1237.055 574.788, 1236.144 574, 1235.383 574 C 1234.623 574, 1234 573.325, 1234 572.500 C 1234 571.675, 1233.325 571, 1232.500 571 C 1231.675 571, 1231 570.325, 1231 569.500 C 1231 568.675, 1230.373 568, 1229.607 568 C 1228.841 568, 1227.955 567.325, 1227.638 566.500 C 1227.258 565.510, 1225.692 565, 1223.031 565 C 1220.814 565, 1219 564.550, 1219 564 C 1219 562.392, 1213.111 562.832, 1200.388 565.391 C 1179.247 569.643, 1171.166 570.460, 1150.500 570.434 C 1129.048 570.407, 1122.060 569.633, 1101.258 564.982 C 1093.923 563.342, 1086.413 562, 1084.569 562 C 1081.943 562, 1081.082 561.512, 1080.596 559.750 C 1080.246 558.486, 1076.410 554.907, 1071.841 551.582 C 1066.329 547.571, 1062.223 543.570, 1059.104 539.170 C 1051.780 528.839, 1048.195 525.242, 1042.390 522.402 C 1037.529 520.024, 1036.120 519.794, 1028.963 520.208 C 1021.942 520.615, 1019.842 521.234, 1011.734 525.293 C 1001.868 530.231, 978 548.124, 978 550.581 C 978 551.362, 977.570 552, 977.045 552 C 976.520 552, 975.795 553.575, 975.434 555.500 C 975.073 557.425, 974.413 559, 973.968 559 C 973.523 559, 972.862 560.350, 972.500 562 C 972.138 563.650, 971.463 565, 971 565 C 970.537 565, 969.862 566.350, 969.500 568 C 969.138 569.650, 968.427 571, 967.921 571 C 967.414 571, 967 571.868, 967 572.929 C 967 573.989, 966.401 575.456, 965.669 576.188 C 964.936 576.921, 964.028 578.753, 963.650 580.260 C 963.271 581.767, 962.520 583, 961.981 583 C 961.441 583, 961 584.070, 961 585.378 C 961 586.685, 960.325 588.315, 959.500 589 C 958.675 589.685, 958 590.984, 958 591.887 C 958 592.791, 957.100 595.209, 956 597.261 C 954.900 599.314, 954 601.669, 954 602.496 C 954 603.323, 953.586 604, 953.079 604 C 952.573 604, 951.862 605.350, 951.500 607 C 951.138 608.650, 950.463 610, 950 610 C 949.537 610, 948.862 611.350, 948.500 613 C 948.138 614.650, 947.427 616, 946.921 616 C 946.414 616, 946 616.868, 946 617.929 C 946 618.989, 945.325 620.532, 944.500 621.357 C 943.675 622.182, 943 623.371, 943 623.998 C 943 624.626, 941.987 624.995, 940.750 624.820 C 939.223 624.603, 938.389 623.696, 938.154 622 C 937.963 620.625, 937.176 619.140, 936.404 618.700 C 935.632 618.260, 935 616.846, 935 615.557 C 935 614.268, 934.325 612.955, 933.500 612.638 C 932.675 612.322, 932 610.972, 932 609.638 C 932 608.305, 931.325 606.955, 930.500 606.638 C 929.675 606.322, 929 605.204, 929 604.154 C 929 603.104, 928.325 601.685, 927.500 601 C 926.675 600.315, 926 598.965, 926 598 C 926 597.035, 925.325 595.685, 924.500 595 C 923.675 594.315, 923 592.948, 923 591.961 C 923 590.974, 922.639 590.017, 922.199 589.833 C 921.758 589.650, 919.699 586.135, 917.623 582.022 C 915.547 577.909, 912.516 573.353, 910.886 571.899 C 907.946 569.274, 907.775 569.250, 888.212 568.720 C 872.708 568.300, 864.551 567.527, 850 565.098 C 831.684 562.041, 831.135 562.010, 794.829 562.005 L 758.159 562 757.500 559 C 757.138 557.350, 756.484 556, 756.048 556 C 755.612 556, 754.968 554.200, 754.616 552 C 754.264 549.800, 753.532 548, 752.988 548 C 752.445 548, 752 546.930, 752 545.622 C 752 544.315, 751.325 542.685, 750.500 542 C 749.675 541.315, 749 539.492, 749 537.949 C 749 536.406, 748.325 534.468, 747.500 533.643 C 746.675 532.818, 746 531.072, 746 529.763 C 746 528.453, 745.339 526.509, 744.532 525.441 C 743.724 524.374, 743.049 522.473, 743.032 521.219 C 743.014 519.964, 742.325 518.678, 741.500 518.362 C 740.675 518.045, 740 516.666, 740 515.297 C 740 513.108, 738.810 510.150, 735.856 505 C 735.382 504.175, 734.594 502.600, 734.104 501.500 C 733.613 500.400, 730.802 495.631, 727.856 490.902 C 724.910 486.174, 713.730 464.686, 703.010 443.152 C 692.291 421.619, 683.160 404, 682.719 404 C 682.278 404, 674.892 414.688, 666.305 427.750 M 1566.500 479.342 C 1555.472 483.004, 1543.324 491.891, 1531.750 504.762 C 1530.237 506.444, 1529 508.211, 1529 508.687 C 1529 509.164, 1527.650 511.032, 1526 512.839 C 1524.350 514.645, 1523 516.498, 1523 516.955 C 1523 517.412, 1522.325 518.045, 1521.500 518.362 C 1520.675 518.678, 1520 519.865, 1520 521 C 1520 522.135, 1519.325 523.322, 1518.500 523.638 C 1517.675 523.955, 1517 524.841, 1517 525.607 C 1517 526.373, 1516.325 527, 1515.500 527 C 1514.675 527, 1514 527.675, 1514 528.500 C 1514 529.325, 1513.550 530, 1513 530 C 1512.450 530, 1512 530.675, 1512 531.500 C 1512 532.325, 1511.100 533.900, 1510 535 C 1508.900 536.100, 1508 537.450, 1508 538 C 1508 538.550, 1507.539 539, 1506.975 539 C 1506.412 539, 1505.513 540.013, 1504.978 541.250 C 1503.512 544.641, 1501.746 547.244, 1499.250 549.695 C 1498.013 550.910, 1497 552.360, 1497 552.918 C 1497 553.475, 1495.719 555.241, 1494.154 556.842 C 1492.589 558.443, 1491.028 560.484, 1490.686 561.377 C 1490.343 562.269, 1489.599 563, 1489.031 563 C 1488.464 563, 1488 563.659, 1488 564.466 C 1488 565.272, 1486.650 567.312, 1485 569 C 1483.350 570.688, 1482 572.297, 1482 572.575 C 1482 573.363, 1477.590 579.460, 1476.750 579.833 C 1476.338 580.017, 1476 580.804, 1476 581.583 C 1476 582.362, 1475.325 583, 1474.500 583 C 1473.675 583, 1473 583.884, 1473 584.966 C 1473 586.047, 1471.650 588.312, 1470 590 C 1468.350 591.688, 1467 593.455, 1467 593.927 C 1467 594.400, 1466.325 595.045, 1465.500 595.362 C 1464.675 595.678, 1464 596.611, 1464 597.434 C 1464 598.257, 1462.650 600.312, 1461 602 C 1459.350 603.688, 1458 605.503, 1458 606.034 C 1458 606.566, 1457.594 607, 1457.098 607 C 1456.602 607, 1455.725 608.350, 1455.150 610 C 1454.575 611.650, 1453.448 613, 1452.645 613 C 1451.515 613, 1451.026 610.802, 1450.475 603.250 C 1450.084 597.888, 1449.413 593.050, 1448.984 592.500 C 1448.555 591.950, 1447.880 587.112, 1447.483 581.750 C 1447.087 576.388, 1446.366 572, 1445.881 572 C 1445.396 572, 1445 570.263, 1445 568.140 C 1445 566.016, 1444.717 562.214, 1444.371 559.690 C 1443.782 555.394, 1443.478 555.010, 1439.621 553.693 C 1437.354 552.919, 1433.750 551.097, 1431.610 549.643 C 1429.471 548.189, 1427.289 547, 1426.760 547 C 1426.232 547, 1424.316 548.484, 1422.503 550.297 C 1416.640 556.160, 1412.724 573.080, 1411.067 599.701 C 1410.153 614.392, 1410.555 683.103, 1411.605 691.746 C 1412.015 695.118, 1413.123 697.020, 1416.996 700.996 C 1420.075 704.157, 1422.723 706, 1424.185 706 C 1426.005 705.999, 1433.454 697.724, 1459 667.324 C 1499.738 618.846, 1512.949 604.720, 1531.500 589.797 C 1538.669 584.031, 1545 577.515, 1545 575.904 C 1545 575.407, 1545.675 575, 1546.500 575 C 1547.325 575, 1548 574.325, 1548 573.500 C 1548 572.675, 1548.406 572, 1548.902 572 C 1549.398 572, 1550.275 570.650, 1550.850 569 C 1551.425 567.350, 1552.369 566, 1552.948 566 C 1553.527 566, 1554 565.373, 1554 564.607 C 1554 563.841, 1554.675 562.955, 1555.500 562.638 C 1556.325 562.322, 1557 561.374, 1557 560.531 C 1557 559.689, 1557.441 559, 1557.981 559 C 1558.520 559, 1559.244 557.875, 1559.589 556.500 C 1559.934 555.125, 1560.843 554, 1561.608 554 C 1562.374 554, 1563 553.325, 1563 552.500 C 1563 551.675, 1563.401 551, 1563.892 551 C 1564.382 551, 1565.054 549.987, 1565.384 548.750 C 1566.145 545.904, 1572.163 539, 1573.883 539 C 1575.760 539, 1578.928 543.140, 1578.967 545.643 C 1578.985 546.822, 1579.675 548.045, 1580.500 548.362 C 1581.325 548.678, 1582 550.028, 1582 551.362 C 1582 552.695, 1582.675 554.045, 1583.500 554.362 C 1584.325 554.678, 1585 556.028, 1585 557.362 C 1585 558.695, 1585.675 560.045, 1586.500 560.362 C 1587.325 560.678, 1588 561.834, 1588 562.930 C 1588 564.984, 1588.214 565.067, 1600.500 567.815 C 1603.250 568.430, 1623.168 577.836, 1644.761 588.717 C 1666.355 599.597, 1684.468 608.650, 1685.011 608.833 C 1685.555 609.017, 1686 607.594, 1686 605.671 C 1686 596.930, 1691.217 578.384, 1695.917 570.417 C 1697.018 568.550, 1697.295 567.325, 1696.618 567.312 C 1696.003 567.300, 1690.821 566.100, 1685.102 564.645 C 1676.299 562.406, 1672.541 561.998, 1660.602 561.990 L 1646.500 561.980 1644.059 556.490 C 1642.716 553.470, 1641.254 551, 1640.809 551 C 1640.364 551, 1640 550.132, 1640 549.071 C 1640 548.011, 1639.325 546.468, 1638.500 545.643 C 1637.675 544.818, 1637 543.233, 1637 542.121 C 1637 541.009, 1636.404 539.740, 1635.675 539.300 C 1634.946 538.860, 1634.041 537.825, 1633.664 537 C 1632.425 534.291, 1629.649 530.397, 1617.694 514.605 C 1604.287 496.893, 1593.681 485.567, 1586.750 481.558 C 1581.092 478.285, 1572.511 477.346, 1566.500 479.342 M 4225.894 488.769 C 4222.365 490.376, 4217 495.468, 4217 497.211 C 4217 498.230, 4216.325 499.322, 4215.500 499.638 C 4214.675 499.955, 4214 500.841, 4214 501.607 C 4214 502.373, 4213.377 503, 4212.617 503 C 4211.856 503, 4210.945 503.788, 4210.592 504.750 C 4209.344 508.152, 4206.879 512, 4205.945 512 C 4205.425 512, 4205 512.627, 4205 513.393 C 4205 514.159, 4204.325 515.045, 4203.500 515.362 C 4202.675 515.678, 4202 516.626, 4202 517.469 C 4202 518.311, 4201.559 519, 4201.019 519 C 4200.480 519, 4199.756 520.125, 4199.411 521.500 C 4199.066 522.875, 4198.157 524, 4197.392 524 C 4196.626 524, 4196 524.675, 4196 525.500 C 4196 526.325, 4195.594 527, 4195.098 527 C 4194.602 527, 4193.725 528.350, 4193.150 530 C 4192.575 531.650, 4191.631 533, 4191.052 533 C 4190.473 533, 4190 533.511, 4190 534.135 C 4190 534.760, 4188.928 536.265, 4187.617 537.479 C 4186.306 538.694, 4184.952 540.546, 4184.608 541.594 C 4184.263 542.642, 4182.190 545.525, 4180 548 C 4177.810 550.475, 4175.759 553.288, 4175.442 554.250 C 4175.125 555.212, 4174.446 556, 4173.933 556 C 4173.420 556, 4173 556.627, 4173 557.393 C 4173 558.159, 4172.325 559.045, 4171.500 559.362 C 4170.675 559.678, 4170 560.611, 4170 561.434 C 4170 562.257, 4168.650 564.312, 4167 566 C 4165.350 567.688, 4164 569.455, 4164 569.927 C 4164 570.400, 4163.325 571.045, 4162.500 571.362 C 4161.675 571.678, 4161 572.611, 4161 573.434 C 4161 574.257, 4159.762 576.232, 4158.250 577.823 C 4155.083 581.153, 4153.398 583.568, 4152.022 586.750 C 4151.487 587.987, 4150.588 589, 4150.025 589 C 4149.461 589, 4149 589.675, 4149 590.500 C 4149 591.325, 4148.325 592, 4147.500 592 C 4146.675 592, 4146 592.884, 4146 593.966 C 4146 595.047, 4144.650 597.312, 4143 599 C 4141.350 600.688, 4140 602.455, 4140 602.927 C 4140 603.400, 4139.360 604.032, 4138.578 604.332 C 4137.795 604.632, 4137.008 605.913, 4136.828 607.179 C 4136.647 608.444, 4135.753 609.622, 4134.841 609.796 C 4133.452 610.060, 4133.074 608.837, 4132.527 602.306 C 4132.167 598.013, 4131.476 593.600, 4130.992 592.500 C 4130.507 591.400, 4129.813 586.337, 4129.449 581.250 C 4129.085 576.163, 4128.385 572, 4127.894 572 C 4127.402 572, 4126.968 569.413, 4126.930 566.250 C 4126.891 563.087, 4126.537 559.683, 4126.143 558.684 C 4125.247 556.409, 4114.919 551.882, 4109.207 551.260 C 4102.658 550.546, 4098.067 554.054, 4093.557 563.217 C 4087.619 575.280, 4086.515 582.295, 4086.582 607.500 C 4086.631 625.865, 4086.985 631.095, 4088.721 639.153 C 4096.270 674.188, 4114.600 679.461, 4141.118 654.225 C 4153.327 642.606, 4163.695 629.481, 4178.719 606.624 C 4205.644 565.660, 4218.167 554.003, 4235.250 554.001 C 4240.353 554, 4242 553.660, 4242 552.607 C 4242 551.841, 4242.675 550.955, 4243.500 550.638 C 4244.325 550.322, 4245 549.580, 4245 548.989 C 4245 547.918, 4245.945 546.571, 4249.250 542.928 C 4250.212 541.868, 4251 540.756, 4251 540.458 C 4251 540.160, 4251.875 538.977, 4252.944 537.830 C 4255.305 535.296, 4257.709 535.990, 4258.579 539.457 C 4258.930 540.856, 4259.582 542, 4260.029 542 C 4260.476 542, 4261.138 543.350, 4261.500 545 C 4261.862 546.650, 4262.537 548, 4263 548 C 4263.463 548, 4264.138 549.350, 4264.500 551 C 4264.862 552.650, 4265.524 554, 4265.971 554 C 4266.418 554, 4267.093 555.233, 4267.471 556.740 C 4267.849 558.247, 4268.461 559.709, 4268.830 559.990 C 4269.200 560.270, 4270.540 562.627, 4271.810 565.227 C 4273.079 567.827, 4274.541 570.216, 4275.059 570.536 C 4275.576 570.856, 4276 571.943, 4276 572.952 C 4276 573.961, 4276.640 575.032, 4277.422 575.332 C 4278.205 575.632, 4278.992 576.899, 4279.172 578.147 C 4279.624 581.273, 4285.689 585.257, 4297 589.856 C 4323.614 600.679, 4350.678 605.067, 4378.572 603.081 C 4397.783 601.713, 4405.540 600.305, 4408.621 597.628 C 4410.934 595.618, 4410.981 595.374, 4409.463 593.228 C 4407.536 590.504, 4399.869 586.521, 4386.994 581.557 C 4381.772 579.543, 4369.625 573.796, 4360 568.785 C 4343.610 560.252, 4342.042 559.645, 4335.276 559.208 C 4329.005 558.802, 4327.965 558.461, 4327.391 556.620 C 4327.028 555.454, 4326.454 554.275, 4326.115 554 C 4325.777 553.725, 4324.664 551.853, 4323.642 549.841 C 4322.345 547.288, 4317.967 543.358, 4309.163 536.841 C 4302.222 531.703, 4289.858 521.979, 4281.688 515.231 C 4256.469 494.401, 4246.524 488.723, 4234.500 488.291 C 4230.650 488.152, 4226.778 488.367, 4225.894 488.769 M 2883.478 1172 C 2883.478 1218.475, 2883.600 1237.487, 2883.750 1214.250 C 2883.899 1191.013, 2883.899 1152.988, 2883.750 1129.750 C 2883.600 1106.513, 2883.478 1125.525, 2883.478 1172 M 3059.464 1305.500 C 3059.464 1333, 3059.592 1344.106, 3059.749 1330.180 C 3059.906 1316.255, 3059.906 1293.755, 3059.749 1280.180 C 3059.592 1266.606, 3059.464 1278, 3059.464 1305.500 M 2883.489 1527.500 C 2883.489 1622.650, 2883.606 1661.427, 2883.750 1613.671 C 2883.894 1565.915, 2883.894 1488.065, 2883.750 1440.671 C 2883.606 1393.277, 2883.489 1432.350, 2883.489 1527.500 M 1553.490 1669 C 1553.490 1775.975, 1553.607 1819.737, 1553.750 1766.250 C 1553.893 1712.762, 1553.893 1625.237, 1553.750 1571.750 C 1553.607 1518.262, 1553.490 1562.025, 1553.490 1669 M 1000.240 1570.250 L 1000.481 1619.500 1000.750 1570.750 L 1001.019 1522 1164.500 1522 L 1327.981 1522 1328.250 1570.750 L 1328.519 1619.500 1328.760 1570.250 L 1329 1521 1164.500 1521 L 1000 1521 1000.240 1570.250 M 3132.240 1570.250 L 3132.481 1619.500 3132.750 1570.750 L 3133.019 1522 3296.500 1522 L 3459.981 1522 3460.250 1570.750 L 3460.519 1619.500 3460.760 1570.250 L 3461 1521 3296.500 1521 L 3132 1521 3132.240 1570.250 M 2686.227 1573.750 L 2686 1594 2415.500 1594 L 2145 1594 2145.116 1596.250 C 2145.203 1597.943, 2145.345 1598.067, 2145.689 1596.750 C 2146.123 1595.089, 2159.843 1595, 2416.105 1595 C 2634.465 1595, 2686.157 1594.755, 2686.554 1593.721 C 2686.824 1593.017, 2686.912 1583.679, 2686.749 1572.971 L 2686.454 1553.500 2686.227 1573.750 M 392.459 1650.250 C 392.196 1650.938, 392.101 1676.925, 392.249 1708 L 392.517 1764.500 392.758 1707.258 L 393 1650.016 451.250 1649.750 L 509.500 1649.484 451.219 1649.242 C 405.336 1649.051, 392.835 1649.266, 392.459 1650.250 M 3952.459 1650.250 C 3952.196 1650.938, 3952.101 1676.925, 3952.249 1708 L 3952.517 1764.500 3952.758 1707.258 L 3953 1650.016 4011.250 1649.750 L 4069.500 1649.484 4011.219 1649.242 C 3965.336 1649.051, 3952.835 1649.266, 3952.459 1650.250 M 3010.741 1764.745 L 3058.981 1765.019 3059.255 1813.760 L 3059.528 1862.500 3059.514 1813.500 L 3059.500 1764.500 3011 1764.485 L 2962.500 1764.471 3010.741 1764.745 M 683 1995.991 L 683 2047.983 629.250 2048.250 L 575.500 2048.518 629.750 2048.759 L 684 2049 684 1996.500 C 684 1967.625, 683.775 1944, 683.500 1944 C 683.225 1944, 683 1967.396, 683 1995.991 M 4243 1995.991 L 4243 2047.983 4189.250 2048.250 L 4135.500 2048.518 4189.750 2048.759 L 4244 2049 4244 1996.500 C 4244 1967.625, 4243.775 1944, 4243.500 1944 C 4243.225 1944, 4243 1967.396, 4243 1995.991" stroke="none" fill="#e61216" fill-rule="evenodd"/><path d="M 2492 2.553 C 2463.086 8.753, 2438.992 28.231, 2428.233 54.102 C 2416.719 81.790, 2421.501 113.777, 2440.697 137.465 C 2450.530 149.598, 2467.237 160.901, 2482.250 165.575 C 2485.412 166.560, 2488 167.781, 2488 168.289 C 2488 168.797, 2475.365 198.175, 2459.921 233.574 C 2444.478 268.973, 2432.129 298.400, 2432.480 298.968 C 2432.831 299.536, 2433.654 299.996, 2434.309 299.991 C 2434.964 299.985, 2448.397 270.398, 2464.159 234.241 C 2483.682 189.456, 2493.245 168.606, 2494.157 168.833 C 2494.893 169.016, 2500.222 169.406, 2505.998 169.699 C 2549.758 171.925, 2588.541 142.885, 2597.143 101.451 C 2601.537 80.287, 2597.075 57.827, 2584.898 39.825 C 2571.815 20.482, 2551.201 6.957, 2528.140 2.585 C 2518.013 0.665, 2500.874 0.650, 2492 2.553 M 2007.500 212.041 C 1988.429 215.008, 1968.289 225.416, 1955.859 238.728 C 1941.850 253.730, 1934.303 271.377, 1933.283 291.520 C 1932.016 316.546, 1941.112 338.550, 1960.113 356.424 C 1967.324 363.208, 1968.062 364.229, 1966.855 365.756 C 1966.110 366.699, 1933.100 405.251, 1893.500 451.428 C 1853.900 497.604, 1821.239 535.763, 1820.920 536.226 C 1820.601 536.689, 1817.676 535.750, 1814.420 534.141 C 1789.881 522.013, 1759.394 522.156, 1734.279 534.519 C 1700.182 551.303, 1681.322 586.243, 1687.058 622 C 1692.372 655.132, 1717.041 681.638, 1751.500 691.244 C 1762.393 694.280, 1781.054 694.703, 1793.202 692.188 C 1828.121 684.959, 1854.721 658.821, 1861.559 625.020 C 1863.710 614.387, 1863.054 597.805, 1860.075 587.500 C 1857.292 577.873, 1850.973 565.752, 1844.728 558.064 C 1839.845 552.053, 1829.561 542.532, 1825.488 540.253 C 1823.933 539.383, 1833.461 527.869, 1897.881 452.773 L 1972.066 366.295 1979.294 370.083 C 1991.187 376.314, 2002.412 379.145, 2017.581 379.738 C 2027.581 380.129, 2032.643 379.848, 2039.066 378.547 C 2056.209 375.073, 2071.909 366.951, 2084.271 355.160 C 2091.274 348.481, 2100.901 334.497, 2103.531 327.183 C 2104.556 324.332, 2105.778 322, 2106.246 322 C 2106.713 322, 2147.912 331.675, 2197.798 343.501 C 2247.684 355.326, 2289.063 365.001, 2289.750 365.001 C 2290.438 365, 2291 364.187, 2291 363.194 C 2291 361.625, 2279.026 358.553, 2199.316 339.677 C 2148.890 327.736, 2107.460 317.794, 2107.250 317.584 C 2107.040 317.374, 2107.439 315.244, 2108.137 312.851 C 2110.034 306.345, 2109.751 285.005, 2107.656 276.546 C 2103.886 261.323, 2092.119 242.189, 2080.840 232.942 C 2063.803 218.974, 2045.924 212.158, 2024.500 211.464 C 2018.450 211.267, 2010.800 211.527, 2007.500 212.041 M 2413.468 445.223 C 2413.175 445.987, 2426.231 478.762, 2442.483 518.056 C 2467.321 578.113, 2471.793 589.659, 2470.540 590.500 C 2469.721 591.050, 2466.264 593.075, 2462.858 595 C 2454.549 599.696, 2442.114 611.550, 2436.162 620.449 C 2411.922 656.691, 2419.656 704.491, 2454.124 731.460 C 2463.036 738.433, 2476.683 745.157, 2488 748.151 C 2499.986 751.322, 2519.776 751.351, 2532.301 748.216 C 2564.120 740.252, 2589.125 715.865, 2596.656 685.454 C 2599.031 675.864, 2599.023 655.791, 2596.640 647.139 C 2595.676 643.641, 2595.026 640.673, 2595.194 640.544 C 2595.362 640.415, 2661.425 626.164, 2742 608.876 L 2888.500 577.442 2889.182 579.971 C 2889.558 581.362, 2890.552 585.538, 2891.393 589.251 C 2894.975 605.073, 2901.219 616.178, 2913.500 628.563 C 2931.106 646.320, 2952.120 655, 2977.500 655 C 3001.166 655, 3022.252 646.938, 3038.712 631.595 C 3055.770 615.696, 3064.412 597.555, 3065.683 574.982 C 3067.943 534.831, 3040.373 499.034, 2999.301 488.792 C 2986.944 485.711, 2968.056 485.711, 2955.699 488.792 C 2918.535 498.059, 2892.638 527.734, 2889.264 564.919 L 2888.500 573.339 2743 604.619 C 2662.975 621.824, 2596.549 635.923, 2595.387 635.950 C 2593.769 635.988, 2592.547 634.523, 2590.168 629.690 C 2581.952 613, 2566.166 597.938, 2548.494 589.925 C 2535.023 583.817, 2528.108 582.494, 2510 582.562 C 2495.064 582.618, 2492.694 582.875, 2485 585.271 C 2478.176 587.396, 2476.323 587.660, 2475.601 586.610 C 2475.106 585.891, 2461.606 553.656, 2445.601 514.978 C 2429.595 476.299, 2415.938 444.469, 2415.251 444.243 C 2414.563 444.018, 2413.761 444.459, 2413.468 445.223 M 2309.529 623.563 C 2283.694 719.558, 2262.303 798.510, 2261.992 799.013 C 2261.667 799.540, 2257.200 799.051, 2251.463 797.861 C 2237.794 795.025, 2220.478 795.661, 2207.500 799.475 C 2177.727 808.226, 2156.180 829.452, 2147.366 858.712 C 2145.090 866.269, 2144.719 869.320, 2144.719 880.500 C 2144.719 891.734, 2145.086 894.723, 2147.418 902.500 C 2158.196 938.433, 2189.316 962.576, 2227.605 964.709 C 2264.547 966.768, 2298.164 947.266, 2313.446 914.911 C 2319.234 902.657, 2320.500 896.391, 2320.500 880 C 2320.500 867.580, 2320.164 864.429, 2318.156 858.035 C 2310.647 834.122, 2293.513 814.449, 2271.365 804.309 C 2268.414 802.959, 2266 801.644, 2266 801.388 C 2266 800.858, 2359.849 452.170, 2360.508 450.250 C 2360.767 449.494, 2360.060 449.006, 2358.719 449.014 C 2356.617 449.027, 2354.033 458.196, 2309.529 623.563 M 416.500 973.653 C 391.286 975.716, 361.839 980.684, 337.500 986.983 C 243.314 1011.357, 160.560 1065.106, 99.338 1141.668 C 22.883 1237.280, -11.502 1360.054, 4.042 1481.928 C 15.952 1575.313, 53.787 1656.863, 118 1727.557 C 169.637 1784.406, 237.676 1828.526, 311 1852.710 C 334.627 1860.502, 357.313 1865.655, 389.599 1870.563 L 392.698 1871.034 393.299 1883.267 C 396.384 1946.021, 428.036 1995.696, 483.338 2024.577 C 502.061 2034.355, 521.617 2040.676, 547 2045.154 C 558.791 2047.234, 563.005 2047.381, 621.250 2047.748 L 683 2048.136 683 1996.068 L 683 1944 630.250 1943.987 C 572.598 1943.973, 567.641 1943.570, 553.164 1937.722 C 527.567 1927.383, 510.986 1905.317, 509.266 1879.304 C 508.736 1871.275, 508.774 1871.097, 511.112 1870.625 C 512.426 1870.360, 520.475 1868.940, 529 1867.469 C 624.905 1850.924, 717.178 1800.473, 782.933 1728.631 C 815.991 1692.513, 837.480 1661.500, 857.165 1621.500 C 880.224 1574.644, 893.499 1526.315, 899.193 1468.500 C 901.109 1449.043, 900.806 1396.277, 898.670 1377.200 C 884.796 1253.333, 825.035 1145.082, 727.951 1067.961 C 715.527 1058.091, 687.543 1039.164, 674.104 1031.541 C 632.087 1007.706, 582.135 989.260, 536 980.542 C 506.211 974.913, 493.961 973.832, 456.500 973.528 C 437.250 973.372, 419.250 973.428, 416.500 973.653 M 3976.500 973.653 C 3951.286 975.716, 3921.839 980.684, 3897.500 986.983 C 3803.314 1011.357, 3720.560 1065.106, 3659.338 1141.668 C 3582.883 1237.280, 3548.498 1360.054, 3564.042 1481.928 C 3575.952 1575.313, 3613.787 1656.863, 3678 1727.557 C 3729.637 1784.406, 3797.676 1828.526, 3871 1852.710 C 3894.627 1860.502, 3917.313 1865.655, 3949.599 1870.563 L 3952.698 1871.034 3953.299 1883.267 C 3956.384 1946.021, 3988.036 1995.696, 4043.338 2024.577 C 4062.061 2034.355, 4081.617 2040.676, 4107 2045.154 C 4118.791 2047.234, 4123.005 2047.381, 4181.250 2047.748 L 4243 2048.136 4243 1996.068 L 4243 1944 4190.250 1943.987 C 4132.598 1943.973, 4127.641 1943.570, 4113.164 1937.722 C 4087.567 1927.383, 4070.986 1905.317, 4069.266 1879.304 C 4068.736 1871.275, 4068.774 1871.097, 4071.112 1870.625 C 4072.426 1870.360, 4080.475 1868.940, 4089 1867.469 C 4184.905 1850.924, 4277.178 1800.473, 4342.933 1728.631 C 4375.991 1692.513, 4397.480 1661.500, 4417.165 1621.500 C 4440.224 1574.644, 4453.499 1526.315, 4459.193 1468.500 C 4461.109 1449.043, 4460.806 1396.277, 4458.670 1377.200 C 4444.796 1253.333, 4385.035 1145.082, 4287.951 1067.961 C 4275.527 1058.091, 4247.543 1039.164, 4234.104 1031.541 C 4192.087 1007.706, 4142.135 989.260, 4096 980.542 C 4066.211 974.913, 4053.961 973.832, 4016.500 973.528 C 3997.250 973.372, 3979.250 973.428, 3976.500 973.653 M 439 1076.673 C 300.460 1081.995, 178.306 1180.120, 136.068 1320.015 C 125.633 1354.574, 121.002 1386.869, 121.001 1425.089 C 120.997 1524.510, 156.908 1610.854, 226.633 1679.067 C 268.785 1720.306, 315.570 1746.118, 374.299 1760.539 C 382.052 1762.443, 389.431 1764, 390.697 1764 L 393 1764 393 1707 L 393 1650 450.992 1650 L 508.984 1650 509.242 1707.368 L 509.500 1764.736 523.500 1761.478 C 542.139 1757.140, 552.708 1753.881, 569.500 1747.294 C 630.992 1723.172, 683.738 1679.069, 723.535 1618.500 C 743.771 1587.701, 758.313 1555.877, 767.628 1522.006 C 787.842 1448.500, 784.443 1369.874, 757.950 1298.175 C 751.835 1281.625, 735.583 1248.510, 726.286 1233.658 C 705.929 1201.133, 678.443 1170.334, 648.500 1146.494 C 601.469 1109.050, 543.891 1084.929, 486.414 1078.592 C 472.592 1077.068, 451.225 1076.204, 439 1076.673 M 3999 1076.673 C 3860.460 1081.995, 3738.306 1180.120, 3696.068 1320.015 C 3685.633 1354.574, 3681.002 1386.869, 3681.001 1425.089 C 3680.997 1524.510, 3716.908 1610.854, 3786.633 1679.067 C 3828.785 1720.306, 3875.570 1746.118, 3934.299 1760.539 C 3942.052 1762.443, 3949.431 1764, 3950.697 1764 L 3953 1764 3953 1707 L 3953 1650 4010.992 1650 L 4068.984 1650 4069.242 1707.368 L 4069.500 1764.736 4083.500 1761.478 C 4102.139 1757.140, 4112.708 1753.881, 4129.500 1747.294 C 4190.992 1723.172, 4243.738 1679.069, 4283.535 1618.500 C 4303.771 1587.701, 4318.313 1555.877, 4327.628 1522.006 C 4347.842 1448.500, 4344.443 1369.874, 4317.950 1298.175 C 4311.835 1281.625, 4295.583 1248.510, 4286.286 1233.658 C 4265.929 1201.133, 4238.443 1170.334, 4208.500 1146.494 C 4161.469 1109.050, 4103.891 1084.929, 4046.414 1078.592 C 4032.592 1077.068, 4011.225 1076.204, 3999 1076.673 M 2773 1396.394 C 2773 1605.815, 2773.339 1708.112, 2774.057 1715.144 C 2776.142 1735.585, 2781.179 1753.414, 2789.696 1770.500 C 2810.976 1813.190, 2852.919 1845.255, 2902.696 1856.885 C 2924.813 1862.053, 2928.513 1862.285, 2995.750 1862.728 L 3059 1863.145 3059 1814.156 L 3059 1765.167 3006.250 1764.726 C 2960.862 1764.346, 2952.453 1764.043, 2946 1762.553 C 2928.254 1758.458, 2913.034 1750.225, 2901.738 1738.612 C 2891.635 1728.225, 2886.303 1717.761, 2884.055 1703.911 C 2883.364 1699.652, 2883.013 1640.015, 2883.008 1526.250 L 2883 1355 2971 1355 L 3059 1355 3059 1305.500 L 3059 1256 2971 1256 L 2883 1256 2883 1172 L 2883 1088 2828 1088 L 2773 1088 2773 1396.394 M 1678.500 1245.081 C 1651.711 1246.271, 1622.626 1251.940, 1599.435 1260.492 C 1559.536 1275.205, 1520.913 1303.134, 1492.849 1337.566 C 1472.428 1362.621, 1455.845 1397.046, 1449.044 1428.500 C 1443.259 1455.258, 1443.618 1440.852, 1443.267 1660.750 L 1442.944 1863 1497.948 1863 L 1552.952 1863 1553.282 1664.750 C 1553.584 1483.070, 1553.754 1465.811, 1555.308 1458.257 C 1559.643 1437.180, 1568.665 1416.608, 1580.471 1400.877 C 1593.801 1383.116, 1616.910 1363.962, 1635.063 1355.628 C 1655.637 1346.183, 1675.224 1342.465, 1700 1343.302 C 1718.999 1343.944, 1731.591 1346.424, 1746.795 1352.520 C 1783.557 1367.257, 1815.855 1401.524, 1828.369 1439.066 C 1834.920 1458.719, 1834.405 1440.676, 1834.735 1662.250 L 1835.033 1863 1890.554 1863 L 1946.074 1863 1945.731 1662.250 C 1945.364 1446.880, 1945.596 1457.102, 1940.511 1432.653 C 1929.262 1378.565, 1897.533 1329.791, 1850.753 1294.673 C 1811.030 1264.853, 1763.035 1247.444, 1715 1245.429 C 1708.675 1245.164, 1701.250 1244.827, 1698.500 1244.681 C 1695.750 1244.534, 1686.750 1244.714, 1678.500 1245.081 M 2342 1245.151 C 2295.349 1246.993, 2249.939 1258.464, 2208.275 1278.932 C 2175.745 1294.913, 2151.003 1312.324, 2125.193 1337.396 C 2072.219 1388.856, 2042.267 1450.386, 2034.482 1523.739 C 2032.548 1541.958, 2032.578 1578.036, 2034.541 1596.734 C 2041.532 1663.298, 2068.559 1722.499, 2113.732 1770.193 C 2155.010 1813.774, 2201.658 1842.409, 2260.144 1860.066 C 2289.303 1868.870, 2317.128 1872.980, 2352.621 1873.725 C 2466.010 1876.107, 2555.763 1847.189, 2622.060 1786.913 C 2634.951 1775.192, 2659.253 1746.816, 2664.073 1737.854 C 2664.818 1736.469, 2657.638 1732.048, 2618.729 1709.936 C 2593.303 1695.486, 2571.563 1683.062, 2570.418 1682.327 C 2568.466 1681.074, 2567.865 1681.599, 2560.795 1690.745 C 2550.303 1704.318, 2543.389 1711.675, 2532.701 1720.643 C 2498.654 1749.209, 2453.033 1767.898, 2402 1774.186 C 2388.444 1775.856, 2347.318 1775.869, 2335.500 1774.206 C 2294.992 1768.509, 2260.678 1755.120, 2231.573 1733.655 C 2193.751 1705.761, 2168.236 1671.882, 2154.145 1630.848 C 2150.697 1620.805, 2145 1598.556, 2145 1595.130 C 2145 1594.293, 2215.178 1594, 2415.631 1594 L 2686.262 1594 2685.704 1561.250 C 2685.121 1526.970, 2684.167 1516.523, 2679.448 1492.739 C 2670.383 1447.046, 2649.727 1403.305, 2619.362 1365.500 C 2608.031 1351.392, 2585.578 1328.943, 2571.500 1317.646 C 2535.367 1288.649, 2493.589 1267.678, 2448.639 1255.973 C 2413.677 1246.869, 2381.416 1243.595, 2342 1245.151 M 2338 1343.617 C 2336.075 1343.848, 2329.960 1344.720, 2324.412 1345.555 C 2259.242 1355.358, 2198.960 1398.860, 2167.205 1459 C 2162.852 1467.245, 2154.522 1486.966, 2152.527 1493.750 L 2151.865 1496 2359.399 1496 L 2566.933 1496 2563.392 1485.750 C 2541.670 1422.858, 2485.631 1370.127, 2420.591 1351.377 C 2399.975 1345.433, 2388.287 1343.818, 2363.500 1343.489 C 2351.400 1343.328, 2339.925 1343.385, 2338 1343.617 M 1001 1570.500 L 1001 1619 1164.500 1619 L 1328 1619 1328 1570.500 L 1328 1522 1164.500 1522 L 1001 1522 1001 1570.500 M 3133 1570.500 L 3133 1619 3296.500 1619 L 3460 1619 3460 1570.500 L 3460 1522 3296.500 1522 L 3133 1522 3133 1570.500" stroke="none" fill="#040404" fill-rule="evenodd"/></svg>