<svg xmlns="http://www.w3.org/2000/svg" width="4462" height="2049" viewBox="0 0 4462 2049" version="1.1"><path d="M 4025.558 238.759 C 4001.564 320.920, 3994.044 347.255, 3992.363 355 C 3989.577 367.838, 3988.033 375.294, 3986.977 381 C 3986.418 384.025, 3985.545 388.300, 3985.039 390.500 C 3984.156 394.338, 3982.784 400.976, 3979.409 417.746 C 3978.550 422.011, 3977.219 428.425, 3976.449 432 C 3975.679 435.575, 3974.327 442.100, 3973.444 446.500 C 3971.655 455.408, 3969.698 464.985, 3967.516 475.500 C 3965.446 485.477, 3963.203 496.357, 3961.484 504.750 C 3960.668 508.737, 3959.332 515.262, 3958.516 519.250 C 3956.797 527.643, 3954.554 538.523, 3952.484 548.500 C 3951.087 555.231, 3949.716 561.870, 3946.389 578 C 3943.585 591.599, 3941.789 600.468, 3941.396 602.657 C 3940.826 605.831, 3937.505 604.562, 3934.799 600.136 C 3933.576 598.136, 3932.108 595.993, 3931.537 595.373 C 3930.967 594.752, 3929.825 593.251, 3929 592.036 C 3911.465 566.213, 3907.942 563.452, 3891.166 562.383 C 3882.803 561.850, 3879.747 562.149, 3868.500 564.604 C 3856.379 567.250, 3853.979 567.443, 3833 567.449 C 3812.844 567.456, 3808.924 567.172, 3795.367 564.728 C 3786.216 563.079, 3776.671 562, 3771.221 562 L 3762.209 562 3760.162 557.864 C 3758.516 554.536, 3756.707 552.962, 3750.909 549.817 C 3746.945 547.666, 3739.300 542.590, 3733.919 538.537 C 3712.327 522.272, 3697.531 519.385, 3680.858 528.186 C 3675.172 531.187, 3664 540.385, 3664 542.066 C 3664 542.564, 3661.579 548.040, 3658.621 554.236 C 3653.552 564.852, 3651.948 568.282, 3644.004 585.500 C 3642.228 589.350, 3638.846 596.550, 3636.488 601.500 C 3628.454 618.370, 3625 626.043, 3625 627.022 C 3625 627.560, 3624.131 628, 3623.068 628 C 3621.031 628, 3620.319 626.752, 3605.209 596.673 L 3597.760 581.845 3593.130 582.398 C 3562.036 586.106, 3529.896 580.679, 3493.807 565.626 L 3485.113 562 3462.129 562 L 3439.145 562 3436.072 555.497 C 3434.383 551.921, 3433 548.561, 3433 548.031 C 3433 547.501, 3432.263 545.365, 3431.361 543.284 C 3429.436 538.838, 3428.825 537.335, 3425.957 530 C 3424.774 526.975, 3423.078 522.700, 3422.188 520.500 C 3421.297 518.300, 3417.912 513.575, 3414.664 510 C 3403.706 497.937, 3396.330 487.632, 3371.004 449 C 3357.122 427.825, 3345.001 409.697, 3344.069 408.715 C 3342.444 407.003, 3342.300 407.011, 3340.574 408.918 C 3339.584 410.012, 3321.832 444.790, 3301.125 486.203 L 3263.476 561.500 3241.988 562.066 C 3224.710 562.521, 3218.541 563.078, 3210.500 564.908 C 3202.159 566.806, 3196.563 567.270, 3176.774 567.706 C 3153.878 568.210, 3142.671 567.722, 3103.500 564.511 C 3087.749 563.220, 3086.379 563.242, 3084.856 564.809 C 3081.996 567.752, 3061.491 598.330, 3059.660 602.383 L 3057.906 606.265 3106.703 605.711 C 3138.102 605.354, 3162.096 604.591, 3174 603.571 C 3226 599.115, 3267.357 590.532, 3288 579.913 C 3297.277 575.140, 3298.243 574.299, 3305.112 565 C 3310.110 558.236, 3312.956 555.694, 3321.039 550.775 C 3322.870 549.661, 3327.898 540.538, 3339.039 518.116 C 3349.246 497.576, 3354.974 487.087, 3355.895 487.251 C 3357.157 487.476, 3359.391 492.117, 3363.719 503.500 C 3364.555 505.700, 3365.611 508.400, 3366.066 509.500 C 3367.100 512.002, 3370.701 521.207, 3372.717 526.500 C 3373.554 528.700, 3374.611 531.400, 3375.066 532.500 C 3375.521 533.600, 3376.871 536.975, 3378.066 540 C 3379.261 543.025, 3380.803 546.850, 3381.493 548.500 C 3382.182 550.150, 3383.574 553.750, 3384.585 556.500 C 3385.595 559.250, 3387 562.625, 3387.705 564 C 3388.411 565.375, 3388.990 567.197, 3388.994 568.050 C 3388.997 568.902, 3389.376 570.027, 3389.835 570.550 C 3390.294 571.072, 3391.479 573.750, 3392.468 576.500 C 3396.180 586.824, 3398.777 591.577, 3401.342 592.746 C 3405.757 594.758, 3424.069 599.800, 3434.500 601.877 C 3446.333 604.232, 3463.298 606, 3474.074 606 C 3478.324 606, 3487.066 606.900, 3493.500 608 C 3503.059 609.634, 3509.765 610, 3530.165 610 C 3544.805 610, 3555.900 610.411, 3556.990 610.995 C 3558.012 611.542, 3559.478 613.229, 3560.247 614.745 C 3569.968 633.889, 3596.409 685.549, 3598.214 688.923 C 3601.138 694.390, 3606.451 697.499, 3611.117 696.474 C 3617.863 694.993, 3625.706 685.267, 3638.514 662.500 C 3659.776 624.709, 3667.542 614.965, 3684.477 604.836 C 3688.814 602.242, 3690.095 600.735, 3692.726 595.133 C 3694.438 591.485, 3698.126 583.648, 3700.920 577.717 C 3703.714 571.786, 3706 566.547, 3706 566.074 C 3706 564.934, 3708.938 563.843, 3710.090 564.556 C 3710.591 564.865, 3711 565.572, 3711 566.126 C 3711 567.155, 3718.617 583.672, 3722.010 590 L 3723.886 593.500 3739.693 594.118 C 3758.901 594.868, 3780 598.299, 3807.151 605.087 L 3826.802 610 3854.386 610 L 3881.971 610 3886.532 615.750 C 3889.040 618.913, 3893.136 624.545, 3895.634 628.266 C 3898.131 631.987, 3900.699 635.587, 3901.339 636.266 C 3901.979 636.945, 3903.609 639.148, 3904.960 641.162 C 3907.855 645.476, 3913.891 649.624, 3919.449 651.121 C 3930.743 654.162, 3943.263 646.431, 3954.575 629.430 C 3961.558 618.935, 3971.429 598.273, 3977.950 580.500 C 3988.470 551.827, 3994.633 538.139, 4004.162 522.276 C 4007.798 516.225, 4009.366 512.394, 4010.100 507.776 C 4010.649 504.324, 4011.484 499.925, 4011.957 498 C 4012.850 494.365, 4014.775 485.225, 4017.540 471.500 C 4018.427 467.100, 4019.762 460.575, 4020.508 457 C 4021.254 453.425, 4022.609 446.900, 4023.518 442.500 C 4024.428 438.100, 4025.778 431.575, 4026.518 428 C 4027.259 424.425, 4028.542 418.125, 4029.370 414 C 4030.775 407.001, 4031.463 403.641, 4035.516 384 C 4039.279 365.765, 4040.276 361.112, 4041.726 355 C 4043.734 346.532, 4044.707 345.647, 4045.430 351.629 C 4045.754 354.308, 4046.483 359.200, 4047.049 362.500 C 4047.616 365.800, 4048.490 371.875, 4048.992 376 C 4050.218 386.065, 4051.805 397.201, 4053.053 404.500 C 4053.617 407.800, 4054.500 413.875, 4055.015 418 C 4055.530 422.125, 4056.617 430, 4057.430 435.500 C 4058.960 445.854, 4060.929 459.567, 4063.423 477.251 C 4065.701 493.399, 4065.890 494, 4068.675 494 C 4084.692 494, 4088.850 462.902, 4080.907 402.500 C 4077.459 376.274, 4071.130 340.986, 4060.371 288 C 4041.787 196.479, 4040.640 191, 4040.066 191.009 C 4039.755 191.013, 4033.226 212.501, 4025.558 238.759 M 1347.725 205.752 C 1344.801 208.983, 1343.917 213.274, 1342.983 228.788 C 1341.354 255.822, 1334.495 302.164, 1324.053 356.684 C 1317.079 393.098, 1315.722 404.462, 1316.253 422 C 1316.767 438.944, 1318.160 443.695, 1324.778 451.081 C 1329.039 455.837, 1336.735 459.900, 1338.923 458.547 C 1339.515 458.181, 1340 456.745, 1340 455.355 C 1340 453.965, 1340.648 450.054, 1341.439 446.664 C 1342.231 443.274, 1343.566 437.125, 1344.407 433 C 1345.248 428.875, 1346.640 422.125, 1347.500 418 C 1349.255 409.585, 1351.316 399.537, 1353.500 388.754 C 1361.299 350.238, 1362.335 346.512, 1363.410 353.120 C 1364.355 358.929, 1366.851 376.009, 1368.507 388 C 1369.380 394.325, 1370.519 401.750, 1371.038 404.500 C 1371.556 407.250, 1372.424 413.100, 1372.965 417.500 C 1373.506 421.900, 1374.655 430.450, 1375.517 436.500 C 1376.380 442.550, 1377.350 449.413, 1377.673 451.750 C 1377.996 454.087, 1378.584 456, 1378.980 456 C 1379.376 456, 1381.482 454.709, 1383.659 453.132 C 1407.715 435.706, 1415.415 386.662, 1403.453 327.064 C 1391.791 268.961, 1363.683 204, 1350.205 204 C 1349.713 204, 1348.597 204.788, 1347.725 205.752 M 2360 283.869 C 2341.662 287.886, 2326.312 296.618, 2313.158 310.515 C 2298.751 325.735, 2290.932 345.320, 2290.931 366.193 C 2290.929 388.452, 2298.410 407.078, 2313.839 423.227 C 2326.848 436.843, 2342.261 445.344, 2360.990 449.232 C 2374.098 451.953, 2391.735 451.280, 2404.282 447.580 C 2434.434 438.688, 2455.825 417.667, 2464.617 388.288 C 2466.871 380.755, 2467.246 377.644, 2467.246 366.500 C 2467.246 355.302, 2466.875 352.253, 2464.564 344.500 C 2455.922 315.500, 2434.291 294.293, 2404.297 285.414 C 2392.207 281.836, 2372.433 281.146, 2360 283.869 M 679.709 408.250 C 678.393 410.038, 664.983 430.315, 649.908 453.311 C 634.834 476.307, 618.705 500.157, 614.066 506.311 C 607.403 515.150, 603.144 522.488, 593.785 541.250 L 581.937 565 547.711 565 C 516.691 565, 511.847 565.232, 495.993 567.472 C 444.257 574.783, 414.542 576.645, 200 586.020 C 124.375 589.325, 62.050 592.211, 61.500 592.435 C 60.950 592.659, 64.291 592.878, 68.925 592.921 C 73.559 592.964, 131.384 594.429, 197.425 596.175 C 331.758 599.726, 439.380 600.502, 477.500 598.193 C 552.783 593.634, 595.866 586.407, 620.923 574.135 C 634.181 567.642, 635.424 565.901, 655.051 526.336 C 664.645 506.996, 673.216 490.722, 674.098 490.171 C 675.729 489.152, 676.303 490.228, 681.478 504 C 682.202 505.925, 684.236 511.100, 686 515.500 C 687.764 519.900, 689.889 525.300, 690.723 527.500 C 691.557 529.700, 692.611 532.400, 693.066 533.500 C 693.521 534.600, 694.871 537.975, 696.067 541 C 700.896 553.214, 701.933 554.741, 711.643 563.930 C 722.872 574.558, 735.047 582.922, 749.453 589.908 C 769.465 599.611, 787.572 604.437, 809.773 605.983 C 819.450 606.658, 826.303 607.749, 833 609.682 C 841.048 612.006, 845.022 612.507, 859 612.963 C 868.075 613.258, 875.953 613.796, 876.506 614.158 C 877.059 614.520, 880.158 620.036, 883.393 626.416 C 888.385 636.264, 890.349 639.030, 896.387 644.722 C 900.299 648.410, 909.017 657.744, 915.759 665.464 C 935.275 687.808, 944.636 694.595, 952.402 692.032 C 959.570 689.667, 966.257 678.607, 976.068 652.888 C 985.744 627.525, 993.833 614.108, 1004.119 606.359 C 1008.222 603.268, 1009.935 601.007, 1012.723 595 C 1021.498 576.088, 1025.954 567.146, 1026.892 566.567 C 1027.471 566.209, 1030.084 570.586, 1032.953 576.719 C 1035.727 582.648, 1038.575 588.625, 1039.283 590 C 1040.552 592.463, 1040.806 592.510, 1056.535 593.150 C 1082.080 594.189, 1110.568 599.281, 1145.580 609.065 L 1159.659 613 1179.395 613 C 1190.519 613, 1199.939 613.432, 1200.983 613.991 C 1202.001 614.536, 1204.936 618.143, 1207.505 622.007 C 1210.073 625.871, 1212.727 629.587, 1213.402 630.266 C 1214.077 630.945, 1215.050 632.249, 1215.565 633.163 C 1216.845 635.441, 1235.232 648.513, 1242.052 651.995 C 1264.864 663.640, 1283.444 657.810, 1295.276 635.295 C 1304.248 618.220, 1308.009 599.127, 1308.727 567 C 1309.596 528.107, 1306.343 514, 1296.508 514 C 1291.846 514, 1286.648 516.713, 1280.198 522.512 C 1276.186 526.119, 1275 527.852, 1275 530.108 C 1275 531.715, 1274.359 535.611, 1273.575 538.765 C 1272.792 541.919, 1271.433 548.100, 1270.555 552.500 C 1267.038 570.139, 1263.228 588.432, 1261.379 596.564 C 1260.621 599.899, 1260 603.585, 1260 604.755 C 1260 607.727, 1258.557 608.297, 1256.230 606.245 C 1254.381 604.614, 1244.156 590.885, 1237.602 581.234 C 1226.865 565.421, 1218.621 562.940, 1192 567.509 C 1164.740 572.188, 1132.246 572.096, 1110.500 567.279 C 1106.650 566.426, 1098.382 565.452, 1092.127 565.114 L 1080.755 564.500 1078.251 559.711 C 1076.811 556.958, 1073.994 553.701, 1071.623 552.051 C 1066.819 548.705, 1060.295 541.991, 1057 537 C 1053.313 531.416, 1046.832 525.014, 1042.500 522.678 C 1039.351 520.980, 1036.798 520.522, 1030.500 520.527 C 1023.357 520.531, 1021.671 520.926, 1014.756 524.214 C 1006.027 528.364, 1000.890 531.693, 989.865 540.341 C 983.223 545.552, 981.804 547.252, 978.958 553.415 C 970.904 570.857, 965.951 581.464, 957.205 600 C 953.327 608.218, 947.641 620.538, 944.178 628.224 C 943.255 630.273, 942.218 631.960, 941.872 631.974 C 940.649 632.025, 939.062 629.292, 929.980 611.497 C 912.463 577.170, 910.659 573.877, 908.402 572.102 C 906.529 570.629, 903.293 570.204, 889.817 569.663 C 880.843 569.302, 869 568.259, 863.500 567.344 C 855.601 566.030, 843.427 565.556, 805.552 565.090 L 757.604 564.500 754.184 556.500 C 752.303 552.100, 750.088 546.700, 749.262 544.500 C 748.436 542.300, 747.389 539.600, 746.934 538.500 C 745.900 535.998, 742.299 526.793, 740.283 521.500 C 739.446 519.300, 738.389 516.600, 737.934 515.500 C 737.479 514.400, 736.149 511.025, 734.977 508 C 733.806 504.975, 731.088 499.125, 728.937 495 C 726.786 490.875, 715.685 468.938, 704.269 446.250 C 692.852 423.563, 683.194 405, 682.807 405 C 682.419 405, 681.025 406.462, 679.709 408.250 M 1568.618 479.069 C 1559.374 481.342, 1546.090 490.365, 1539.277 499 C 1533.803 505.937, 1533.892 505.821, 1530.955 509.970 C 1529.605 511.878, 1522.875 521.157, 1516 530.589 C 1509.125 540.022, 1496.750 557.029, 1488.500 568.382 C 1463.292 603.071, 1452.552 617.344, 1451.370 617.724 C 1450.690 617.942, 1449.985 616.177, 1449.599 613.293 C 1449.247 610.657, 1448.524 605.800, 1447.993 602.500 C 1446.749 594.775, 1445.146 583.427, 1443.999 574.229 C 1443.500 570.230, 1442.562 564.262, 1441.914 560.967 C 1440.800 555.305, 1440.509 554.876, 1436.618 553.151 C 1434.353 552.147, 1431.882 550.577, 1431.128 549.663 C 1430.373 548.748, 1428.665 548, 1427.332 548 C 1421.539 548, 1417.245 556.953, 1413.699 576.423 C 1411.620 587.842, 1411.500 591.278, 1411.503 639.500 L 1411.507 690.500 1414.269 694.755 C 1416.747 698.572, 1424.135 705, 1426.044 705 C 1426.453 705, 1442.023 686.898, 1460.644 664.774 C 1498.163 620.196, 1508.413 609.026, 1524.281 595.421 C 1535.152 586.101, 1540.548 579.481, 1563 547.918 C 1570.269 537.700, 1573.431 534, 1574.896 534 C 1575.441 534, 1577.616 537.487, 1579.730 541.750 C 1581.844 546.013, 1585.465 553.100, 1587.778 557.500 L 1591.983 565.500 1599.111 567.216 C 1604.219 568.445, 1617.502 574.588, 1645.983 588.892 L 1685.726 608.853 1686.350 602.176 C 1687.172 593.374, 1689.356 585.206, 1693.388 575.861 L 1696.684 568.222 1692.592 566.883 C 1689.949 566.018, 1680.916 565.359, 1667.088 565.022 L 1645.676 564.500 1639.749 553 C 1636.490 546.675, 1632.196 538.350, 1630.207 534.500 C 1625.366 525.129, 1608.426 502.456, 1598.648 492.262 C 1587.527 480.666, 1578.411 476.662, 1568.618 479.069 M 4227.177 488.687 C 4226.449 488.977, 4221.856 494.679, 4216.969 501.358 C 4212.082 508.036, 4207.674 513.981, 4207.172 514.569 C 4206.670 515.157, 4204.085 518.757, 4201.426 522.569 C 4197.411 528.327, 4186.549 543.241, 4173.436 561 C 4172.014 562.925, 4165.287 572.150, 4158.486 581.500 C 4151.685 590.850, 4143.281 602.401, 4139.811 607.168 C 4136.340 611.936, 4133.147 615.498, 4132.716 615.084 C 4131.737 614.144, 4130.338 606.328, 4128.954 594.066 C 4128.369 588.877, 4127.701 584.326, 4127.470 583.952 C 4127.239 583.578, 4126.576 579.083, 4125.996 573.962 C 4124.131 557.503, 4123.857 556.920, 4116.490 553.750 C 4109.247 550.633, 4107.036 550.409, 4103.200 552.405 C 4090.762 558.876, 4084.256 585.454, 4086.851 619.195 C 4087.498 627.613, 4088.930 638.279, 4090.034 642.898 C 4097.589 674.519, 4116.324 677.950, 4142.463 652.500 C 4153.870 641.394, 4163.329 629.182, 4180.805 603 C 4189.065 590.625, 4198.566 577.290, 4201.917 573.368 C 4212.547 560.925, 4222.373 554.679, 4233.346 553.389 C 4238.777 552.751, 4239.200 552.489, 4242.689 547.610 C 4244.699 544.800, 4248.162 540.025, 4250.384 537 C 4252.606 533.975, 4254.520 531.346, 4254.637 531.158 C 4255.919 529.102, 4265.269 545.627, 4280.444 576.771 C 4283.393 582.822, 4283.781 583.177, 4291.500 586.909 C 4301.800 591.888, 4318.572 597.257, 4332.500 600.033 C 4359.087 605.334, 4408.530 602.652, 4409.802 595.841 C 4410.453 592.354, 4405.306 589.278, 4385.500 581.314 C 4379.450 578.881, 4368.116 573.541, 4360.313 569.446 L 4346.126 562 4337.218 562 C 4327.136 562, 4326.865 561.839, 4322.930 553.500 C 4318.991 545.154, 4317.332 543.362, 4305.193 534.345 C 4298.762 529.569, 4288.325 521.323, 4282 516.021 C 4261.910 499.183, 4253.390 493.500, 4242.971 489.990 C 4237.397 488.112, 4230.117 487.512, 4227.177 488.687" stroke="none" fill="#e50a0f" fill-rule="evenodd"/><path d="M 2497.500 1.033 C 2453.631 7.790, 2422.082 42.544, 2421.732 84.500 C 2421.628 96.903, 2422.890 104.057, 2427.136 115.144 C 2436.075 138.485, 2455.636 156.800, 2481 165.578 C 2485.163 167.018, 2487.386 168.307, 2487.183 169.163 C 2487.009 169.899, 2474.452 198.984, 2459.278 233.797 C 2437.138 284.594, 2431.375 296.991, 2430.095 296.568 C 2429.218 296.279, 2429.614 296.820, 2430.976 297.771 C 2432.338 298.722, 2435.038 300.833, 2436.976 302.463 C 2440.090 305.081, 2440.229 305.122, 2438.174 302.817 L 2435.847 300.208 2464.344 234.866 L 2492.842 169.524 2507.171 169.828 C 2522.105 170.145, 2529.754 169.095, 2541.022 165.182 C 2567.051 156.143, 2587.650 134.912, 2596.015 108.500 C 2599.387 97.854, 2599.911 78.392, 2597.138 66.791 C 2589.609 35.287, 2565.376 11.408, 2532.365 2.965 C 2523.445 0.684, 2506.030 -0.281, 2497.500 1.033 M 2007.500 211.418 C 2006.950 211.628, 2003.125 212.564, 1999 213.500 C 1967.235 220.701, 1940.764 247.549, 1933.924 279.500 C 1931.928 288.828, 1932.395 306.031, 1934.902 315.500 C 1939.768 333.878, 1952.320 352.819, 1965.844 362.195 L 1968.189 363.821 1895.446 448.660 C 1855.437 495.322, 1822.138 534.116, 1821.448 534.868 C 1820.395 536.015, 1819.124 535.731, 1813.575 533.109 C 1795.438 524.540, 1770.198 522.326, 1750.719 527.596 C 1742.529 529.812, 1729.716 535.760, 1722.337 540.771 C 1714.278 546.244, 1701.186 560.298, 1697.226 567.727 C 1676.909 605.846, 1684.667 648.100, 1716.745 674.038 C 1731.228 685.749, 1746.531 692.038, 1765.500 694.074 C 1795.362 697.279, 1826.608 684.571, 1844.985 661.746 C 1851.435 653.735, 1858.448 639.699, 1861.098 629.500 C 1863.568 619.992, 1864.038 602.670, 1862.076 593.500 C 1857.961 574.279, 1846.598 555.991, 1831.628 544.500 C 1828.046 541.750, 1825.089 539.268, 1825.058 538.985 C 1824.996 538.438, 1966.611 373.022, 1970.315 369.313 L 1972.500 367.126 1981.425 371.521 C 2010.564 385.869, 2046.095 383.238, 2073.424 364.706 C 2085.564 356.474, 2096.822 343.065, 2103.354 329.057 L 2106.500 322.309 2198 344.012 L 2289.500 365.716 2290.083 370.108 C 2290.533 373.506, 2290.686 372.704, 2290.757 366.564 C 2290.807 362.199, 2290.545 359.072, 2290.174 359.616 C 2289.758 360.226, 2254.719 352.353, 2198.673 339.057 L 2107.846 317.510 2108.673 313.005 C 2109.128 310.527, 2109.494 302.200, 2109.486 294.500 C 2109.474 282.669, 2109.111 279.344, 2107.142 273.035 C 2102.549 258.318, 2095.119 246.218, 2084.365 235.939 C 2072.900 224.981, 2062.528 218.948, 2047.297 214.380 C 2039.874 212.153, 2036.157 211.686, 2023.500 211.389 C 2015.250 211.196, 2008.050 211.209, 2007.500 211.418 M 4043.850 347.510 C 4043.192 348.662, 4040.852 358.284, 4038.624 369 C 4035.340 384.790, 4032.070 400.711, 4029.432 413.750 C 4028.570 418.012, 4027.259 424.425, 4026.518 428 C 4025.778 431.575, 4024.428 438.100, 4023.518 442.500 C 4022.609 446.900, 4021.254 453.425, 4020.508 457 C 4019.762 460.575, 4018.431 467.100, 4017.551 471.500 C 4016.671 475.900, 4015.321 482.425, 4014.551 486 C 4009.766 508.228, 4008.770 514.260, 4010.015 513.491 C 4010.557 513.156, 4011 511.839, 4011 510.563 C 4011 509.288, 4011.675 507.685, 4012.500 507 C 4013.548 506.130, 4014 503.823, 4014 499.346 C 4014 494.572, 4014.383 492.790, 4015.500 492.362 C 4016.582 491.946, 4017.009 490.215, 4017.032 486.143 C 4017.051 482.775, 4017.655 479.717, 4018.532 478.559 C 4019.426 477.377, 4020 474.378, 4020 470.892 C 4020 467.403, 4020.458 465.014, 4021.172 464.776 C 4021.838 464.554, 4022.542 461.603, 4022.803 457.943 C 4023.054 454.399, 4023.877 450.612, 4024.630 449.527 C 4025.399 448.421, 4026 445.055, 4026 441.861 C 4026 438.616, 4026.472 436.009, 4027.098 435.801 C 4027.701 435.600, 4028.441 432.300, 4028.741 428.467 C 4029.042 424.635, 4029.682 421.243, 4030.165 420.928 C 4030.647 420.613, 4031.326 417.238, 4031.673 413.428 C 4032.020 409.618, 4032.711 406.233, 4033.208 405.906 C 4033.705 405.580, 4034.373 402.655, 4034.692 399.406 C 4035.010 396.158, 4035.631 393.039, 4036.071 392.475 C 4036.511 391.911, 4037.159 388.986, 4037.511 385.975 C 4037.862 382.964, 4038.553 379.600, 4039.045 378.500 C 4039.537 377.400, 4040.293 373.806, 4040.724 370.513 C 4041.316 365.999, 4041.938 364.443, 4043.254 364.190 C 4044.727 363.906, 4045 364.635, 4045 368.855 C 4045 371.968, 4045.567 374.424, 4046.500 375.357 C 4047.595 376.452, 4048 379.122, 4048 385.237 C 4048 391.058, 4048.448 394.211, 4049.468 395.559 C 4050.486 396.905, 4050.946 400.123, 4050.968 406.059 C 4050.990 411.995, 4051.450 415.213, 4052.468 416.559 C 4053.486 417.905, 4053.946 421.123, 4053.968 427.059 C 4053.990 432.995, 4054.450 436.213, 4055.468 437.559 C 4056.472 438.886, 4056.946 442.071, 4056.968 447.628 C 4056.987 452.521, 4057.597 457.185, 4058.500 459.346 C 4059.325 461.320, 4060 465.905, 4060 469.534 C 4060 473.162, 4060.478 477.025, 4061.062 478.117 C 4061.647 479.209, 4062.385 483.207, 4062.703 487.002 C 4063.260 493.642, 4063.393 493.927, 4066.212 494.547 C 4067.824 494.901, 4069.411 494.922, 4069.738 494.595 C 4070.066 494.268, 4069.415 494, 4068.292 494 C 4065.958 494, 4065.629 492.879, 4063.456 477.500 C 4060.685 457.886, 4058.887 445.356, 4057.430 435.500 C 4056.617 430, 4055.530 422.125, 4055.015 418 C 4054.500 413.875, 4053.617 407.800, 4053.053 404.500 C 4051.692 396.544, 4050.128 385.432, 4048.899 375 C 4048.349 370.325, 4047.474 364.925, 4046.955 363 C 4046.436 361.075, 4045.964 357.700, 4045.906 355.500 C 4045.778 350.639, 4044.624 346.154, 4043.850 347.510 M 1361.723 351 C 1360.898 353.425, 1358.310 364.840, 1356.508 374 C 1355.588 378.675, 1354.228 385.425, 1353.485 389 C 1352.743 392.575, 1351.444 398.875, 1350.600 403 C 1349.755 407.125, 1348.360 413.875, 1347.500 418 C 1346.640 422.125, 1345.248 428.875, 1344.407 433 C 1343.566 437.125, 1342.231 443.274, 1341.439 446.664 C 1340.648 450.054, 1340 453.902, 1340 455.214 C 1340 456.526, 1339.460 458.140, 1338.800 458.800 C 1337.867 459.733, 1337.978 460, 1339.300 460 C 1340.387 460, 1341.011 459.189, 1341.032 457.750 C 1341.049 456.512, 1341.724 454.626, 1342.532 453.559 C 1343.395 452.418, 1344 449.429, 1344 446.309 C 1344 443.389, 1344.414 441, 1344.920 441 C 1345.427 441, 1346.156 437.962, 1346.542 434.250 C 1346.927 430.538, 1347.638 427.004, 1348.121 426.398 C 1348.604 425.791, 1349.294 422.416, 1349.653 418.898 C 1350.012 415.379, 1350.675 412.256, 1351.126 411.957 C 1351.578 411.659, 1352.249 408.171, 1352.617 404.207 C 1352.986 400.243, 1353.637 397, 1354.064 397 C 1354.491 397, 1355.156 393.962, 1355.542 390.250 C 1355.927 386.538, 1356.650 382.989, 1357.148 382.365 C 1357.646 381.741, 1358.332 378.253, 1358.671 374.615 C 1359.190 369.060, 1359.587 368, 1361.145 368 C 1362.529 368, 1363 368.743, 1363 370.929 C 1363 372.539, 1363.675 374.532, 1364.500 375.357 C 1365.608 376.465, 1366 379.177, 1366 385.737 C 1366 391.997, 1366.433 395.191, 1367.468 396.559 C 1368.466 397.878, 1368.949 401.064, 1368.974 406.500 C 1368.998 411.584, 1369.557 415.544, 1370.506 417.364 C 1371.457 419.188, 1372 423.051, 1372 428 C 1372 432.949, 1372.543 436.812, 1373.494 438.636 C 1374.442 440.454, 1374.990 444.331, 1374.994 449.250 C 1374.999 456.123, 1375.210 457, 1376.851 457 C 1378.531 457, 1378.618 456.518, 1377.797 451.750 C 1376.752 445.678, 1374.369 428.867, 1373.014 418 C 1372.500 413.875, 1371.616 407.800, 1371.049 404.500 C 1370.033 398.578, 1368.772 389.982, 1365.475 366.500 C 1363.590 353.073, 1362.520 348.655, 1361.723 351 M 3988.701 365.237 C 3985.174 379.122, 3983.239 387.664, 3982.468 392.750 C 3982.114 395.087, 3981.414 397, 3980.912 397 C 3980.410 397, 3980 399.870, 3980 403.378 C 3980 407.827, 3979.546 410.132, 3978.500 411 C 3977.459 411.864, 3977 414.160, 3977 418.500 C 3977 422.840, 3976.541 425.136, 3975.500 426 C 3974.502 426.828, 3974 429.070, 3974 432.694 C 3974 436.204, 3973.466 438.677, 3972.500 439.643 C 3971.509 440.634, 3971 443.126, 3971 446.988 C 3971 450.620, 3970.549 452.984, 3969.809 453.230 C 3969.101 453.466, 3968.443 456.437, 3968.185 460.564 C 3967.946 464.379, 3967.268 467.807, 3966.677 468.182 C 3966.087 468.556, 3965.412 471.931, 3965.177 475.682 C 3964.943 479.432, 3964.276 482.802, 3963.695 483.171 C 3963.114 483.539, 3962.437 486.689, 3962.191 490.171 C 3961.944 493.652, 3961.341 496.757, 3960.850 497.072 C 3960.359 497.387, 3959.674 500.762, 3959.327 504.572 C 3958.980 508.382, 3958.277 511.774, 3957.766 512.110 C 3957.254 512.445, 3956.588 515.595, 3956.285 519.110 C 3955.982 522.624, 3955.328 526.015, 3954.832 526.644 C 3954.337 527.273, 3953.660 530.198, 3953.328 533.144 C 3952.996 536.090, 3952.359 538.970, 3951.912 539.543 C 3951.464 540.117, 3950.789 543.605, 3950.411 547.293 C 3950.033 550.982, 3949.363 554, 3948.922 554 C 3948.482 554, 3947.810 557.160, 3947.429 561.022 C 3947.049 564.884, 3946.373 568.270, 3945.927 568.545 C 3945.481 568.821, 3944.807 572.186, 3944.429 576.023 C 3944.051 579.860, 3943.388 583, 3942.956 583 C 3942.524 583, 3941.852 586.399, 3941.463 590.554 L 3940.755 598.108 3937.627 597.804 C 3935.233 597.571, 3934.423 596.958, 3934.172 595.189 C 3933.992 593.918, 3933.205 592.632, 3932.422 592.332 C 3931.640 592.032, 3931 591.159, 3931 590.393 C 3931 589.627, 3930.575 589, 3930.055 589 C 3929.121 589, 3926.656 585.152, 3925.408 581.750 C 3925.055 580.788, 3924.144 580, 3923.383 580 C 3922.623 580, 3922 579.373, 3922 578.607 C 3922 577.841, 3921.325 576.955, 3920.500 576.638 C 3919.675 576.322, 3919 575.135, 3919 574 C 3919 572.865, 3918.325 571.678, 3917.500 571.362 C 3916.675 571.045, 3916 570.159, 3916 569.393 C 3916 568.627, 3915.325 568, 3914.500 568 C 3913.675 568, 3913 567.325, 3913 566.500 C 3913 565.675, 3912.363 565, 3911.583 565 C 3910.804 565, 3910.007 564.521, 3909.812 563.935 C 3909.617 563.350, 3907.442 562.609, 3904.978 562.289 C 3902.515 561.969, 3899.612 561.098, 3898.527 560.354 C 3896.051 558.654, 3889.989 558.650, 3883.500 560.344 L 3878.500 561.649 3889.591 562.292 C 3902.257 563.026, 3907.763 564.903, 3912.613 570.139 C 3915.274 573.012, 3923.994 584.664, 3929 592.036 C 3929.825 593.251, 3930.967 594.752, 3931.537 595.373 C 3932.108 595.993, 3933.576 598.136, 3934.799 600.136 C 3937.505 604.562, 3940.826 605.831, 3941.396 602.657 C 3941.609 601.471, 3942.527 596.900, 3943.437 592.500 C 3944.347 588.100, 3945.732 581.350, 3946.514 577.500 C 3947.986 570.251, 3949.977 560.581, 3952.484 548.500 C 3954.554 538.523, 3956.797 527.643, 3958.516 519.250 C 3959.332 515.263, 3960.668 508.738, 3961.484 504.750 C 3963.203 496.357, 3965.446 485.477, 3967.516 475.500 C 3969.698 464.985, 3971.655 455.408, 3973.444 446.500 C 3974.327 442.100, 3975.679 435.575, 3976.449 432 C 3977.219 428.425, 3978.550 422.011, 3979.409 417.746 C 3983.502 397.408, 3984.155 394.263, 3984.964 391 C 3985.442 389.075, 3986.133 385.475, 3986.500 383 C 3986.867 380.525, 3987.558 376.925, 3988.036 375 C 3990.433 365.334, 3992.251 355.918, 3991.807 355.473 C 3991.533 355.199, 3990.135 359.593, 3988.701 365.237 M 3339.250 406.928 C 3335.808 410.721, 3335.072 411.864, 3334.432 414.414 C 3334.075 415.836, 3333.418 417, 3332.971 417 C 3332.524 417, 3331.862 418.350, 3331.500 420 C 3331.138 421.650, 3330.463 423, 3330 423 C 3329.537 423, 3328.862 424.350, 3328.500 426 C 3328.138 427.650, 3327.427 429, 3326.921 429 C 3326.414 429, 3326 429.868, 3326 430.929 C 3326 431.989, 3325.401 433.456, 3324.669 434.188 C 3323.936 434.921, 3323.028 436.753, 3322.650 438.260 C 3322.271 439.767, 3321.520 441, 3320.981 441 C 3320.441 441, 3320 441.868, 3320 442.929 C 3320 443.989, 3319.401 445.456, 3318.669 446.188 C 3317.936 446.921, 3317.028 448.753, 3316.650 450.260 C 3316.271 451.767, 3315.520 453, 3314.981 453 C 3314.441 453, 3314 453.868, 3314 454.929 C 3314 455.989, 3313.325 457.532, 3312.500 458.357 C 3311.675 459.182, 3311 460.803, 3311 461.960 C 3311 463.117, 3310.325 464.322, 3309.500 464.638 C 3308.675 464.955, 3308 466.305, 3308 467.638 C 3308 468.972, 3307.325 470.322, 3306.500 470.638 C 3305.675 470.955, 3305 472.305, 3305 473.638 C 3305 474.972, 3304.325 476.322, 3303.500 476.638 C 3302.675 476.955, 3302 478.243, 3302 479.500 C 3302 480.757, 3301.325 482.045, 3300.500 482.362 C 3299.675 482.678, 3299 484.028, 3299 485.362 C 3299 486.695, 3298.325 488.045, 3297.500 488.362 C 3296.675 488.678, 3296 490.028, 3296 491.362 C 3296 492.695, 3295.325 494.045, 3294.500 494.362 C 3293.675 494.678, 3293 496.028, 3293 497.362 C 3293 498.695, 3292.325 500.045, 3291.500 500.362 C 3290.675 500.678, 3290 502.028, 3290 503.362 C 3290 504.695, 3289.325 506.045, 3288.500 506.362 C 3287.675 506.678, 3287 508.076, 3287 509.469 C 3287 510.861, 3286.559 512, 3286.019 512 C 3285.480 512, 3284.729 513.233, 3284.350 514.740 C 3283.972 516.247, 3283.064 518.079, 3282.331 518.812 C 3281.599 519.544, 3281 521.011, 3281 522.071 C 3281 523.132, 3280.559 524, 3280.019 524 C 3279.480 524, 3278.729 525.233, 3278.350 526.740 C 3277.972 528.247, 3277.064 530.079, 3276.331 530.812 C 3275.599 531.544, 3275 533.011, 3275 534.071 C 3275 535.132, 3274.559 536, 3274.019 536 C 3273.480 536, 3272.729 537.233, 3272.350 538.740 C 3271.972 540.247, 3271.064 542.079, 3270.331 542.812 C 3269.599 543.544, 3269 545.011, 3269 546.071 C 3269 547.132, 3268.636 548, 3268.191 548 C 3267.746 548, 3266.284 550.470, 3264.941 553.490 L 3262.500 558.980 3247.500 559.086 C 3238.817 559.147, 3230.394 559.738, 3227.500 560.488 C 3222.980 561.660, 3224.465 561.771, 3242.987 561.642 L 3263.473 561.500 3301.124 486.203 C 3321.832 444.790, 3339.569 410.029, 3340.539 408.957 C 3341.983 407.361, 3342.594 407.230, 3343.902 408.236 C 3344.895 409, 3344.778 408.620, 3343.595 407.233 C 3341.291 404.532, 3341.417 404.541, 3339.250 406.928 M 2413.743 444.479 C 2412.058 445.168, 2411.350 445.966, 2411.907 446.550 C 2412.775 447.458, 2469.808 584.740, 2470.732 588.144 C 2471.051 589.322, 2469.525 590.675, 2465.339 592.920 C 2445.881 603.359, 2429.661 624.331, 2423.902 646.500 C 2421.432 656.008, 2420.962 673.330, 2422.924 682.500 C 2430.274 716.837, 2458.663 743.613, 2494.434 749.949 C 2503.143 751.492, 2519.966 751.230, 2528.792 749.415 C 2560.898 742.811, 2586.223 720.233, 2595.997 689.500 C 2599.158 679.558, 2599.905 660.165, 2597.536 649.517 C 2596.590 645.264, 2596.195 641.458, 2596.658 641.058 C 2597.121 640.659, 2662.300 626.457, 2741.500 609.498 C 2820.700 592.540, 2886.216 578.481, 2887.091 578.257 C 2888.360 577.932, 2888.919 579.282, 2889.851 584.929 C 2891.990 597.878, 2898.397 611.825, 2907.440 623.217 C 2918.045 636.577, 2937.597 648.768, 2955.500 653.183 C 2968.092 656.288, 2986.905 656.299, 2999.301 653.208 C 3025.929 646.568, 3049.070 627.893, 3058.421 605.496 C 3060.027 601.648, 3062.253 597.181, 3063.368 595.569 C 3064.482 593.958, 3064.917 592.934, 3064.334 593.294 C 3063.662 593.709, 3063.783 591.857, 3064.665 588.224 C 3065.430 585.076, 3066.089 577.550, 3066.130 571.500 C 3066.284 548.684, 3058.849 530.003, 3043.103 513.638 C 3031.609 501.694, 3019.510 494.300, 3003.297 489.312 C 2995.201 486.821, 2993.145 486.606, 2977.500 486.606 C 2961.855 486.606, 2959.799 486.821, 2951.703 489.312 C 2935.143 494.407, 2923.205 501.789, 2911.360 514.258 C 2898.129 528.187, 2890.191 545.938, 2889.228 563.750 C 2888.953 568.837, 2888.493 573, 2888.206 573 C 2887.919 573, 2821.553 587.197, 2740.725 604.549 C 2659.897 621.901, 2593.705 635.963, 2593.632 635.799 C 2579.193 603.168, 2550.539 583.434, 2514.500 581.303 C 2504.766 580.728, 2491.047 582.610, 2481.512 585.829 L 2476.168 587.633 2449.908 524.066 C 2435.464 489.105, 2422.036 456.643, 2420.067 451.929 C 2416.487 443.360, 2416.486 443.358, 2413.743 444.479 M 2355.429 449.767 C 2355.429 450.766, 2334.300 529.984, 2308.477 625.808 C 2269.693 769.724, 2261.263 799.927, 2260.013 799.430 C 2249.464 795.231, 2225.699 794.466, 2211.623 797.874 C 2185.500 804.198, 2164.056 821.081, 2152.147 844.701 C 2146.355 856.189, 2144.519 864.805, 2144.519 880.500 C 2144.519 892.043, 2144.914 895.869, 2146.770 902.299 C 2151.167 917.535, 2158.798 929.860, 2170.768 941.059 C 2188.264 957.429, 2208.532 965.303, 2233 965.238 C 2268.650 965.142, 2298.965 946.423, 2313.548 915.500 C 2319.635 902.594, 2321.364 894.851, 2321.364 880.500 C 2321.364 866.149, 2319.635 858.406, 2313.548 845.500 C 2304.894 827.150, 2290.184 812.488, 2272.051 804.139 L 2266.320 801.500 2313.538 626.351 C 2339.509 530.019, 2361.063 450.706, 2361.438 450.101 C 2361.845 449.441, 2361.325 449, 2360.141 449 C 2359.053 449, 2357.548 448.764, 2356.796 448.475 C 2355.949 448.150, 2355.429 448.641, 2355.429 449.767 M 3340.043 516.253 C 3332.091 532.339, 3324.748 546.737, 3323.725 548.250 C 3322.701 549.763, 3322.232 550.986, 3322.682 550.968 C 3324.107 550.913, 3327 548.327, 3327 547.108 C 3327 546.464, 3327.675 545.678, 3328.500 545.362 C 3329.355 545.034, 3330 543.542, 3330 541.893 C 3330 539.988, 3330.512 539, 3331.500 539 C 3332.413 539, 3333 538.069, 3333 536.622 C 3333 535.315, 3333.675 533.685, 3334.500 533 C 3335.325 532.315, 3336 530.965, 3336 530 C 3336 529.035, 3336.675 527.685, 3337.500 527 C 3338.325 526.315, 3339 524.910, 3339 523.878 C 3339 522.845, 3339.441 522, 3339.981 522 C 3340.520 522, 3341.271 520.767, 3341.650 519.260 C 3342.028 517.753, 3342.936 515.921, 3343.669 515.188 C 3344.401 514.456, 3345 512.989, 3345 511.929 C 3345 510.868, 3345.414 510, 3345.921 510 C 3346.427 510, 3347.138 508.650, 3347.500 507 C 3347.862 505.350, 3348.537 504, 3349 504 C 3349.463 504, 3350.138 502.650, 3350.500 501 C 3350.862 499.350, 3351.537 498, 3352 498 C 3352.463 498, 3353.138 496.650, 3353.500 495 C 3353.936 493.017, 3354.771 492, 3355.966 492 C 3357.341 492, 3357.934 493.076, 3358.448 496.500 C 3358.819 498.975, 3359.545 501, 3360.061 501 C 3360.578 501, 3361 502.103, 3361 503.450 C 3361 504.798, 3361.607 506.260, 3362.348 506.700 C 3363.090 507.140, 3363.979 509.296, 3364.325 511.492 C 3364.670 513.688, 3365.413 515.638, 3365.976 515.825 C 3366.539 516.013, 3367 517.268, 3367 518.615 C 3367 519.961, 3367.675 521.322, 3368.500 521.638 C 3369.417 521.990, 3370 523.506, 3370 525.536 C 3370 527.362, 3370.675 529.532, 3371.500 530.357 C 3372.325 531.182, 3373 532.734, 3373 533.806 C 3373 534.878, 3373.675 536.315, 3374.500 537 C 3375.325 537.685, 3376 539.717, 3376 541.515 C 3376 543.500, 3376.590 545.012, 3377.500 545.362 C 3378.325 545.678, 3379 547.044, 3379 548.397 C 3379 549.750, 3379.675 551.532, 3380.500 552.357 C 3381.325 553.182, 3382 555.191, 3382 556.822 C 3382 558.534, 3382.633 560.029, 3383.500 560.362 C 3384.325 560.678, 3385 561.990, 3385 563.277 C 3385 564.565, 3385.661 566.491, 3386.468 567.559 C 3387.276 568.626, 3387.951 570.545, 3387.968 571.821 C 3387.986 573.098, 3388.675 574.818, 3389.500 575.643 C 3390.325 576.468, 3391 578.406, 3391 579.949 C 3391 581.492, 3391.675 583.315, 3392.500 584 C 3393.325 584.685, 3394 585.884, 3394 586.664 C 3394 588.199, 3397.706 592.629, 3398.403 591.927 C 3398.636 591.692, 3398.061 589.925, 3397.125 588 C 3396.190 586.075, 3394.359 581.575, 3393.057 578 C 3391.755 574.425, 3390.309 571.072, 3389.845 570.550 C 3389.380 570.027, 3388.997 568.902, 3388.994 568.050 C 3388.990 567.197, 3388.411 565.375, 3387.705 564 C 3387 562.625, 3385.595 559.250, 3384.585 556.500 C 3383.574 553.750, 3382.182 550.150, 3381.493 548.500 C 3380.803 546.850, 3379.261 543.025, 3378.066 540 C 3376.871 536.975, 3375.521 533.600, 3375.066 532.500 C 3374.611 531.400, 3373.554 528.700, 3372.717 526.500 C 3370.701 521.207, 3367.100 512.002, 3366.066 509.500 C 3365.611 508.400, 3364.555 505.700, 3363.719 503.500 C 3359.390 492.115, 3357.157 487.476, 3355.895 487.253 C 3354.975 487.089, 3349.580 496.959, 3340.043 516.253 M 673.921 490.332 C 673.055 490.974, 664.771 506.800, 655.514 525.500 C 646.256 544.200, 638.009 560.400, 637.187 561.500 C 636.365 562.600, 637.364 561.700, 639.405 559.500 C 644.364 554.157, 644.569 553.855, 645.356 550.716 C 645.731 549.222, 646.480 548, 647.019 548 C 647.559 548, 648 547.132, 648 546.071 C 648 545.011, 648.675 543.468, 649.500 542.643 C 650.325 541.818, 651 540.491, 651 539.694 C 651 538.897, 651.675 537.685, 652.500 537 C 653.325 536.315, 654 534.733, 654 533.485 C 654 532.236, 654.675 530.955, 655.500 530.638 C 656.325 530.322, 657 528.972, 657 527.638 C 657 526.305, 657.675 524.955, 658.500 524.638 C 659.325 524.322, 660 522.972, 660 521.638 C 660 520.305, 660.675 518.955, 661.500 518.638 C 662.325 518.322, 663 516.972, 663 515.638 C 663 514.305, 663.675 512.955, 664.500 512.638 C 665.325 512.322, 666 510.972, 666 509.638 C 666 508.305, 666.675 506.955, 667.500 506.638 C 668.325 506.322, 669 504.972, 669 503.638 C 669 502.305, 669.675 500.955, 670.500 500.638 C 671.325 500.322, 672 498.924, 672 497.531 C 672 493.703, 675.640 494.082, 676.500 498 C 676.862 499.650, 677.573 501, 678.079 501 C 678.586 501, 679.015 502.012, 679.034 503.250 C 679.053 504.488, 679.937 507.300, 681 509.500 C 682.063 511.700, 682.947 514.063, 682.966 514.750 C 682.985 515.438, 683.450 516, 684 516 C 684.550 516, 685.003 517.013, 685.006 518.250 C 685.010 519.487, 685.685 521.789, 686.506 523.364 C 687.328 524.940, 688 527.091, 688 528.146 C 688 529.200, 688.675 530.322, 689.500 530.638 C 690.343 530.962, 691 532.450, 691 534.036 C 691 535.587, 691.675 537.532, 692.500 538.357 C 693.325 539.182, 694 540.966, 694 542.322 C 694 543.677, 694.675 545.045, 695.500 545.362 C 696.325 545.678, 697 546.979, 697 548.253 C 697 549.770, 698.979 552.452, 702.745 556.034 C 706.053 559.182, 706.951 559.804, 704.862 557.500 C 701.274 553.543, 700.300 551.715, 696.066 541 C 694.871 537.975, 693.521 534.600, 693.066 533.500 C 692.611 532.400, 691.557 529.700, 690.723 527.500 C 689.889 525.300, 687.764 519.900, 686 515.500 C 684.236 511.100, 682.209 505.925, 681.494 504 C 680.063 500.148, 675.848 489.599, 675.632 489.332 C 675.558 489.239, 674.788 489.689, 673.921 490.332 M 4220.750 492.313 C 4218.688 494.113, 4217 496.369, 4217 497.325 C 4217 498.281, 4216.325 499.322, 4215.500 499.638 C 4214.675 499.955, 4214 500.841, 4214 501.607 C 4214 502.373, 4213.377 503, 4212.617 503 C 4211.856 503, 4210.945 503.788, 4210.592 504.750 C 4209.344 508.152, 4206.879 512, 4205.945 512 C 4205.425 512, 4205 512.627, 4205 513.393 C 4205 514.159, 4204.325 515.045, 4203.500 515.362 C 4202.675 515.678, 4202 516.626, 4202 517.469 C 4202 518.311, 4201.559 519, 4201.019 519 C 4200.480 519, 4199.756 520.125, 4199.411 521.500 C 4199.066 522.875, 4198.157 524, 4197.392 524 C 4196.626 524, 4196 524.675, 4196 525.500 C 4196 526.325, 4195.594 527, 4195.098 527 C 4194.602 527, 4193.725 528.350, 4193.150 530 C 4192.575 531.650, 4191.631 533, 4191.052 533 C 4190.473 533, 4190 533.511, 4190 534.135 C 4190 534.760, 4188.928 536.265, 4187.617 537.479 C 4186.306 538.694, 4184.952 540.546, 4184.608 541.594 C 4184.263 542.642, 4182.190 545.525, 4180 548 C 4177.810 550.475, 4175.759 553.288, 4175.442 554.250 C 4175.125 555.212, 4174.446 556, 4173.933 556 C 4173.420 556, 4173 556.627, 4173 557.393 C 4173 558.159, 4172.325 559.045, 4171.500 559.362 C 4170.675 559.678, 4170 560.611, 4170 561.434 C 4170 562.257, 4168.650 564.312, 4167 566 C 4165.350 567.688, 4164 569.455, 4164 569.927 C 4164 570.400, 4163.325 571.045, 4162.500 571.362 C 4161.675 571.678, 4161 572.611, 4161 573.434 C 4161 574.257, 4159.762 576.232, 4158.250 577.823 C 4155.083 581.153, 4153.398 583.568, 4152.022 586.750 C 4151.487 587.987, 4150.588 589, 4150.025 589 C 4149.461 589, 4149 589.675, 4149 590.500 C 4149 591.325, 4148.325 592, 4147.500 592 C 4146.675 592, 4146 592.884, 4146 593.966 C 4146 595.047, 4144.650 597.312, 4143 599 C 4141.350 600.688, 4140 602.455, 4140 602.927 C 4140 603.400, 4139.360 604.032, 4138.578 604.332 C 4137.795 604.632, 4137.008 605.913, 4136.828 607.179 C 4136.647 608.444, 4135.753 609.622, 4134.841 609.796 C 4133.452 610.060, 4133.074 608.837, 4132.527 602.306 C 4132.167 598.013, 4131.476 593.600, 4130.992 592.500 C 4130.507 591.400, 4129.813 586.337, 4129.449 581.250 C 4129.085 576.163, 4128.436 572, 4128.007 572 C 4127.577 572, 4127.048 568.858, 4126.831 565.018 C 4126.484 558.865, 4124.957 554.710, 4123.557 556.109 C 4123.296 556.371, 4123.714 560.166, 4124.487 564.543 C 4125.260 568.919, 4126.615 577.900, 4127.498 584.500 C 4130.471 606.716, 4131.867 614.804, 4132.827 615.383 C 4133.197 615.606, 4136.340 611.899, 4139.811 607.144 C 4143.281 602.390, 4151.685 590.850, 4158.486 581.500 C 4165.287 572.150, 4172.014 562.925, 4173.436 561 C 4186.549 543.241, 4197.411 528.327, 4201.426 522.569 C 4204.085 518.757, 4206.670 515.157, 4207.172 514.569 C 4210.667 510.473, 4225.864 489.004, 4225.256 489.019 C 4224.840 489.030, 4222.813 490.512, 4220.750 492.313 M 1540 496.357 C 1532.810 503.343, 1529 507.614, 1529 508.687 C 1529 509.164, 1527.650 511.032, 1526 512.839 C 1524.350 514.645, 1523 516.498, 1523 516.955 C 1523 517.412, 1522.325 518.045, 1521.500 518.362 C 1520.675 518.678, 1520 519.865, 1520 521 C 1520 522.135, 1519.325 523.322, 1518.500 523.638 C 1517.675 523.955, 1517 524.841, 1517 525.607 C 1517 526.373, 1516.325 527, 1515.500 527 C 1514.675 527, 1514 527.675, 1514 528.500 C 1514 529.325, 1513.550 530, 1513 530 C 1512.450 530, 1512 530.675, 1512 531.500 C 1512 532.325, 1511.100 533.900, 1510 535 C 1508.900 536.100, 1508 537.450, 1508 538 C 1508 538.550, 1507.539 539, 1506.975 539 C 1506.412 539, 1505.513 540.013, 1504.978 541.250 C 1503.512 544.641, 1501.746 547.244, 1499.250 549.695 C 1498.013 550.910, 1497 552.360, 1497 552.918 C 1497 553.475, 1495.719 555.241, 1494.154 556.842 C 1492.589 558.443, 1491.028 560.484, 1490.686 561.377 C 1490.343 562.269, 1489.599 563, 1489.031 563 C 1488.464 563, 1488 563.659, 1488 564.466 C 1488 565.272, 1486.650 567.312, 1485 569 C 1483.350 570.688, 1482 572.297, 1482 572.575 C 1482 573.363, 1477.590 579.460, 1476.750 579.833 C 1476.338 580.017, 1476 580.804, 1476 581.583 C 1476 582.362, 1475.325 583, 1474.500 583 C 1473.675 583, 1473 583.884, 1473 584.966 C 1473 586.047, 1471.650 588.312, 1470 590 C 1468.350 591.688, 1467 593.455, 1467 593.927 C 1467 594.400, 1466.325 595.045, 1465.500 595.362 C 1464.675 595.678, 1464 596.611, 1464 597.434 C 1464 598.257, 1462.650 600.312, 1461 602 C 1459.350 603.688, 1458 605.503, 1458 606.034 C 1458 606.566, 1457.594 607, 1457.098 607 C 1456.602 607, 1455.725 608.350, 1455.150 610 C 1454.575 611.650, 1453.448 613, 1452.645 613 C 1451.515 613, 1451.026 610.802, 1450.475 603.250 C 1450.084 597.888, 1449.413 593.050, 1448.984 592.500 C 1448.555 591.950, 1447.880 587.112, 1447.483 581.750 C 1447.087 576.388, 1446.432 572, 1446.029 572 C 1445.626 572, 1445.013 568.319, 1444.666 563.820 C 1444.099 556.467, 1443.175 554.072, 1440.884 554.015 C 1440.545 554.007, 1440.869 556.602, 1441.603 559.781 C 1442.338 562.961, 1443.381 569.149, 1443.922 573.531 C 1445.113 583.185, 1446.690 594.412, 1447.993 602.500 C 1448.524 605.800, 1449.247 610.657, 1449.599 613.293 C 1449.985 616.177, 1450.690 617.942, 1451.370 617.724 C 1452.552 617.344, 1463.292 603.071, 1488.500 568.382 C 1496.750 557.029, 1509.135 540.036, 1516.022 530.620 C 1522.910 521.204, 1529.291 512.326, 1530.204 510.890 C 1531.116 509.455, 1532.462 507.655, 1533.194 506.890 C 1533.927 506.126, 1535.366 504.189, 1536.393 502.586 C 1537.420 500.984, 1540.059 497.721, 1542.258 495.336 C 1547.716 489.414, 1546.648 489.897, 1540 496.357 M 729.293 494.500 C 731.273 498.984, 733.086 503.323, 734.934 508 C 736.129 511.025, 737.479 514.400, 737.934 515.500 C 738.389 516.600, 739.446 519.300, 740.283 521.500 C 742.299 526.793, 745.900 535.998, 746.934 538.500 C 747.389 539.600, 748.436 542.300, 749.262 544.500 C 750.088 546.700, 752.303 552.100, 754.185 556.500 L 757.606 564.500 802.553 564.629 C 842.594 564.745, 846.681 564.615, 840 563.442 C 834.750 562.521, 821.347 562.107, 795.329 562.063 L 758.159 562 757.500 559 C 757.138 557.350, 756.484 556, 756.048 556 C 755.612 556, 754.968 554.200, 754.616 552 C 754.264 549.800, 753.532 548, 752.988 548 C 752.445 548, 752 546.930, 752 545.622 C 752 544.315, 751.325 542.685, 750.500 542 C 749.675 541.315, 749 539.492, 749 537.949 C 749 536.406, 748.325 534.468, 747.500 533.643 C 746.675 532.818, 746 531.072, 746 529.763 C 746 528.453, 745.339 526.509, 744.532 525.441 C 743.724 524.374, 743.049 522.473, 743.032 521.219 C 743.014 519.964, 742.325 518.678, 741.500 518.362 C 740.675 518.045, 740 516.666, 740 515.297 C 740 513.113, 738.925 510.431, 735.873 505 C 735.409 504.175, 734.396 502.150, 733.622 500.500 C 732.358 497.808, 728.223 492.076, 729.293 494.500 M 603.655 518.829 C 602.745 519.835, 602 521.136, 602 521.722 C 602 522.307, 601.325 523.045, 600.500 523.362 C 599.675 523.678, 599 524.626, 599 525.469 C 599 526.311, 598.586 527, 598.079 527 C 597.573 527, 596.862 528.350, 596.500 530 C 596.138 531.650, 595.427 533, 594.921 533 C 594.414 533, 594 533.868, 594 534.929 C 594 535.989, 593.325 537.532, 592.500 538.357 C 591.675 539.182, 591 540.532, 591 541.357 C 591 542.182, 590.401 543.456, 589.669 544.188 C 588.936 544.921, 588.028 546.753, 587.650 548.260 C 587.271 549.767, 586.520 551, 585.981 551 C 585.441 551, 585 551.868, 585 552.929 C 585 553.989, 584.374 555.484, 583.608 556.249 C 582.842 557.015, 582.049 558.510, 581.846 559.571 C 581.493 561.408, 580.021 561.533, 550.988 562.188 C 505.903 563.204, 503.493 564.721, 546.719 564.875 L 581.937 565 593.897 541 C 600.475 527.800, 605.734 517, 605.584 517 C 605.433 517, 604.565 517.823, 603.655 518.829 M 3421 517.311 C 3421 517.653, 3421.637 519.410, 3422.415 521.216 C 3423.193 523.022, 3424.792 526.975, 3425.969 530 C 3428.755 537.167, 3429.398 538.749, 3431.361 543.284 C 3432.263 545.365, 3433 547.501, 3433 548.031 C 3433 548.561, 3434.383 551.921, 3436.072 555.497 L 3439.145 562 3462.322 561.937 C 3480.483 561.887, 3484.959 561.627, 3483 560.735 C 3481.541 560.071, 3471.965 559.369, 3460 559.049 C 3439.691 558.505, 3439.497 558.479, 3439.180 556.250 C 3439.005 555.013, 3438.442 554, 3437.930 554 C 3437.419 554, 3437 553.132, 3437 552.071 C 3437 551.011, 3436.402 549.544, 3435.670 548.813 C 3434.939 548.081, 3434.049 545.690, 3433.694 543.499 C 3433.338 541.308, 3432.587 539.362, 3432.024 539.175 C 3431.461 538.987, 3431 538.071, 3431 537.139 C 3431 536.207, 3430.389 534.557, 3429.642 533.473 C 3428.895 532.388, 3427.975 529.813, 3427.597 527.750 C 3427.219 525.688, 3426.480 524, 3425.955 524 C 3425.430 524, 3425 523.170, 3425 522.155 C 3425 521.140, 3424.100 519.495, 3423 518.500 C 3421.900 517.505, 3421 516.970, 3421 517.311 M 1277.446 524.250 C 1273.032 529.120, 1272.029 531.418, 1271.331 538.263 C 1270.981 541.693, 1270.316 544.750, 1269.852 545.056 C 1269.389 545.362, 1268.721 548.512, 1268.368 552.056 C 1268.014 555.600, 1267.337 558.996, 1266.863 559.602 C 1266.388 560.209, 1265.706 563.584, 1265.347 567.102 C 1264.988 570.621, 1264.316 573.750, 1263.852 574.056 C 1263.389 574.362, 1262.721 577.512, 1262.368 581.056 C 1262.014 584.600, 1261.337 587.996, 1260.863 588.602 C 1260.388 589.209, 1259.711 592.471, 1259.358 595.852 C 1258.835 600.854, 1258.381 602, 1256.925 602 C 1255.940 602, 1254.849 601.100, 1254.500 600 C 1254.151 598.900, 1253.446 598, 1252.933 598 C 1252.420 598, 1252 597.325, 1252 596.500 C 1252 595.675, 1251.325 595, 1250.500 595 C 1249.675 595, 1249 594.373, 1249 593.607 C 1249 592.841, 1248.325 591.955, 1247.500 591.638 C 1246.675 591.322, 1246 590.135, 1246 589 C 1246 587.865, 1245.325 586.678, 1244.500 586.362 C 1243.675 586.045, 1243 585.159, 1243 584.393 C 1243 583.627, 1242.575 583, 1242.055 583 C 1241.121 583, 1238.656 579.152, 1237.408 575.750 C 1237.055 574.788, 1236.144 574, 1235.383 574 C 1234.623 574, 1234 573.325, 1234 572.500 C 1234 571.675, 1233.325 571, 1232.500 571 C 1231.675 571, 1231 570.325, 1231 569.500 C 1231 568.675, 1230.373 568, 1229.607 568 C 1228.841 568, 1227.955 567.325, 1227.638 566.500 C 1227.258 565.510, 1225.692 565, 1223.031 565 C 1220.814 565, 1219 564.550, 1219 564 C 1219 562.899, 1212.216 562.849, 1207.500 563.915 C 1205.172 564.441, 1206.239 564.748, 1212.268 565.285 C 1224.013 566.332, 1230.075 570.148, 1237.602 581.234 C 1244.156 590.885, 1254.381 604.614, 1256.230 606.245 C 1258.557 608.297, 1260 607.727, 1260 604.755 C 1260 603.585, 1260.621 599.899, 1261.379 596.564 C 1262.138 593.229, 1263.481 587.011, 1264.364 582.746 C 1267.954 565.408, 1269.032 560.141, 1270.555 552.500 C 1271.433 548.100, 1272.792 541.919, 1273.575 538.765 C 1274.359 535.611, 1275 531.807, 1275 530.313 C 1275 528.611, 1276.194 526.363, 1278.196 524.298 C 1279.954 522.484, 1281.167 521, 1280.892 521 C 1280.617 521, 1279.067 522.462, 1277.446 524.250 M 1627.096 528.500 C 1627.327 529.050, 1629.159 532.650, 1631.167 536.500 C 1633.175 540.350, 1637.258 548.225, 1640.240 554 L 1645.663 564.500 1665.581 564.642 C 1683.640 564.772, 1685.033 564.664, 1680.500 563.488 C 1677.647 562.749, 1669.272 562.146, 1661 562.086 L 1646.500 561.980 1644.059 556.490 C 1642.716 553.470, 1641.254 551, 1640.809 551 C 1640.364 551, 1640 550.132, 1640 549.071 C 1640 548.011, 1639.325 546.468, 1638.500 545.643 C 1637.675 544.818, 1637 543.233, 1637 542.121 C 1637 541.009, 1636.438 539.740, 1635.750 539.300 C 1634.384 538.426, 1632.500 535.652, 1631.102 532.459 C 1630.610 531.336, 1629.413 529.761, 1628.442 528.959 C 1627.470 528.157, 1626.864 527.950, 1627.096 528.500 M 4251.523 535.288 C 4238.604 553.565, 4239.245 552.855, 4235.267 553.271 C 4232.147 553.596, 4232.402 553.693, 4236.750 553.832 C 4240.651 553.957, 4242 553.642, 4242 552.607 C 4242 551.841, 4242.675 550.955, 4243.500 550.638 C 4244.325 550.322, 4245 549.580, 4245 548.989 C 4245 547.918, 4245.945 546.571, 4249.250 542.928 C 4250.212 541.868, 4251 540.756, 4251 540.458 C 4251 540.160, 4251.875 538.977, 4252.944 537.830 C 4255.305 535.296, 4257.709 535.990, 4258.579 539.457 C 4258.930 540.856, 4259.582 542, 4260.029 542 C 4260.476 542, 4261.138 543.350, 4261.500 545 C 4261.862 546.650, 4262.537 548, 4263 548 C 4263.463 548, 4264.138 549.350, 4264.500 551 C 4264.862 552.650, 4265.524 554, 4265.971 554 C 4266.418 554, 4267.093 555.233, 4267.471 556.740 C 4267.849 558.247, 4268.461 559.709, 4268.830 559.990 C 4269.200 560.270, 4270.540 562.627, 4271.810 565.227 C 4273.079 567.827, 4274.541 570.216, 4275.059 570.536 C 4275.576 570.856, 4276 571.943, 4276 572.952 C 4276 573.961, 4276.675 575.045, 4277.500 575.362 C 4278.325 575.678, 4279 576.782, 4279 577.814 C 4279 578.846, 4279.900 580.505, 4281 581.500 C 4284.098 584.304, 4283.432 581.720, 4278.882 573.281 C 4276.617 569.080, 4270.995 558.214, 4266.389 549.135 C 4258.929 534.432, 4256.752 530.974, 4255 531.053 C 4254.725 531.066, 4253.160 532.971, 4251.523 535.288 M 1571.702 536.390 C 1570.491 537.705, 1566.575 542.893, 1563 547.918 C 1559.425 552.944, 1551.662 563.627, 1545.750 571.659 C 1539.838 579.691, 1535.009 586.541, 1535.020 586.881 C 1535.052 587.908, 1545 577.048, 1545 575.985 C 1545 575.443, 1545.675 575, 1546.500 575 C 1547.325 575, 1548 574.325, 1548 573.500 C 1548 572.675, 1548.406 572, 1548.902 572 C 1549.398 572, 1550.275 570.650, 1550.850 569 C 1551.425 567.350, 1552.369 566, 1552.948 566 C 1553.527 566, 1554 565.373, 1554 564.607 C 1554 563.841, 1554.675 562.955, 1555.500 562.638 C 1556.325 562.322, 1557 561.374, 1557 560.531 C 1557 559.689, 1557.441 559, 1557.981 559 C 1558.520 559, 1559.244 557.875, 1559.589 556.500 C 1559.934 555.125, 1560.843 554, 1561.608 554 C 1562.374 554, 1563 553.325, 1563 552.500 C 1563 551.675, 1563.401 551, 1563.892 551 C 1564.382 551, 1565.054 549.987, 1565.384 548.750 C 1566.145 545.904, 1572.163 539, 1573.883 539 C 1575.760 539, 1578.928 543.140, 1578.967 545.643 C 1578.985 546.822, 1579.675 548.045, 1580.500 548.362 C 1581.325 548.678, 1582 550.028, 1582 551.362 C 1582 552.695, 1582.675 554.045, 1583.500 554.362 C 1584.325 554.678, 1585 556.028, 1585 557.362 C 1585 558.695, 1585.675 560.045, 1586.500 560.362 C 1587.325 560.678, 1588 561.803, 1588 562.862 C 1588 563.920, 1588.739 565.070, 1589.643 565.417 C 1591.761 566.229, 1592.572 565.403, 1591.254 563.774 C 1590.686 563.073, 1586.973 556.087, 1583.002 548.250 C 1579.032 540.413, 1575.360 534, 1574.844 534 C 1574.327 534, 1572.913 535.076, 1571.702 536.390 M 4317.167 543.756 C 4318.634 545.516, 4321.049 549.554, 4322.534 552.728 C 4326.833 561.918, 4326.972 562.004, 4337.405 561.970 C 4344.672 561.945, 4346.107 561.711, 4344.547 560.806 C 4343.473 560.183, 4339.322 559.464, 4335.323 559.207 C 4329.004 558.801, 4327.966 558.463, 4327.391 556.620 C 4327.028 555.454, 4326.454 554.275, 4326.115 554 C 4325.777 553.725, 4324.695 551.911, 4323.710 549.968 C 4322.726 548.026, 4320.251 545.113, 4318.210 543.497 L 4314.500 540.557 4317.167 543.756 M 3661.861 543.744 C 3661.058 544.710, 3659.523 547.300, 3658.450 549.500 C 3657.378 551.700, 3656.198 553.730, 3655.829 554.010 C 3655.460 554.291, 3654.849 555.753, 3654.471 557.260 C 3654.093 558.767, 3653.382 560, 3652.892 560 C 3652.401 560, 3652 560.794, 3652 561.765 C 3652 562.735, 3651.100 565.209, 3650 567.261 C 3648.900 569.314, 3648 571.669, 3648 572.496 C 3648 573.323, 3647.586 574, 3647.079 574 C 3646.573 574, 3645.862 575.350, 3645.500 577 C 3645.138 578.650, 3644.463 580, 3644 580 C 3643.537 580, 3642.862 581.350, 3642.500 583 C 3642.138 584.650, 3641.427 586, 3640.921 586 C 3640.414 586, 3640 586.868, 3640 587.929 C 3640 588.989, 3639.401 590.456, 3638.669 591.188 C 3637.936 591.921, 3637.028 593.753, 3636.650 595.260 C 3636.271 596.767, 3635.520 598, 3634.981 598 C 3634.441 598, 3634 599.070, 3634 600.378 C 3634 601.685, 3633.325 603.315, 3632.500 604 C 3631.675 604.685, 3630.985 605.977, 3630.966 606.872 C 3630.947 607.768, 3630.063 610.300, 3629 612.500 C 3627.937 614.700, 3627.053 617.063, 3627.034 617.750 C 3627.015 618.438, 3626.599 619, 3626.108 619 C 3625.618 619, 3624.927 620.155, 3624.573 621.566 C 3623.776 624.740, 3620.647 624.507, 3620.180 621.240 C 3620.005 620.008, 3619.478 619, 3619.010 619 C 3618.542 619, 3617.862 617.650, 3617.500 616 C 3617.138 614.350, 3616.463 613, 3616 613 C 3615.537 613, 3614.862 611.650, 3614.500 610 C 3614.138 608.350, 3613.463 607, 3613 607 C 3612.537 607, 3611.862 605.650, 3611.500 604 C 3611.138 602.350, 3610.463 601, 3610 601 C 3609.537 601, 3608.862 599.650, 3608.500 598 C 3608.138 596.350, 3607.463 595, 3607 595 C 3606.537 595, 3605.862 593.650, 3605.500 592 C 3605.138 590.350, 3604.463 589, 3604 589 C 3603.537 589, 3602.884 587.750, 3602.549 586.221 C 3602.011 583.773, 3597.974 579.784, 3598.016 581.742 C 3598.025 582.159, 3601.324 589.025, 3605.347 597 C 3620.565 627.170, 3621.040 628, 3623.068 628 C 3624.131 628, 3625 627.560, 3625 627.022 C 3625 626.043, 3628.454 618.370, 3636.488 601.500 C 3638.846 596.550, 3642.176 589.462, 3643.887 585.750 C 3651.532 569.171, 3653.566 564.822, 3658.670 554.133 C 3663.951 543.074, 3664.849 540.149, 3661.861 543.744 M 979.661 547.823 C 978.747 548.832, 978 550.185, 978 550.829 C 978 551.473, 977.570 552, 977.045 552 C 976.520 552, 975.795 553.575, 975.434 555.500 C 975.073 557.425, 974.413 559, 973.968 559 C 973.523 559, 972.862 560.350, 972.500 562 C 972.138 563.650, 971.463 565, 971 565 C 970.537 565, 969.862 566.350, 969.500 568 C 969.138 569.650, 968.427 571, 967.921 571 C 967.414 571, 967 571.868, 967 572.929 C 967 573.989, 966.401 575.456, 965.669 576.188 C 964.936 576.921, 964.028 578.753, 963.650 580.260 C 963.271 581.767, 962.520 583, 961.981 583 C 961.441 583, 961 584.070, 961 585.378 C 961 586.685, 960.325 588.315, 959.500 589 C 958.675 589.685, 958 590.984, 958 591.887 C 958 592.791, 957.100 595.209, 956 597.261 C 954.900 599.314, 954 601.669, 954 602.496 C 954 603.323, 953.586 604, 953.079 604 C 952.573 604, 951.862 605.350, 951.500 607 C 951.138 608.650, 950.463 610, 950 610 C 949.537 610, 948.862 611.350, 948.500 613 C 948.138 614.650, 947.427 616, 946.921 616 C 946.414 616, 946 616.868, 946 617.929 C 946 618.989, 945.325 620.532, 944.500 621.357 C 943.675 622.182, 943 623.371, 943 623.998 C 943 624.626, 941.987 624.995, 940.750 624.820 C 939.223 624.603, 938.389 623.696, 938.154 622 C 937.963 620.625, 937.176 619.140, 936.404 618.700 C 935.632 618.260, 935 616.846, 935 615.557 C 935 614.268, 934.325 612.955, 933.500 612.638 C 932.675 612.322, 932 610.972, 932 609.638 C 932 608.305, 931.325 606.955, 930.500 606.638 C 929.675 606.322, 929 605.204, 929 604.154 C 929 603.104, 928.325 601.685, 927.500 601 C 926.675 600.315, 926 598.965, 926 598 C 926 597.035, 925.325 595.685, 924.500 595 C 923.675 594.315, 923 592.948, 923 591.961 C 923 590.974, 922.639 590.017, 922.199 589.833 C 921.758 589.650, 919.699 586.135, 917.623 582.022 C 915.547 577.909, 912.452 573.296, 910.744 571.772 C 907.671 569.028, 907.512 569.002, 895.070 569.189 L 882.500 569.379 894.650 569.939 C 904.444 570.391, 907.187 570.851, 908.796 572.311 C 910.794 574.124, 912.827 577.884, 929.980 611.497 C 939.062 629.292, 940.649 632.025, 941.872 631.974 C 942.218 631.960, 943.255 630.273, 944.178 628.224 C 947.641 620.538, 953.327 608.218, 957.205 600 C 964.940 583.607, 967.831 577.441, 971.033 570.500 C 972.809 566.650, 976.025 559.734, 978.178 555.130 C 982.189 546.559, 982.588 544.587, 979.661 547.823 M 3758.952 555.183 C 3761.316 561.875, 3761.589 562.011, 3772.491 561.881 L 3782.500 561.762 3776 560.427 C 3772.425 559.694, 3768.183 559.072, 3766.573 559.047 C 3764.551 559.014, 3762.773 557.995, 3760.825 555.750 C 3758.086 552.594, 3758.032 552.578, 3758.952 555.183 M 1077.928 559.206 L 1080.850 564.500 1090.175 564.652 L 1099.500 564.804 1094.500 563.498 C 1091.750 562.780, 1087.636 562.149, 1085.358 562.096 C 1081.952 562.017, 1081.109 561.600, 1080.607 559.750 C 1080.272 558.513, 1078.874 556.693, 1077.502 555.706 L 1075.006 553.911 1077.928 559.206 M 3707.250 564.662 C 3706.563 564.940, 3706 565.571, 3706 566.066 C 3706 566.561, 3703.921 571.361, 3701.381 576.733 C 3688.316 604.357, 3688.637 603.544, 3692 600.500 C 3693.100 599.505, 3694 598.071, 3694 597.314 C 3694 596.557, 3694.675 595.678, 3695.500 595.362 C 3696.325 595.045, 3697 593.809, 3697 592.616 C 3697 591.422, 3697.608 589.557, 3698.351 588.473 C 3699.094 587.388, 3700.002 585.263, 3700.370 583.750 C 3700.737 582.237, 3701.480 581, 3702.019 581 C 3702.559 581, 3703 579.897, 3703 578.550 C 3703 577.202, 3703.632 575.740, 3704.404 575.300 C 3705.176 574.860, 3705.963 573.380, 3706.154 572.010 C 3706.683 568.201, 3709.878 568.140, 3710.635 571.925 C 3710.973 573.616, 3711.608 575, 3712.046 575 C 3712.483 575, 3713.138 576.350, 3713.500 578 C 3713.862 579.650, 3714.537 581, 3715 581 C 3715.463 581, 3716.138 582.350, 3716.500 584 C 3716.862 585.650, 3717.573 587, 3718.079 587 C 3718.586 587, 3719 587.868, 3719 588.929 C 3719 590.972, 3721.469 594, 3723.135 594 C 3723.681 594, 3723.233 592.313, 3722.140 590.250 C 3719.395 585.073, 3712.349 570.090, 3711.088 566.750 C 3710.046 563.990, 3709.565 563.728, 3707.250 564.662 M 1026.228 567.250 C 1025.267 568.431, 1017.928 583.560, 1013.009 594.500 C 1011.773 597.250, 1010.307 600.400, 1009.751 601.500 C 1009.029 602.929, 1009.635 602.661, 1011.870 600.563 C 1013.592 598.948, 1015 596.865, 1015 595.935 C 1015 595.006, 1015.675 593.685, 1016.500 593 C 1017.325 592.315, 1018 590.733, 1018 589.485 C 1018 588.236, 1018.675 586.955, 1019.500 586.638 C 1020.325 586.322, 1021 585.117, 1021 583.960 C 1021 582.803, 1021.675 581.182, 1022.500 580.357 C 1023.325 579.532, 1024 577.957, 1024 576.857 C 1024 574.842, 1026.156 571.997, 1027.679 572.004 C 1028.130 572.006, 1029.319 574.143, 1030.320 576.754 C 1031.322 579.364, 1032.562 582.175, 1033.077 583 C 1033.592 583.825, 1034.268 585.175, 1034.580 586 C 1035.979 589.697, 1037.989 592.526, 1039.427 592.822 C 1040.831 593.112, 1040.838 592.858, 1039.489 590.322 C 1038.663 588.770, 1035.727 582.663, 1032.964 576.750 C 1030.200 570.837, 1027.783 566, 1027.592 566 C 1027.401 566, 1026.787 566.563, 1026.228 567.250 M 3511.500 612.030 C 3517.683 613.464, 3523.676 613.898, 3537.883 613.943 C 3555.419 613.997, 3556.351 614.099, 3558.133 616.153 C 3559.160 617.337, 3560 619.137, 3560 620.153 C 3560 621.169, 3560.441 622, 3560.981 622 C 3561.520 622, 3562.271 623.233, 3562.650 624.740 C 3563.028 626.247, 3563.936 628.079, 3564.669 628.812 C 3565.401 629.544, 3566 631.011, 3566 632.071 C 3566 633.132, 3566.441 634, 3566.981 634 C 3567.520 634, 3568.271 635.233, 3568.650 636.740 C 3569.028 638.247, 3569.936 640.079, 3570.669 640.812 C 3571.401 641.544, 3572 642.973, 3572 643.988 C 3572 645.003, 3572.368 645.983, 3572.818 646.167 C 3573.268 646.350, 3575.405 650.100, 3577.567 654.500 C 3579.730 658.900, 3581.724 662.725, 3582 663 C 3582.276 663.275, 3583.543 665.525, 3584.815 668 C 3586.087 670.475, 3588.655 675.200, 3590.520 678.500 C 3592.386 681.800, 3594.336 685.418, 3594.852 686.541 C 3595.928 688.878, 3599 691.696, 3599 690.345 C 3599 689.850, 3598.387 688.557, 3597.637 687.473 C 3596.559 685.913, 3582.385 658.342, 3560.247 614.745 C 3559.478 613.229, 3558.012 611.542, 3556.990 610.995 C 3555.883 610.402, 3544.697 610.035, 3529.316 610.087 L 3503.500 610.174 3511.500 612.030 M 3834 612.028 C 3840.530 613.432, 3847.106 613.873, 3862.368 613.928 L 3882.237 614 3885.129 617.250 C 3886.720 619.038, 3888.290 621.513, 3888.619 622.750 C 3888.948 623.987, 3889.618 625, 3890.108 625 C 3890.599 625, 3891 625.675, 3891 626.500 C 3891 627.325, 3891.675 628, 3892.500 628 C 3893.325 628, 3894 628.627, 3894 629.393 C 3894 630.159, 3894.675 631.045, 3895.500 631.362 C 3896.325 631.678, 3897 632.672, 3897 633.570 C 3897 635.203, 3906.001 645.332, 3906.769 644.564 C 3907.168 644.165, 3903.634 638.784, 3901.337 636.293 C 3900.698 635.599, 3898.131 631.987, 3895.634 628.266 C 3893.136 624.545, 3889.040 618.913, 3886.532 615.750 L 3881.971 610 3853.735 610.100 L 3825.500 610.200 3834 612.028 M 848 614.250 C 849.925 614.825, 856.225 615.460, 862 615.661 C 874.457 616.095, 877 616.568, 877 618.448 C 877 619.223, 877.599 620.456, 878.331 621.188 C 879.064 621.921, 879.972 623.753, 880.350 625.260 C 880.729 626.767, 881.480 628, 882.019 628 C 882.559 628, 883 628.897, 883 629.993 C 883 631.088, 885.587 634.600, 888.750 637.795 C 891.913 640.991, 893.273 642.221, 891.774 640.530 C 890.275 638.838, 886.532 632.515, 883.457 626.477 C 880.382 620.440, 877.135 614.938, 876.242 614.250 C 875.093 613.366, 870.211 613.030, 859.559 613.102 C 847.403 613.185, 845.175 613.406, 848 614.250 M 1164 614.227 C 1166.475 614.764, 1175.453 615.415, 1183.951 615.675 L 1199.402 616.147 1202.567 619.502 C 1204.307 621.348, 1206.003 623.565, 1206.334 624.429 C 1206.666 625.293, 1207.401 626, 1207.969 626 C 1208.536 626, 1209 626.776, 1209 627.725 C 1209 629.466, 1214.807 635.271, 1218.500 637.222 C 1220.084 638.059, 1219.980 637.749, 1218 635.733 C 1214.564 632.235, 1213.795 631.231, 1207.897 622.539 C 1205.057 618.353, 1201.923 614.494, 1200.932 613.964 C 1199.926 613.425, 1190.385 613.055, 1179.316 613.125 C 1163.788 613.223, 1160.474 613.462, 1164 614.227 M 1411.206 682.125 C 1410.909 693.136, 1411.640 695.497, 1417.076 701.078 C 1422.221 706.361, 1425.691 707.357, 1428.128 704.250 C 1429.379 702.655, 1429.342 702.624, 1427.706 703.909 C 1426.119 705.156, 1425.433 704.980, 1421.737 702.383 C 1419.440 700.769, 1416.334 697.660, 1414.835 695.474 C 1412.497 692.066, 1412.059 690.290, 1411.760 683 L 1411.411 674.500 1411.206 682.125 M 424.500 972.634 C 325.770 979.221, 236.093 1014.777, 161.652 1076.853 C 149.290 1087.162, 124.831 1111.144, 113.569 1124 C 85.780 1155.720, 66.073 1185.012, 47.557 1222.119 C 17.064 1283.227, 1.976 1344.192, 0.316 1413 C -2.122 1514.099, 26.738 1607.980, 84.854 1688 C 108.390 1720.407, 143.827 1756.761, 176.500 1782.019 C 235.847 1827.898, 312.007 1860.345, 383.250 1870.104 C 391.693 1871.261, 392 1871.394, 392.010 1873.902 C 392.067 1888.291, 396.075 1914.087, 400.516 1928.645 C 418.180 1986.555, 469.564 2030.041, 536.153 2043.432 C 559.027 2048.032, 562.322 2048.229, 624.250 2048.710 L 684 2049.174 684 1996.655 L 684 1944.136 628.750 1943.758 C 574.750 1943.389, 573.308 1943.328, 565 1941.070 C 533.978 1932.639, 514.684 1912.595, 510.065 1884 C 509.488 1880.425, 509.012 1876.144, 509.008 1874.487 L 509 1871.473 525.750 1868.661 C 597.406 1856.627, 668.508 1825.508, 727 1780.580 C 757.957 1756.802, 792.992 1721.024, 816.749 1688.928 C 865.891 1622.538, 893.578 1547.088, 900.061 1461.899 C 901.840 1438.527, 900.799 1388.929, 898.096 1368.176 C 884.771 1265.906, 840.546 1175.768, 768.025 1103.074 C 695.752 1030.628, 601.954 985.813, 498.890 974.488 C 485.068 972.969, 437.316 971.779, 424.500 972.634 M 3984.500 972.634 C 3885.770 979.221, 3796.093 1014.777, 3721.652 1076.853 C 3709.290 1087.162, 3684.831 1111.144, 3673.569 1124 C 3645.780 1155.720, 3626.073 1185.012, 3607.557 1222.119 C 3577.064 1283.227, 3561.976 1344.192, 3560.316 1413 C 3557.878 1514.099, 3586.738 1607.980, 3644.854 1688 C 3668.390 1720.407, 3703.827 1756.761, 3736.500 1782.019 C 3795.847 1827.898, 3872.007 1860.345, 3943.250 1870.104 C 3951.693 1871.261, 3952 1871.394, 3952.010 1873.902 C 3952.067 1888.291, 3956.075 1914.087, 3960.516 1928.645 C 3978.180 1986.555, 4029.564 2030.041, 4096.153 2043.432 C 4119.027 2048.032, 4122.322 2048.229, 4184.250 2048.710 L 4244 2049.174 4244 1996.655 L 4244 1944.136 4188.750 1943.758 C 4134.750 1943.389, 4133.308 1943.328, 4125 1941.070 C 4093.978 1932.639, 4074.684 1912.595, 4070.065 1884 C 4069.488 1880.425, 4069.012 1876.144, 4069.008 1874.487 L 4069 1871.473 4085.750 1868.661 C 4157.406 1856.627, 4228.508 1825.508, 4287 1780.580 C 4317.957 1756.802, 4352.992 1721.024, 4376.749 1688.928 C 4425.891 1622.538, 4453.578 1547.088, 4460.061 1461.899 C 4461.840 1438.527, 4460.799 1388.929, 4458.096 1368.176 C 4444.771 1265.906, 4400.546 1175.768, 4328.025 1103.074 C 4255.752 1030.628, 4161.954 985.813, 4058.890 974.488 C 4045.068 972.969, 3997.316 971.779, 3984.500 972.634 M 423 1078.086 C 293.745 1091.087, 184.930 1179.229, 141.073 1306.452 C 127.142 1346.863, 121.649 1380.196, 121.618 1424.500 C 121.595 1458.327, 124.144 1481.578, 131.101 1511 C 153.845 1607.185, 219.181 1691.403, 304.500 1734.511 C 329.683 1747.235, 359.672 1757.552, 388.742 1763.493 L 391.984 1764.155 392.242 1706.828 L 392.500 1649.500 450.750 1649.242 L 509 1648.984 509 1706.537 L 509 1764.091 512.750 1763.422 C 514.813 1763.054, 522.715 1761.207, 530.311 1759.317 C 596.865 1742.761, 653.686 1706.208, 699.467 1650.500 C 743.184 1597.302, 769.013 1537.351, 777.678 1468.965 C 779.869 1451.675, 780.157 1400.888, 778.158 1384.500 C 769.702 1315.197, 743.746 1252.663, 701.368 1199.500 C 690.173 1185.455, 664.690 1159.954, 650.500 1148.595 C 617.431 1122.123, 575.602 1100.253, 536.346 1088.909 C 523.237 1085.121, 506.082 1081.558, 491 1079.491 C 477.098 1077.585, 436.349 1076.743, 423 1078.086 M 3983 1078.086 C 3853.745 1091.087, 3744.930 1179.229, 3701.073 1306.452 C 3687.142 1346.863, 3681.649 1380.196, 3681.618 1424.500 C 3681.595 1458.327, 3684.144 1481.578, 3691.101 1511 C 3713.845 1607.185, 3779.181 1691.403, 3864.500 1734.511 C 3889.683 1747.235, 3919.672 1757.552, 3948.742 1763.493 L 3951.984 1764.155 3952.242 1706.828 L 3952.500 1649.500 4010.750 1649.242 L 4069 1648.984 4069 1706.537 L 4069 1764.091 4072.750 1763.422 C 4074.813 1763.054, 4082.715 1761.207, 4090.311 1759.317 C 4156.865 1742.761, 4213.686 1706.208, 4259.467 1650.500 C 4303.184 1597.302, 4329.013 1537.351, 4337.678 1468.965 C 4339.869 1451.675, 4340.157 1400.888, 4338.158 1384.500 C 4329.702 1315.197, 4303.746 1252.663, 4261.368 1199.500 C 4250.173 1185.455, 4224.690 1159.954, 4210.500 1148.595 C 4177.431 1122.123, 4135.602 1100.253, 4096.346 1088.909 C 4083.237 1085.121, 4066.082 1081.558, 4051 1079.491 C 4037.098 1077.585, 3996.349 1076.743, 3983 1078.086 M 2773.259 1405.250 L 2773.546 1722.500 2775.796 1732.261 C 2783.202 1764.395, 2796.021 1788.075, 2817.944 1810.121 C 2824.300 1816.512, 2833.224 1824.479, 2837.776 1827.826 C 2859.398 1843.722, 2884.794 1854.299, 2915.500 1860.196 C 2925.855 1862.185, 2930.416 1862.333, 2993.259 1862.718 L 3060.019 1863.127 3059.759 1813.814 L 3059.500 1764.500 3005 1763.929 C 2946.989 1763.320, 2947.997 1763.402, 2932.600 1758.054 C 2914.732 1751.848, 2897.428 1736.974, 2889.970 1721.412 C 2883.692 1708.311, 2884.031 1719.287, 2884.015 1528.750 L 2884 1355 2972 1355 L 3060 1355 3060 1305.500 L 3060 1256 2972 1256 L 2884 1256 2884 1172 L 2884 1088 2828.486 1088 L 2772.973 1088 2773.259 1405.250 M 1667.500 1245.112 C 1614.937 1250.028, 1569.225 1268.160, 1530 1299.652 C 1519.024 1308.464, 1500.284 1327.311, 1492 1337.869 C 1470.591 1365.154, 1455.003 1397.954, 1448.070 1430.305 C 1442.924 1454.318, 1443 1450.790, 1443 1664.244 L 1443 1863 1498.500 1863 L 1554 1863 1554.006 1667.250 C 1554.011 1501.778, 1554.235 1470.031, 1555.455 1462 C 1561.325 1423.345, 1583.891 1388.829, 1618.500 1365.566 C 1632.896 1355.890, 1648.734 1349.496, 1667.447 1345.805 C 1681.667 1343.001, 1705.775 1342.797, 1719.954 1345.361 C 1747.917 1350.417, 1772.625 1363.593, 1793.533 1384.598 C 1816.890 1408.063, 1829.995 1434.768, 1833.957 1466.974 C 1834.648 1472.588, 1835 1540.847, 1835 1669.224 L 1835 1863 1890.523 1863 L 1946.047 1863 1945.731 1659.750 C 1945.380 1433.476, 1945.937 1451.842, 1938.532 1422.500 C 1920.589 1351.406, 1864.597 1289.627, 1792.586 1261.470 C 1770.881 1252.984, 1746.125 1247.379, 1720 1245.038 C 1706.745 1243.850, 1680.602 1243.887, 1667.500 1245.112 M 2335.500 1244.619 C 2237.666 1252.472, 2155.499 1294.715, 2097.456 1367 C 2061.836 1411.359, 2041.162 1462.039, 2033.816 1523 C 2032.146 1536.858, 2032.158 1582.300, 2033.836 1596.500 C 2039.971 1648.435, 2054.834 1690.139, 2081.592 1730.500 C 2131.628 1805.971, 2214.195 1857.301, 2307.500 1870.943 C 2354.952 1877.880, 2417.054 1875.030, 2470.803 1863.447 C 2521.531 1852.516, 2570.866 1829.835, 2606.549 1801.041 C 2616.979 1792.625, 2636.352 1773.676, 2645.443 1763 C 2654.105 1752.828, 2665.011 1738.070, 2664.972 1736.573 C 2664.942 1735.398, 2570.560 1681.500, 2568.533 1681.500 C 2567.846 1681.500, 2564.443 1685.271, 2560.970 1689.879 C 2525.318 1737.193, 2466.066 1767.581, 2396.845 1774.052 C 2380.303 1775.599, 2340.933 1774.779, 2327.580 1772.609 C 2322.124 1771.723, 2312.269 1769.631, 2305.681 1767.960 C 2236.019 1750.290, 2176.789 1696.532, 2154.536 1630.776 C 2151.062 1620.510, 2146.028 1600.424, 2146.009 1596.752 C 2146 1595.092, 2159.735 1594.991, 2416.250 1594.752 L 2686.500 1594.500 2686.806 1580.500 C 2687.205 1562.278, 2685.488 1527.575, 2683.465 1513 C 2675.968 1458.963, 2654.980 1409.458, 2622.037 1368.108 C 2567.596 1299.771, 2492.678 1258.424, 2401.500 1246.395 C 2390.922 1244.999, 2345.866 1243.787, 2335.500 1244.619 M 2344 1343.622 C 2307.319 1346.276, 2271.891 1358.267, 2242.072 1378.123 C 2226.180 1388.704, 2216.420 1396.798, 2203.466 1410.138 C 2181.465 1432.794, 2166.387 1456.981, 2155.081 1487.750 L 2152.050 1496 2359.025 1496 C 2493.025 1496, 2566 1495.656, 2566 1495.023 C 2566 1493.221, 2558.769 1474.589, 2554.542 1465.500 C 2528.454 1409.405, 2471.460 1363.418, 2410.304 1349.116 C 2391.735 1344.774, 2362.063 1342.315, 2344 1343.622 M 1000 1570 L 1000 1619 1164.500 1619 L 1329 1619 1329 1570 L 1329 1521 1164.500 1521 L 1000 1521 1000 1570 M 3132 1570 L 3132 1619 3296.500 1619 L 3461 1619 3461 1570 L 3461 1521 3296.500 1521 L 3132 1521 3132 1570" stroke="none" fill="#fbfafa" fill-rule="evenodd"/></svg>